{"glyphs":{"0":{"ha":804,"x_min":58,"x_max":746,"o":"m 401 954 q 658 828 571 954 q 746 467 746 703 q 658 104 746 231 q 401 -22 569 -22 q 146 104 233 -22 q 58 467 58 231 q 146 828 58 703 q 401 954 233 954 m 401 807 q 321 774 351 807 q 276 667 290 742 q 261 467 261 593 q 276 266 261 340 q 321 159 290 192 q 401 126 351 126 q 482 158 451 126 q 528 265 513 190 q 543 467 543 339 q 528 670 543 596 q 482 776 513 744 q 401 807 451 807 z "},"1":{"ha":633,"x_min":25,"x_max":510,"o":"m 510 936 l 510 0 l 317 0 l 317 742 l 111 615 l 25 749 l 336 936 l 510 936 z "},"2":{"ha":711,"x_min":15,"x_max":661,"o":"m 328 954 q 496 919 425 954 q 603 823 567 883 q 640 689 640 763 q 608 542 640 613 q 497 382 575 471 q 268 153 418 293 l 661 153 l 639 0 l 43 0 l 43 143 q 296 404 218 318 q 406 550 374 490 q 438 672 438 610 q 403 767 438 732 q 310 801 368 801 q 218 778 258 801 q 133 703 178 756 l 15 797 q 328 954 135 954 z "},"3":{"ha":715,"x_min":1,"x_max":661,"o":"m 326 954 q 491 923 422 954 q 595 838 560 892 q 631 717 631 783 q 582 576 631 632 q 447 496 533 519 q 601 428 542 486 q 661 265 661 369 q 620 119 661 185 q 500 16 579 54 q 313 -22 421 -22 q 1 117 114 -22 l 108 219 q 201 151 156 172 q 301 131 247 131 q 416 169 374 131 q 458 278 458 208 q 418 386 458 353 q 297 419 378 419 l 221 419 l 244 558 l 296 558 q 400 593 361 558 q 439 690 439 628 q 403 775 439 744 q 307 806 368 806 q 210 786 254 806 q 122 725 165 767 l 24 832 q 326 954 153 954 z "},"4":{"ha":774,"x_min":43,"x_max":742,"o":"m 742 358 l 742 208 l 632 208 l 632 0 l 440 0 l 439 208 l 43 208 l 43 342 l 313 957 l 479 894 l 247 358 l 442 358 l 463 588 l 632 588 l 632 358 l 742 358 z "},"5":{"ha":732,"x_min":22,"x_max":683,"o":"m 619 793 l 274 793 l 274 578 q 415 610 342 610 q 553 574 493 610 q 649 469 614 538 q 683 307 683 400 q 639 135 683 210 q 513 19 594 61 q 325 -22 432 -22 q 22 114 144 -22 l 133 218 q 319 129 211 129 q 438 175 396 129 q 481 307 481 221 q 339 472 481 472 q 281 465 308 472 q 222 439 254 457 l 85 439 l 85 936 l 643 936 l 619 793 z "},"6":{"ha":772,"x_min":58,"x_max":733,"o":"m 467 626 q 603 590 543 626 q 699 485 664 554 q 733 319 733 417 q 692 144 733 222 q 576 22 651 67 q 404 -22 501 -22 q 143 98 228 -22 q 58 431 58 218 q 106 706 58 588 q 243 890 154 825 q 453 954 332 954 q 661 894 574 954 l 589 774 q 457 811 525 811 q 321 738 372 811 q 263 531 269 664 q 467 626 346 626 m 406 122 q 502 174 469 122 q 535 317 535 225 q 505 448 535 408 q 415 488 475 488 q 263 401 331 488 q 298 187 265 251 q 406 122 331 122 z "},"7":{"ha":642,"x_min":22,"x_max":613,"o":"m 613 936 l 613 800 l 268 -21 l 89 39 l 408 786 l 22 786 l 22 936 l 613 936 z "},"8":{"ha":797,"x_min":46,"x_max":750,"o":"m 561 503 q 703 397 657 458 q 750 253 750 335 q 707 113 750 176 q 583 14 664 50 q 394 -22 503 -22 q 210 14 289 -22 q 88 112 131 50 q 46 249 46 174 q 222 485 46 407 q 83 706 83 564 q 125 837 83 781 q 238 924 167 893 q 399 954 310 954 q 624 890 535 954 q 714 714 714 826 q 561 503 714 583 m 400 819 q 308 790 342 819 q 275 703 275 760 q 306 620 275 651 q 403 563 336 589 l 431 553 q 501 620 481 585 q 522 704 522 656 q 490 788 522 757 q 400 819 458 819 m 400 122 q 512 158 472 122 q 551 254 551 194 q 517 349 551 314 q 393 415 482 383 l 349 431 q 244 257 244 376 q 286 158 244 194 q 400 122 328 122 z "},"9":{"ha":767,"x_min":43,"x_max":717,"o":"m 379 954 q 630 856 543 954 q 717 592 717 757 q 658 278 717 401 q 476 81 599 156 q 154 -37 354 7 l 113 103 q 390 222 296 149 q 506 424 483 294 q 308 328 431 328 q 174 365 235 328 q 78 472 114 403 q 43 635 43 542 q 88 803 43 731 q 208 915 132 875 q 379 954 285 954 m 365 469 q 515 558 454 469 q 485 753 517 696 q 379 811 454 811 q 277 767 314 811 q 240 640 240 724 q 274 510 240 551 q 365 469 308 469 z "},"\r":{"ha":339,"x_min":0,"x_max":0,"o":""}," ":{"ha":339,"x_min":0,"x_max":0,"o":""},"A":{"ha":814,"x_min":-12,"x_max":826,"o":"m 610 0 l 556 215 l 254 215 l 200 0 l -12 0 l 283 961 l 532 961 l 826 0 l 610 0 m 293 367 l 517 367 l 404 810 l 293 367 z "},"Á":{"ha":814,"x_min":-12,"x_max":826,"o":"m 610 0 l 556 215 l 254 215 l 200 0 l -12 0 l 283 961 l 532 961 l 826 0 l 610 0 m 293 367 l 517 367 l 404 810 l 293 367 m 521 1313 l 596 1163 l 271 1044 l 221 1146 l 521 1313 z "},"Ă":{"ha":814,"x_min":-12,"x_max":826,"o":"m 610 0 l 556 215 l 254 215 l 200 0 l -12 0 l 283 961 l 532 961 l 826 0 l 610 0 m 293 367 l 517 367 l 404 810 l 293 367 m 407 1044 q 246 1106 308 1044 q 175 1257 183 1167 l 288 1278 q 331 1210 301 1235 q 407 1185 360 1185 q 483 1210 453 1185 q 528 1278 514 1235 l 640 1257 q 569 1106 632 1167 q 407 1044 506 1044 z "},"Ắ":{"ha":814,"x_min":-12,"x_max":826,"o":"m 610 0 l 556 215 l 254 215 l 200 0 l -12 0 l 283 961 l 532 961 l 826 0 l 610 0 m 293 367 l 517 367 l 404 810 l 293 367 m 407 1024 q 246 1085 308 1024 q 175 1236 183 1146 l 288 1257 q 331 1189 301 1214 q 407 1164 360 1164 q 483 1189 453 1164 q 528 1257 514 1214 l 640 1236 q 569 1085 632 1146 q 407 1024 506 1024 m 513 1536 l 622 1431 l 411 1240 l 335 1308 l 513 1536 z "},"Ặ":{"ha":814,"x_min":-12,"x_max":826,"o":"m 610 0 l 556 215 l 254 215 l 200 0 l -12 0 l 283 961 l 532 961 l 826 0 l 610 0 m 293 367 l 517 367 l 404 810 l 293 367 m 407 1044 q 246 1106 308 1044 q 175 1257 183 1167 l 288 1278 q 331 1210 301 1235 q 407 1185 360 1185 q 483 1210 453 1185 q 528 1278 514 1235 l 640 1257 q 569 1106 632 1167 q 407 1044 506 1044 m 408 -319 q 322 -287 356 -319 q 288 -204 288 -254 q 322 -122 288 -154 q 408 -89 356 -89 q 494 -122 461 -89 q 528 -204 528 -154 q 494 -287 528 -254 q 408 -319 461 -319 z "},"Ằ":{"ha":814,"x_min":-12,"x_max":826,"o":"m 610 0 l 556 215 l 254 215 l 200 0 l -12 0 l 283 961 l 532 961 l 826 0 l 610 0 m 293 367 l 517 367 l 404 810 l 293 367 m 407 1024 q 246 1085 308 1024 q 175 1236 183 1146 l 288 1257 q 331 1189 301 1214 q 407 1164 360 1164 q 483 1189 453 1164 q 528 1257 514 1214 l 640 1236 q 569 1085 632 1146 q 407 1024 506 1024 m 303 1536 l 482 1308 l 406 1240 l 194 1431 l 303 1536 z "},"Ẳ":{"ha":814,"x_min":-12,"x_max":826,"o":"m 610 0 l 556 215 l 254 215 l 200 0 l -12 0 l 283 961 l 532 961 l 826 0 l 610 0 m 293 367 l 517 367 l 404 810 l 293 367 m 408 1024 q 247 1085 310 1024 q 176 1236 185 1146 l 289 1257 q 332 1189 303 1214 q 408 1164 361 1164 q 485 1189 454 1164 q 529 1257 515 1214 l 642 1236 q 570 1085 633 1146 q 408 1024 507 1024 m 347 1357 q 423 1372 400 1360 q 446 1411 446 1383 q 431 1444 446 1433 q 390 1456 417 1456 q 307 1438 353 1456 l 272 1524 q 418 1560 333 1560 q 542 1522 497 1560 q 586 1421 586 1483 q 469 1294 586 1317 l 469 1233 l 347 1233 l 347 1357 z "},"Ẵ":{"ha":814,"x_min":-12,"x_max":826,"o":"m 610 0 l 556 215 l 254 215 l 200 0 l -12 0 l 283 961 l 532 961 l 826 0 l 610 0 m 293 367 l 517 367 l 404 810 l 293 367 m 408 1024 q 247 1085 310 1024 q 176 1236 185 1146 l 289 1257 q 332 1189 303 1214 q 408 1164 361 1164 q 485 1189 454 1164 q 529 1257 515 1214 l 642 1236 q 570 1085 633 1146 q 408 1024 507 1024 m 492 1294 q 440 1303 463 1294 q 390 1331 418 1313 q 332 1356 356 1356 q 293 1341 310 1356 q 258 1296 276 1326 l 157 1343 q 229 1449 185 1407 q 329 1490 274 1490 q 384 1481 361 1490 q 433 1453 407 1471 q 465 1435 453 1440 q 490 1429 476 1429 q 529 1443 513 1429 q 564 1488 546 1457 l 665 1440 q 593 1333 638 1372 q 492 1294 549 1294 z "},"Ǎ":{"ha":814,"x_min":-12,"x_max":826,"o":"m 610 0 l 556 215 l 254 215 l 200 0 l -12 0 l 283 961 l 532 961 l 826 0 l 610 0 m 293 367 l 517 367 l 404 810 l 293 367 m 592 1299 l 664 1215 l 469 1043 l 347 1043 l 153 1215 l 226 1299 l 408 1183 l 592 1299 z "},"Â":{"ha":814,"x_min":-12,"x_max":826,"o":"m 610 0 l 556 215 l 254 215 l 200 0 l -12 0 l 283 961 l 532 961 l 826 0 l 610 0 m 293 367 l 517 367 l 404 810 l 293 367 m 226 1050 l 153 1133 l 347 1306 l 469 1306 l 664 1133 l 592 1050 l 408 1165 l 226 1050 z "},"Ấ":{"ha":814,"x_min":-12,"x_max":835,"o":"m 610 0 l 556 215 l 254 215 l 200 0 l -12 0 l 283 961 l 532 961 l 826 0 l 610 0 m 293 367 l 517 367 l 404 810 l 293 367 m 225 1000 l 151 1083 l 346 1256 l 468 1256 l 663 1083 l 590 1000 l 407 1115 l 225 1000 m 725 1493 l 835 1388 l 624 1197 l 547 1265 l 725 1493 z "},"Ậ":{"ha":814,"x_min":-12,"x_max":826,"o":"m 610 0 l 556 215 l 254 215 l 200 0 l -12 0 l 283 961 l 532 961 l 826 0 l 610 0 m 293 367 l 517 367 l 404 810 l 293 367 m 226 1050 l 153 1133 l 347 1306 l 469 1306 l 664 1133 l 592 1050 l 408 1165 l 226 1050 m 408 -319 q 322 -287 356 -319 q 288 -204 288 -254 q 322 -122 288 -154 q 408 -89 356 -89 q 494 -122 461 -89 q 528 -204 528 -154 q 494 -287 528 -254 q 408 -319 461 -319 z "},"Ầ":{"ha":814,"x_min":-18,"x_max":826,"o":"m 610 0 l 556 215 l 254 215 l 200 0 l -12 0 l 283 961 l 532 961 l 826 0 l 610 0 m 293 367 l 517 367 l 404 810 l 293 367 m 225 1000 l 151 1083 l 346 1256 l 468 1256 l 663 1083 l 590 1000 l 407 1115 l 225 1000 m 90 1493 l 269 1265 l 193 1197 l -18 1388 l 90 1493 z "},"Ẩ":{"ha":814,"x_min":-12,"x_max":826,"o":"m 610 0 l 556 215 l 254 215 l 200 0 l -12 0 l 283 961 l 532 961 l 826 0 l 610 0 m 293 367 l 517 367 l 404 810 l 293 367 m 225 1000 l 151 1083 l 346 1256 l 468 1256 l 663 1083 l 590 1000 l 407 1115 l 225 1000 m 578 1299 q 653 1313 631 1301 q 676 1353 676 1325 q 662 1386 676 1375 q 621 1397 647 1397 q 538 1379 583 1397 l 503 1465 q 649 1501 564 1501 q 772 1463 728 1501 q 817 1363 817 1425 q 700 1236 817 1258 l 700 1175 l 578 1175 l 578 1299 z "},"Ẫ":{"ha":814,"x_min":-12,"x_max":826,"o":"m 610 0 l 556 215 l 254 215 l 200 0 l -12 0 l 283 961 l 532 961 l 826 0 l 610 0 m 293 367 l 517 367 l 404 810 l 293 367 m 224 1000 l 150 1083 l 344 1256 l 467 1256 l 661 1083 l 589 1000 l 406 1115 l 224 1000 m 486 1294 q 435 1303 457 1294 q 385 1331 413 1313 q 326 1356 350 1356 q 288 1341 304 1356 q 253 1296 271 1326 l 151 1343 q 224 1449 179 1407 q 324 1490 268 1490 q 378 1481 356 1490 q 428 1453 401 1471 q 459 1435 447 1440 q 485 1429 471 1429 q 524 1443 507 1429 q 558 1488 540 1457 l 660 1440 q 588 1333 632 1372 q 486 1294 543 1294 z "},"Ȁ":{"ha":814,"x_min":-12,"x_max":826,"o":"m 610 0 l 556 215 l 254 215 l 200 0 l -12 0 l 283 961 l 532 961 l 826 0 l 610 0 m 293 367 l 517 367 l 404 810 l 293 367 m 229 1360 l 361 1094 l 256 1046 l 92 1290 l 229 1360 m 465 1360 l 585 1097 l 478 1053 l 326 1293 l 465 1360 z "},"Ä":{"ha":814,"x_min":-12,"x_max":826,"o":"m 610 0 l 556 215 l 254 215 l 200 0 l -12 0 l 283 961 l 532 961 l 826 0 l 610 0 m 293 367 l 517 367 l 404 810 l 293 367 m 249 1275 q 323 1245 293 1275 q 353 1172 353 1215 q 323 1099 353 1129 q 249 1069 293 1069 q 175 1099 206 1069 q 144 1172 144 1129 q 175 1245 144 1215 q 249 1275 206 1275 m 563 1275 q 638 1245 607 1275 q 668 1172 668 1215 q 638 1099 668 1129 q 563 1069 607 1069 q 490 1099 519 1069 q 460 1172 460 1129 q 490 1245 460 1215 q 563 1275 519 1275 z "},"Ǟ":{"ha":814,"x_min":-12,"x_max":826,"o":"m 610 0 l 556 215 l 254 215 l 200 0 l -12 0 l 283 961 l 532 961 l 826 0 l 610 0 m 293 367 l 517 367 l 404 810 l 293 367 m 250 1240 q 324 1210 294 1240 q 354 1138 354 1181 q 324 1065 354 1094 q 250 1035 294 1035 q 176 1065 207 1035 q 146 1138 146 1094 q 176 1210 146 1181 q 250 1240 207 1240 m 564 1240 q 639 1210 608 1240 q 669 1138 669 1181 q 639 1065 669 1094 q 564 1035 608 1035 q 491 1065 521 1035 q 461 1138 461 1094 q 491 1210 461 1181 q 564 1240 521 1240 m 619 1293 l 206 1293 l 206 1432 l 619 1432 l 619 1293 z "},"Ȧ":{"ha":814,"x_min":-12,"x_max":826,"o":"m 610 0 l 556 215 l 254 215 l 200 0 l -12 0 l 283 961 l 532 961 l 826 0 l 610 0 m 293 367 l 517 367 l 404 810 l 293 367 m 407 1290 q 494 1258 460 1290 q 528 1175 528 1225 q 494 1092 528 1125 q 407 1060 460 1060 q 321 1092 354 1060 q 288 1175 288 1125 q 321 1258 288 1225 q 407 1290 354 1290 z "},"Ạ":{"ha":814,"x_min":-12,"x_max":826,"o":"m 610 0 l 556 215 l 254 215 l 200 0 l -12 0 l 283 961 l 532 961 l 826 0 l 610 0 m 293 367 l 517 367 l 404 810 l 293 367 m 408 -319 q 322 -287 356 -319 q 288 -204 288 -254 q 322 -122 288 -154 q 408 -89 356 -89 q 494 -122 461 -89 q 528 -204 528 -154 q 494 -287 528 -254 q 408 -319 461 -319 z "},"Ǡ":{"ha":814,"x_min":-12,"x_max":826,"o":"m 610 0 l 556 215 l 254 215 l 200 0 l -12 0 l 283 961 l 532 961 l 826 0 l 610 0 m 293 367 l 517 367 l 404 810 l 293 367 m 407 1254 q 494 1222 460 1254 q 528 1139 528 1189 q 494 1056 528 1089 q 407 1024 460 1024 q 321 1056 354 1024 q 288 1139 288 1089 q 321 1222 288 1189 q 407 1254 354 1254 m 617 1294 l 203 1294 l 203 1433 l 617 1433 l 617 1294 z "},"À":{"ha":814,"x_min":-12,"x_max":826,"o":"m 610 0 l 556 215 l 254 215 l 200 0 l -12 0 l 283 961 l 532 961 l 826 0 l 610 0 m 293 367 l 517 367 l 404 810 l 293 367 m 289 1313 l 589 1146 l 539 1044 l 214 1163 l 289 1313 z "},"Ả":{"ha":814,"x_min":-12,"x_max":826,"o":"m 610 0 l 556 215 l 254 215 l 200 0 l -12 0 l 283 961 l 532 961 l 826 0 l 610 0 m 293 367 l 517 367 l 404 810 l 293 367 m 346 1183 q 422 1198 399 1186 q 444 1238 444 1210 q 430 1271 444 1260 q 389 1282 415 1282 q 306 1264 351 1282 l 271 1350 q 417 1386 332 1386 q 540 1348 496 1386 q 585 1247 585 1310 q 468 1121 585 1143 l 468 1060 l 346 1060 l 346 1183 z "},"Ȃ":{"ha":814,"x_min":-12,"x_max":826,"o":"m 610 0 l 556 215 l 254 215 l 200 0 l -12 0 l 283 961 l 532 961 l 826 0 l 610 0 m 293 367 l 517 367 l 404 810 l 293 367 m 407 1311 q 569 1248 507 1311 q 640 1085 632 1185 l 528 1064 q 407 1172 499 1172 q 288 1064 314 1172 l 175 1085 q 245 1248 183 1185 q 407 1311 307 1311 z "},"Ɑ":{"ha":957,"x_min":53,"x_max":907,"o":"m 846 236 q 859 165 846 188 q 907 125 872 142 l 847 -22 q 736 16 779 -10 q 671 85 693 42 q 431 -22 578 -22 q 235 35 321 -22 q 101 201 150 92 q 53 463 53 310 q 102 742 53 624 q 238 922 151 860 q 436 983 325 983 q 657 888 565 983 l 671 961 l 846 961 l 846 236 m 469 128 q 642 207 571 128 l 642 754 q 474 831 572 831 q 321 743 374 831 q 268 463 268 656 q 321 206 268 285 q 469 128 374 128 z "},"Ā":{"ha":814,"x_min":-12,"x_max":826,"o":"m 610 0 l 556 215 l 254 215 l 200 0 l -12 0 l 283 961 l 532 961 l 826 0 l 610 0 m 293 367 l 517 367 l 404 810 l 293 367 m 615 1089 l 201 1089 l 201 1228 l 615 1228 l 615 1089 z "},"Ą":{"ha":814,"x_min":-12,"x_max":826,"o":"m 725 0 q 558 -146 558 -64 q 633 -210 558 -210 q 718 -200 674 -210 l 704 -326 q 610 -336 653 -336 q 467 -294 522 -336 q 413 -181 413 -251 q 460 -56 413 -108 q 601 33 508 -3 l 556 215 l 254 215 l 200 0 l -12 0 l 283 961 l 532 961 l 826 0 l 725 0 m 293 367 l 517 367 l 404 810 l 293 367 z "},"Å":{"ha":814,"x_min":-12,"x_max":826,"o":"m 610 0 l 556 215 l 254 215 l 200 0 l -12 0 l 283 961 l 532 961 l 826 0 l 610 0 m 293 367 l 517 367 l 404 810 l 293 367 m 408 1369 q 542 1319 490 1369 q 593 1196 593 1268 q 542 1072 593 1122 q 408 1021 490 1021 q 275 1072 326 1021 q 224 1196 224 1122 q 275 1319 224 1268 q 408 1369 326 1369 m 408 1267 q 361 1248 379 1267 q 343 1196 343 1229 q 360 1142 343 1161 q 408 1124 378 1124 q 456 1142 439 1124 q 474 1196 474 1161 q 456 1248 474 1229 q 408 1267 438 1267 z "},"Ǻ":{"ha":814,"x_min":-12,"x_max":826,"o":"m 610 0 l 556 215 l 254 215 l 200 0 l -12 0 l 283 961 l 532 961 l 826 0 l 610 0 m 293 367 l 517 367 l 404 810 l 293 367 m 408 1351 q 542 1301 490 1351 q 593 1178 593 1250 q 542 1053 593 1104 q 408 1003 490 1003 q 275 1053 326 1003 q 224 1178 224 1104 q 275 1301 224 1250 q 408 1351 326 1351 m 408 1249 q 361 1230 379 1249 q 343 1178 343 1211 q 360 1124 343 1143 q 408 1106 378 1106 q 456 1124 439 1106 q 474 1178 474 1143 q 456 1230 474 1211 q 408 1249 438 1249 m 522 1625 l 597 1475 l 272 1357 l 222 1458 l 522 1625 z "},"Ⱥ":{"ha":814,"x_min":-12,"x_max":826,"o":"m 625 0 l 568 215 l 401 215 l 317 -101 l 240 -83 l 319 215 l 240 215 l 183 0 l -12 0 l 283 961 l 518 961 l 540 1047 l 617 1029 l 568 844 l 826 0 l 625 0 m 278 357 l 357 357 l 443 682 l 404 829 l 278 357 m 439 357 l 531 357 l 483 529 l 439 357 z "},"Ã":{"ha":814,"x_min":-12,"x_max":826,"o":"m 610 0 l 556 215 l 254 215 l 200 0 l -12 0 l 283 961 l 532 961 l 826 0 l 610 0 m 293 367 l 517 367 l 404 810 l 293 367 m 489 1064 q 438 1074 460 1064 q 388 1101 417 1083 q 356 1122 369 1115 q 329 1128 343 1128 q 290 1113 307 1128 q 256 1065 274 1097 l 154 1115 q 226 1226 182 1183 q 326 1269 271 1269 q 381 1259 358 1269 q 431 1231 403 1249 q 461 1212 449 1218 q 488 1206 474 1206 q 526 1220 510 1206 q 561 1267 542 1235 l 663 1217 q 590 1105 635 1146 q 489 1064 546 1064 z "},"Æ":{"ha":1164,"x_min":-28,"x_max":1111,"o":"m 792 150 l 1111 150 l 1111 0 l 622 0 l 582 215 l 264 215 l 189 0 l -28 0 l 350 961 l 1058 961 l 1036 813 l 649 813 l 703 560 l 1046 560 l 1046 413 l 735 413 l 792 150 m 315 367 l 553 367 l 469 810 l 315 367 z "},"Ǽ":{"ha":1164,"x_min":-28,"x_max":1111,"o":"m 792 150 l 1111 150 l 1111 0 l 622 0 l 582 215 l 264 215 l 189 0 l -28 0 l 350 961 l 1058 961 l 1036 813 l 649 813 l 703 560 l 1046 560 l 1046 413 l 735 413 l 792 150 m 315 367 l 553 367 l 469 810 l 315 367 m 781 1313 l 856 1163 l 531 1044 l 481 1146 l 781 1313 z "},"Ǣ":{"ha":1164,"x_min":-28,"x_max":1111,"o":"m 792 150 l 1111 150 l 1111 0 l 622 0 l 582 215 l 264 215 l 189 0 l -28 0 l 350 961 l 1058 961 l 1036 813 l 649 813 l 703 560 l 1046 560 l 1046 413 l 735 413 l 792 150 m 315 367 l 553 367 l 469 810 l 315 367 m 875 1089 l 461 1089 l 461 1228 l 875 1228 l 875 1089 z "},"B":{"ha":854,"x_min":101,"x_max":811,"o":"m 593 508 q 751 438 690 490 q 811 279 811 386 q 703 64 811 128 q 401 0 594 0 l 101 0 l 101 961 l 364 961 q 665 903 561 961 q 769 715 769 844 q 719 578 769 631 q 593 508 668 526 m 306 814 l 306 571 l 406 571 q 521 602 481 571 q 561 697 561 633 q 518 788 561 761 q 383 814 475 814 l 306 814 m 403 151 q 549 180 499 151 q 599 288 599 208 q 421 432 599 432 l 306 432 l 306 151 l 403 151 z "},"Ḃ":{"ha":854,"x_min":101,"x_max":811,"o":"m 593 508 q 751 438 690 490 q 811 279 811 386 q 703 64 811 128 q 401 0 594 0 l 101 0 l 101 961 l 364 961 q 665 903 561 961 q 769 715 769 844 q 719 578 769 631 q 593 508 668 526 m 306 814 l 306 571 l 406 571 q 521 602 481 571 q 561 697 561 633 q 518 788 561 761 q 383 814 475 814 l 306 814 m 403 151 q 549 180 499 151 q 599 288 599 208 q 421 432 599 432 l 306 432 l 306 151 l 403 151 m 410 1290 q 497 1258 463 1290 q 531 1175 531 1225 q 497 1092 531 1125 q 410 1060 463 1060 q 324 1092 357 1060 q 290 1175 290 1125 q 324 1258 290 1225 q 410 1290 357 1290 z "},"Ḅ":{"ha":854,"x_min":101,"x_max":811,"o":"m 593 508 q 751 438 690 490 q 811 279 811 386 q 703 64 811 128 q 401 0 594 0 l 101 0 l 101 961 l 364 961 q 665 903 561 961 q 769 715 769 844 q 719 578 769 631 q 593 508 668 526 m 306 814 l 306 571 l 406 571 q 521 602 481 571 q 561 697 561 633 q 518 788 561 761 q 383 814 475 814 l 306 814 m 403 151 q 549 180 499 151 q 599 288 599 208 q 421 432 599 432 l 306 432 l 306 151 l 403 151 m 431 -319 q 344 -287 378 -319 q 310 -204 310 -254 q 344 -122 310 -154 q 431 -89 378 -89 q 517 -122 483 -89 q 550 -204 550 -154 q 517 -287 550 -254 q 431 -319 483 -319 z "},"Ꞵ":{"ha":854,"x_min":101,"x_max":811,"o":"m 593 508 q 751 439 690 490 q 811 285 811 388 q 711 69 811 138 q 456 0 611 0 q 306 15 379 0 l 306 -289 l 101 -289 l 101 961 l 364 961 q 665 903 561 961 q 769 715 769 844 q 719 578 769 631 q 593 508 668 526 m 433 151 q 553 185 508 151 q 599 294 599 219 q 553 399 599 365 q 433 432 508 432 l 382 432 l 396 571 l 419 571 q 522 603 483 571 q 561 694 561 635 q 518 788 561 761 q 383 814 475 814 l 306 814 l 306 161 q 433 151 376 151 z "},"Ɓ":{"ha":1031,"x_min":7,"x_max":988,"o":"m 769 508 q 927 438 867 490 q 988 279 988 386 q 879 64 988 128 q 578 0 771 0 l 278 0 l 278 813 l 239 813 q 172 751 172 813 q 178 709 172 729 q 194 658 183 689 l 68 601 q 24 681 40 643 q 7 764 7 719 q 72 908 7 856 q 250 961 138 961 l 540 961 q 842 903 738 961 q 946 715 946 844 q 895 578 946 631 q 769 508 844 526 m 482 814 l 482 571 l 582 571 q 697 602 657 571 q 738 697 738 633 q 694 788 738 761 q 560 814 651 814 l 482 814 m 579 151 q 725 180 675 151 q 775 288 775 208 q 597 432 775 432 l 482 432 l 482 151 l 579 151 z "},"Ƀ":{"ha":872,"x_min":21,"x_max":831,"o":"m 613 508 q 770 438 710 490 q 831 279 831 386 q 722 64 831 128 q 421 0 614 0 l 121 0 l 121 242 l 21 242 l 21 349 l 121 349 l 121 961 l 383 961 q 685 903 581 961 q 789 715 789 844 q 738 578 789 631 q 613 508 688 526 m 325 814 l 325 571 l 425 571 q 540 602 500 571 q 581 697 581 633 q 538 788 581 761 q 403 814 494 814 l 325 814 m 422 151 q 568 180 518 151 q 618 288 618 208 q 440 432 618 432 l 325 432 l 325 349 l 500 349 l 500 242 l 325 242 l 325 151 l 422 151 z "},"Ƃ":{"ha":822,"x_min":101,"x_max":793,"o":"m 415 614 q 694 538 596 614 q 793 315 793 463 q 691 79 793 158 q 417 0 589 0 l 101 0 l 101 961 l 683 961 l 661 804 l 306 804 l 306 614 l 415 614 m 406 151 q 535 190 490 151 q 579 313 579 228 q 535 431 579 392 q 400 469 490 469 l 306 469 l 306 151 l 406 151 z "},"C":{"ha":793,"x_min":53,"x_max":779,"o":"m 481 983 q 638 958 571 983 q 768 879 704 932 l 667 761 q 492 829 583 829 q 328 745 389 829 q 268 482 268 661 q 328 223 268 307 q 493 139 389 139 q 592 159 547 139 q 685 217 636 179 l 779 99 q 652 12 728 46 q 485 -22 576 -22 q 258 36 356 -22 q 107 208 161 94 q 53 482 53 321 q 108 752 53 639 q 261 924 164 865 q 481 983 358 983 z "},"Ć":{"ha":793,"x_min":53,"x_max":779,"o":"m 481 983 q 638 958 571 983 q 768 879 704 932 l 667 761 q 492 829 583 829 q 328 745 389 829 q 268 482 268 661 q 328 223 268 307 q 493 139 389 139 q 592 159 547 139 q 685 217 636 179 l 779 99 q 652 12 728 46 q 485 -22 576 -22 q 258 36 356 -22 q 107 208 161 94 q 53 482 53 321 q 108 752 53 639 q 261 924 164 865 q 481 983 358 983 m 601 1313 l 676 1163 l 351 1044 l 301 1146 l 601 1313 z "},"Č":{"ha":793,"x_min":53,"x_max":779,"o":"m 481 983 q 638 958 571 983 q 768 879 704 932 l 667 761 q 492 829 583 829 q 328 745 389 829 q 268 482 268 661 q 328 223 268 307 q 493 139 389 139 q 592 159 547 139 q 685 217 636 179 l 779 99 q 652 12 728 46 q 485 -22 576 -22 q 258 36 356 -22 q 107 208 161 94 q 53 482 53 321 q 108 752 53 639 q 261 924 164 865 q 481 983 358 983 m 672 1299 l 744 1215 l 550 1043 l 428 1043 l 233 1215 l 307 1299 l 489 1183 l 672 1299 z "},"Ç":{"ha":793,"x_min":53,"x_max":779,"o":"m 779 99 q 672 21 735 53 q 531 -19 608 -11 l 531 -69 q 636 -112 601 -76 q 671 -203 671 -147 q 616 -315 671 -272 q 472 -357 561 -357 q 388 -346 426 -357 q 324 -317 350 -335 l 369 -222 q 458 -246 413 -246 q 525 -201 525 -246 q 495 -163 525 -175 q 397 -151 465 -151 l 414 -18 q 149 135 246 6 q 53 482 53 264 q 108 752 53 639 q 261 924 164 865 q 481 983 358 983 q 638 958 571 983 q 768 879 704 932 l 667 761 q 492 829 583 829 q 328 745 389 829 q 268 482 268 661 q 328 223 268 307 q 493 139 389 139 q 592 159 547 139 q 685 217 636 179 l 779 99 z "},"Ĉ":{"ha":793,"x_min":53,"x_max":779,"o":"m 481 983 q 638 958 571 983 q 768 879 704 932 l 667 761 q 492 829 583 829 q 328 745 389 829 q 268 482 268 661 q 328 223 268 307 q 493 139 389 139 q 592 159 547 139 q 685 217 636 179 l 779 99 q 652 12 728 46 q 485 -22 576 -22 q 258 36 356 -22 q 107 208 161 94 q 53 482 53 321 q 108 752 53 639 q 261 924 164 865 q 481 983 358 983 m 307 1050 l 233 1133 l 428 1306 l 550 1306 l 744 1133 l 672 1050 l 489 1165 l 307 1050 z "},"Ċ":{"ha":793,"x_min":53,"x_max":779,"o":"m 481 983 q 638 958 571 983 q 768 879 704 932 l 667 761 q 492 829 583 829 q 328 745 389 829 q 268 482 268 661 q 328 223 268 307 q 493 139 389 139 q 592 159 547 139 q 685 217 636 179 l 779 99 q 652 12 728 46 q 485 -22 576 -22 q 258 36 356 -22 q 107 208 161 94 q 53 482 53 321 q 108 752 53 639 q 261 924 164 865 q 481 983 358 983 m 488 1290 q 574 1258 540 1290 q 608 1175 608 1225 q 574 1092 608 1125 q 488 1060 540 1060 q 401 1092 435 1060 q 368 1175 368 1125 q 401 1258 368 1225 q 488 1290 435 1290 z "},"Ꭓ":{"ha":781,"x_min":-3,"x_max":783,"o":"m 508 415 l 783 -214 l 558 -214 l 386 278 l 215 -214 l -3 -214 l 265 408 l 19 961 l 243 961 l 389 538 l 540 961 l 758 961 l 508 415 z "},"Ƈ":{"ha":793,"x_min":53,"x_max":1000,"o":"m 819 1176 q 1000 1124 921 1176 l 940 1000 q 892 1022 914 1015 q 843 1029 871 1029 q 768 939 768 1029 l 768 879 l 678 775 q 490 829 585 829 q 328 745 388 829 q 268 482 268 661 q 328 224 268 308 q 493 139 389 139 q 590 160 547 139 q 685 219 633 181 l 779 99 q 652 12 728 46 q 483 -22 576 -22 q 257 36 354 -22 q 106 208 160 94 q 53 482 53 321 q 108 752 53 639 q 256 924 163 865 q 461 983 350 983 q 590 960 536 983 q 653 1120 594 1064 q 819 1176 711 1176 z "},"Ȼ":{"ha":793,"x_min":53,"x_max":779,"o":"m 779 99 q 652 12 728 46 q 485 -22 576 -22 q 379 -11 432 -22 l 356 -101 l 279 -83 l 304 13 q 119 183 186 63 q 53 482 53 303 q 108 752 53 639 q 261 924 164 865 q 481 983 358 983 q 561 978 528 983 l 579 1047 l 656 1029 l 636 958 q 768 879 703 933 l 667 761 q 596 806 632 789 l 422 150 q 493 139 458 139 q 592 159 547 139 q 685 217 636 179 l 779 99 m 268 482 q 353 193 268 281 l 521 828 q 492 829 511 829 q 328 745 389 829 q 268 482 268 661 z "},"D":{"ha":903,"x_min":101,"x_max":849,"o":"m 353 961 q 713 859 578 961 q 849 485 849 757 q 716 109 849 218 q 376 0 583 0 l 101 0 l 101 961 l 353 961 m 306 811 l 306 150 l 389 150 q 572 223 507 150 q 636 485 636 296 q 603 688 636 615 q 517 785 571 760 q 385 811 463 811 l 306 811 z "},"Ǳ":{"ha":1617,"x_min":101,"x_max":1574,"o":"m 353 961 q 713 859 578 961 q 849 485 849 757 q 716 109 849 218 q 376 0 583 0 l 101 0 l 101 961 l 353 961 m 306 811 l 306 150 l 389 150 q 572 223 507 150 q 636 485 636 296 q 603 688 636 615 q 517 785 571 760 q 385 811 463 811 l 306 811 m 1567 961 l 1567 804 l 1136 165 l 1574 165 l 1551 0 l 897 0 l 897 154 l 1336 800 l 942 800 l 942 961 l 1567 961 z "},"Ǆ":{"ha":1617,"x_min":101,"x_max":1574,"o":"m 353 961 q 713 859 578 961 q 849 485 849 757 q 716 109 849 218 q 376 0 583 0 l 101 0 l 101 961 l 353 961 m 306 811 l 306 150 l 389 150 q 572 223 507 150 q 636 485 636 296 q 603 688 636 615 q 517 785 571 760 q 385 811 463 811 l 306 811 m 1567 961 l 1567 804 l 1136 165 l 1574 165 l 1551 0 l 897 0 l 897 154 l 1336 800 l 942 800 l 942 961 l 1567 961 m 1433 1299 l 1506 1215 l 1311 1043 l 1189 1043 l 994 1215 l 1068 1299 l 1250 1183 l 1433 1299 z "},"Ɖ":{"ha":921,"x_min":21,"x_max":867,"o":"m 371 961 q 731 859 596 961 q 867 485 867 757 q 734 109 867 218 q 394 0 601 0 l 119 0 l 119 426 l 21 426 l 21 554 l 119 554 l 119 961 l 371 961 m 407 150 q 590 223 525 150 q 654 485 654 296 q 622 688 654 615 q 535 785 589 760 q 403 811 481 811 l 324 811 l 324 554 l 519 554 l 519 426 l 324 426 l 324 150 l 407 150 z "},"Ð":{"ha":921,"x_min":21,"x_max":867,"o":"m 371 961 q 731 859 596 961 q 867 485 867 757 q 734 109 867 218 q 394 0 601 0 l 119 0 l 119 426 l 21 426 l 21 554 l 119 554 l 119 961 l 371 961 m 407 150 q 590 223 525 150 q 654 485 654 296 q 622 688 654 615 q 535 785 589 760 q 403 811 481 811 l 324 811 l 324 554 l 519 554 l 519 426 l 324 426 l 324 150 l 407 150 z "},"Ď":{"ha":903,"x_min":101,"x_max":849,"o":"m 353 961 q 713 859 578 961 q 849 485 849 757 q 716 109 849 218 q 376 0 583 0 l 101 0 l 101 961 l 353 961 m 306 811 l 306 150 l 389 150 q 572 223 507 150 q 636 485 636 296 q 603 688 636 615 q 517 785 571 760 q 385 811 463 811 l 306 811 m 596 1299 l 668 1215 l 474 1043 l 351 1043 l 157 1215 l 231 1299 l 413 1183 l 596 1299 z "},"Ḓ":{"ha":903,"x_min":101,"x_max":849,"o":"m 353 961 q 713 859 578 961 q 849 485 849 757 q 716 109 849 218 q 376 0 583 0 l 101 0 l 101 961 l 353 961 m 306 811 l 306 150 l 389 150 q 572 223 507 150 q 636 485 636 296 q 603 688 636 615 q 517 785 571 760 q 385 811 463 811 l 306 811 m 240 -354 l 168 -271 l 363 -89 l 485 -89 l 679 -271 l 606 -354 l 424 -231 l 240 -354 z "},"Đ":{"ha":921,"x_min":21,"x_max":867,"o":"m 371 961 q 731 859 596 961 q 867 485 867 757 q 734 109 867 218 q 394 0 601 0 l 119 0 l 119 426 l 21 426 l 21 554 l 119 554 l 119 961 l 371 961 m 407 150 q 590 223 525 150 q 654 485 654 296 q 622 688 654 615 q 535 785 589 760 q 403 811 481 811 l 324 811 l 324 554 l 519 554 l 519 426 l 324 426 l 324 150 l 407 150 z "},"Ḋ":{"ha":903,"x_min":101,"x_max":849,"o":"m 353 961 q 713 859 578 961 q 849 485 849 757 q 716 109 849 218 q 376 0 583 0 l 101 0 l 101 961 l 353 961 m 306 811 l 306 150 l 389 150 q 572 223 507 150 q 636 485 636 296 q 603 688 636 615 q 517 785 571 760 q 385 811 463 811 l 306 811 m 411 1290 q 498 1258 464 1290 q 532 1175 532 1225 q 498 1092 532 1125 q 411 1060 464 1060 q 325 1092 358 1060 q 292 1175 292 1125 q 325 1258 292 1225 q 411 1290 358 1290 z "},"Ḍ":{"ha":903,"x_min":101,"x_max":849,"o":"m 353 961 q 713 859 578 961 q 849 485 849 757 q 716 109 849 218 q 376 0 583 0 l 101 0 l 101 961 l 353 961 m 306 811 l 306 150 l 389 150 q 572 223 507 150 q 636 485 636 296 q 603 688 636 615 q 517 785 571 760 q 385 811 463 811 l 306 811 m 424 -319 q 337 -287 371 -319 q 303 -204 303 -254 q 337 -122 303 -154 q 424 -89 371 -89 q 510 -122 476 -89 q 543 -204 543 -154 q 510 -287 543 -254 q 424 -319 476 -319 z "},"Ɗ":{"ha":1079,"x_min":7,"x_max":1025,"o":"m 529 961 q 890 859 754 961 q 1025 485 1025 757 q 892 109 1025 218 q 553 0 760 0 l 278 0 l 278 813 l 239 813 q 172 751 172 813 q 178 709 172 729 q 194 658 183 689 l 68 601 q 24 681 40 643 q 7 764 7 719 q 72 908 7 856 q 250 961 138 961 l 529 961 m 565 150 q 748 223 683 150 q 813 485 813 296 q 780 688 813 615 q 693 785 747 760 q 561 811 639 811 l 482 811 l 482 150 l 565 150 z "},"Ḏ":{"ha":903,"x_min":101,"x_max":849,"o":"m 353 961 q 713 859 578 961 q 849 485 849 757 q 716 109 849 218 q 376 0 583 0 l 101 0 l 101 961 l 353 961 m 306 811 l 306 150 l 389 150 q 572 223 507 150 q 636 485 636 296 q 603 688 636 615 q 517 785 571 760 q 385 811 463 811 l 306 811 m 631 -260 l 217 -260 l 217 -121 l 631 -121 l 631 -260 z "},"Ƌ":{"ha":822,"x_min":29,"x_max":721,"o":"m 721 0 l 396 0 q 128 76 228 0 q 29 306 29 151 q 129 533 29 453 q 407 614 229 614 l 517 614 l 517 804 l 147 804 l 147 961 l 721 961 l 721 0 m 517 151 l 517 469 l 422 469 q 243 306 243 469 q 288 187 243 222 q 417 151 332 151 l 517 151 z "},"ǲ":{"ha":1519,"x_min":101,"x_max":1490,"o":"m 353 961 q 713 859 578 961 q 849 485 849 757 q 716 109 849 218 q 376 0 583 0 l 101 0 l 101 961 l 353 961 m 306 811 l 306 150 l 389 150 q 572 223 507 150 q 636 485 636 296 q 603 688 636 615 q 517 785 571 760 q 385 811 463 811 l 306 811 m 1483 736 l 1483 596 l 1138 153 l 1490 153 l 1471 0 l 911 0 l 911 142 l 1257 585 l 940 585 l 940 736 l 1483 736 z "},"ǅ":{"ha":1519,"x_min":101,"x_max":1490,"o":"m 353 961 q 713 859 578 961 q 849 485 849 757 q 716 109 849 218 q 376 0 583 0 l 101 0 l 101 961 l 353 961 m 306 811 l 306 150 l 389 150 q 572 223 507 150 q 636 485 636 296 q 603 688 636 615 q 517 785 571 760 q 385 811 463 811 l 306 811 m 1483 736 l 1483 596 l 1138 153 l 1490 153 l 1471 0 l 911 0 l 911 142 l 1257 585 l 940 585 l 940 736 l 1483 736 m 1390 1119 l 1463 1036 l 1268 854 l 1146 854 l 951 1036 l 1025 1119 l 1207 996 l 1390 1119 z "},"E":{"ha":733,"x_min":101,"x_max":678,"o":"m 675 961 l 653 813 l 306 813 l 306 563 l 608 563 l 608 415 l 306 415 l 306 150 l 678 150 l 678 0 l 101 0 l 101 961 l 675 961 z "},"É":{"ha":733,"x_min":101,"x_max":678,"o":"m 675 961 l 653 813 l 306 813 l 306 563 l 608 563 l 608 415 l 306 415 l 306 150 l 678 150 l 678 0 l 101 0 l 101 961 l 675 961 m 504 1313 l 579 1163 l 254 1044 l 204 1146 l 504 1313 z "},"Ĕ":{"ha":733,"x_min":101,"x_max":678,"o":"m 675 961 l 653 813 l 306 813 l 306 563 l 608 563 l 608 415 l 306 415 l 306 150 l 678 150 l 678 0 l 101 0 l 101 961 l 675 961 m 390 1044 q 229 1106 292 1044 q 158 1257 167 1167 l 271 1278 q 314 1210 285 1235 q 390 1185 343 1185 q 467 1210 436 1185 q 511 1278 497 1235 l 624 1257 q 552 1106 615 1167 q 390 1044 489 1044 z "},"Ě":{"ha":733,"x_min":101,"x_max":678,"o":"m 675 961 l 653 813 l 306 813 l 306 563 l 608 563 l 608 415 l 306 415 l 306 150 l 678 150 l 678 0 l 101 0 l 101 961 l 675 961 m 575 1299 l 647 1215 l 453 1043 l 331 1043 l 136 1215 l 210 1299 l 392 1183 l 575 1299 z "},"Ȩ":{"ha":733,"x_min":101,"x_max":678,"o":"m 444 0 l 444 -69 q 550 -112 515 -76 q 585 -203 585 -147 q 530 -315 585 -272 q 386 -357 475 -357 q 302 -346 340 -357 q 238 -317 264 -335 l 283 -222 q 372 -246 326 -246 q 439 -201 439 -246 q 409 -163 439 -175 q 311 -151 379 -151 l 331 0 l 101 0 l 101 961 l 675 961 l 653 813 l 306 813 l 306 563 l 608 563 l 608 415 l 306 415 l 306 150 l 678 150 l 678 0 l 444 0 z "},"Ê":{"ha":733,"x_min":101,"x_max":678,"o":"m 675 961 l 653 813 l 306 813 l 306 563 l 608 563 l 608 415 l 306 415 l 306 150 l 678 150 l 678 0 l 101 0 l 101 961 l 675 961 m 210 1050 l 136 1133 l 331 1306 l 453 1306 l 647 1133 l 575 1050 l 392 1165 l 210 1050 z "},"Ế":{"ha":733,"x_min":101,"x_max":818,"o":"m 675 961 l 653 813 l 306 813 l 306 563 l 608 563 l 608 415 l 306 415 l 306 150 l 678 150 l 678 0 l 101 0 l 101 961 l 675 961 m 208 1000 l 135 1083 l 329 1256 l 451 1256 l 646 1083 l 574 1000 l 390 1115 l 208 1000 m 708 1493 l 818 1388 l 607 1197 l 531 1265 l 708 1493 z "},"Ệ":{"ha":733,"x_min":101,"x_max":678,"o":"m 675 961 l 653 813 l 306 813 l 306 563 l 608 563 l 608 415 l 306 415 l 306 150 l 678 150 l 678 0 l 101 0 l 101 961 l 675 961 m 210 1050 l 136 1133 l 331 1306 l 453 1306 l 647 1133 l 575 1050 l 392 1165 l 210 1050 m 390 -319 q 303 -287 338 -319 q 269 -204 269 -254 q 303 -122 269 -154 q 390 -89 338 -89 q 476 -122 443 -89 q 510 -204 510 -154 q 476 -287 510 -254 q 390 -319 443 -319 z "},"Ề":{"ha":733,"x_min":-35,"x_max":678,"o":"m 675 961 l 653 813 l 306 813 l 306 563 l 608 563 l 608 415 l 306 415 l 306 150 l 678 150 l 678 0 l 101 0 l 101 961 l 675 961 m 208 1000 l 135 1083 l 329 1256 l 451 1256 l 646 1083 l 574 1000 l 390 1115 l 208 1000 m 74 1493 l 253 1265 l 176 1197 l -35 1388 l 74 1493 z "},"Ể":{"ha":733,"x_min":101,"x_max":800,"o":"m 675 961 l 653 813 l 306 813 l 306 563 l 608 563 l 608 415 l 306 415 l 306 150 l 678 150 l 678 0 l 101 0 l 101 961 l 675 961 m 208 1000 l 135 1083 l 329 1256 l 451 1256 l 646 1083 l 574 1000 l 390 1115 l 208 1000 m 561 1299 q 637 1313 614 1301 q 660 1353 660 1325 q 645 1386 660 1375 q 604 1397 631 1397 q 521 1379 567 1397 l 486 1465 q 632 1501 547 1501 q 756 1463 711 1501 q 800 1363 800 1425 q 683 1236 800 1258 l 683 1175 l 561 1175 l 561 1299 z "},"Ễ":{"ha":733,"x_min":101,"x_max":678,"o":"m 675 961 l 653 813 l 306 813 l 306 563 l 608 563 l 608 415 l 306 415 l 306 150 l 678 150 l 678 0 l 101 0 l 101 961 l 675 961 m 207 1000 l 133 1083 l 328 1256 l 450 1256 l 644 1083 l 572 1000 l 389 1115 l 207 1000 m 469 1294 q 418 1303 440 1294 q 368 1331 396 1313 q 310 1356 333 1356 q 271 1341 288 1356 q 236 1296 254 1326 l 135 1343 q 207 1449 163 1407 q 307 1490 251 1490 q 362 1481 339 1490 q 411 1453 385 1471 q 442 1435 431 1440 q 468 1429 454 1429 q 507 1443 490 1429 q 542 1488 524 1457 l 643 1440 q 571 1333 615 1372 q 469 1294 526 1294 z "},"Ȅ":{"ha":733,"x_min":75,"x_max":678,"o":"m 675 961 l 653 813 l 306 813 l 306 563 l 608 563 l 608 415 l 306 415 l 306 150 l 678 150 l 678 0 l 101 0 l 101 961 l 675 961 m 213 1360 l 344 1094 l 239 1046 l 75 1290 l 213 1360 m 449 1360 l 568 1097 l 461 1053 l 310 1293 l 449 1360 z "},"Ë":{"ha":733,"x_min":101,"x_max":678,"o":"m 675 961 l 653 813 l 306 813 l 306 563 l 608 563 l 608 415 l 306 415 l 306 150 l 678 150 l 678 0 l 101 0 l 101 961 l 675 961 m 232 1275 q 306 1245 276 1275 q 336 1172 336 1215 q 306 1099 336 1129 q 232 1069 276 1069 q 158 1099 189 1069 q 128 1172 128 1129 q 158 1245 128 1215 q 232 1275 189 1275 m 546 1275 q 621 1245 590 1275 q 651 1172 651 1215 q 621 1099 651 1129 q 546 1069 590 1069 q 473 1099 503 1069 q 443 1172 443 1129 q 473 1245 443 1215 q 546 1275 503 1275 z "},"Ė":{"ha":733,"x_min":101,"x_max":678,"o":"m 675 961 l 653 813 l 306 813 l 306 563 l 608 563 l 608 415 l 306 415 l 306 150 l 678 150 l 678 0 l 101 0 l 101 961 l 675 961 m 390 1290 q 477 1258 443 1290 q 511 1175 511 1225 q 477 1092 511 1125 q 390 1060 443 1060 q 304 1092 338 1060 q 271 1175 271 1125 q 304 1258 271 1225 q 390 1290 338 1290 z "},"Ẹ":{"ha":733,"x_min":101,"x_max":678,"o":"m 675 961 l 653 813 l 306 813 l 306 563 l 608 563 l 608 415 l 306 415 l 306 150 l 678 150 l 678 0 l 101 0 l 101 961 l 675 961 m 390 -319 q 303 -287 338 -319 q 269 -204 269 -254 q 303 -122 269 -154 q 390 -89 338 -89 q 476 -122 443 -89 q 510 -204 510 -154 q 476 -287 510 -254 q 390 -319 443 -319 z "},"È":{"ha":733,"x_min":101,"x_max":678,"o":"m 675 961 l 653 813 l 306 813 l 306 563 l 608 563 l 608 415 l 306 415 l 306 150 l 678 150 l 678 0 l 101 0 l 101 961 l 675 961 m 272 1313 l 572 1146 l 522 1044 l 197 1163 l 272 1313 z "},"Ẻ":{"ha":733,"x_min":101,"x_max":678,"o":"m 675 961 l 653 813 l 306 813 l 306 563 l 608 563 l 608 415 l 306 415 l 306 150 l 678 150 l 678 0 l 101 0 l 101 961 l 675 961 m 329 1183 q 405 1198 382 1186 q 428 1238 428 1210 q 413 1271 428 1260 q 372 1282 399 1282 q 289 1264 335 1282 l 254 1350 q 400 1386 315 1386 q 524 1348 479 1386 q 568 1247 568 1310 q 451 1121 568 1143 l 451 1060 l 329 1060 l 329 1183 z "},"Ȇ":{"ha":733,"x_min":101,"x_max":678,"o":"m 675 961 l 653 813 l 306 813 l 306 563 l 608 563 l 608 415 l 306 415 l 306 150 l 678 150 l 678 0 l 101 0 l 101 961 l 675 961 m 390 1311 q 553 1248 490 1311 q 624 1085 615 1185 l 511 1064 q 390 1172 482 1172 q 271 1064 297 1172 l 158 1085 q 228 1248 167 1185 q 390 1311 290 1311 z "},"Ē":{"ha":733,"x_min":101,"x_max":678,"o":"m 675 961 l 653 813 l 306 813 l 306 563 l 608 563 l 608 415 l 306 415 l 306 150 l 678 150 l 678 0 l 101 0 l 101 961 l 675 961 m 599 1089 l 185 1089 l 185 1228 l 599 1228 l 599 1089 z "},"Ę":{"ha":733,"x_min":101,"x_max":678,"o":"m 678 150 l 678 0 l 622 0 q 456 -146 456 -64 q 531 -210 456 -210 q 615 -200 571 -210 l 601 -326 q 507 -336 550 -336 q 365 -294 419 -336 q 310 -181 310 -251 q 429 0 310 -69 l 101 0 l 101 961 l 675 961 l 653 813 l 306 813 l 306 563 l 608 563 l 608 415 l 306 415 l 306 150 l 678 150 z "},"Ɛ":{"ha":744,"x_min":43,"x_max":744,"o":"m 400 983 q 717 858 583 983 l 615 751 q 422 832 526 832 q 317 799 350 832 q 283 711 283 765 q 324 616 283 650 q 436 582 364 582 l 538 582 l 513 432 l 439 432 q 304 393 350 432 q 258 283 258 354 q 303 172 258 211 q 431 132 349 132 q 539 154 490 132 q 632 219 588 176 l 744 113 q 413 -22 621 -22 q 222 14 306 -22 q 90 117 138 50 q 43 272 43 185 q 107 438 43 378 q 281 511 171 499 q 126 590 179 533 q 72 732 72 647 q 113 861 72 804 q 227 951 153 918 q 400 983 301 983 z "},"Ǝ":{"ha":733,"x_min":56,"x_max":632,"o":"m 64 961 l 632 961 l 632 0 l 56 0 l 56 150 l 426 150 l 426 415 l 125 415 l 125 563 l 426 563 l 426 813 l 64 813 l 64 961 z "},"Ʃ":{"ha":699,"x_min":36,"x_max":663,"o":"m 663 961 l 663 810 l 263 810 l 506 519 l 506 429 l 261 154 l 663 154 l 663 0 l 36 0 l 36 151 l 313 471 l 36 810 l 36 961 l 663 961 z "},"Ɇ":{"ha":733,"x_min":101,"x_max":678,"o":"m 678 150 l 678 0 l 350 0 l 324 -101 l 247 -83 l 269 0 l 101 0 l 101 961 l 525 961 l 547 1047 l 622 1029 l 604 961 l 675 961 l 653 813 l 565 813 l 499 563 l 608 563 l 608 415 l 460 415 l 390 150 l 678 150 m 306 813 l 306 563 l 418 563 l 485 813 l 306 813 m 306 150 l 310 150 l 379 415 l 306 415 l 306 150 z "},"Ẽ":{"ha":733,"x_min":101,"x_max":678,"o":"m 675 961 l 653 813 l 306 813 l 306 563 l 608 563 l 608 415 l 306 415 l 306 150 l 678 150 l 678 0 l 101 0 l 101 961 l 675 961 m 472 1064 q 422 1074 443 1064 q 371 1101 400 1083 q 340 1122 353 1115 q 313 1128 326 1128 q 274 1113 290 1128 q 239 1065 257 1097 l 138 1115 q 210 1226 165 1183 q 310 1269 254 1269 q 364 1259 342 1269 q 414 1231 386 1249 q 444 1212 432 1218 q 471 1206 457 1206 q 509 1220 493 1206 q 544 1267 525 1235 l 646 1217 q 574 1105 618 1146 q 472 1064 529 1064 z "},"Ʒ":{"ha":749,"x_min":7,"x_max":706,"o":"m 401 558 q 627 482 549 554 q 706 283 706 410 q 661 126 706 196 q 532 17 617 57 q 332 -22 447 -22 q 144 13 222 -22 q 7 117 65 47 l 114 221 q 210 153 163 174 q 322 132 258 132 q 449 174 404 132 q 494 290 494 215 q 448 401 494 367 q 310 435 401 435 l 176 435 l 176 554 l 432 810 l 60 810 l 60 961 l 661 961 l 661 814 l 401 558 z "},"Ǯ":{"ha":749,"x_min":7,"x_max":706,"o":"m 401 558 q 627 482 549 554 q 706 283 706 410 q 661 126 706 196 q 532 17 617 57 q 332 -22 447 -22 q 144 13 222 -22 q 7 117 65 47 l 114 221 q 210 153 163 174 q 322 132 258 132 q 449 174 404 132 q 494 290 494 215 q 448 401 494 367 q 310 435 401 435 l 176 435 l 176 554 l 432 810 l 60 810 l 60 961 l 661 961 l 661 814 l 401 558 m 544 1299 l 617 1215 l 422 1043 l 300 1043 l 106 1215 l 179 1299 l 361 1183 l 544 1299 z "},"Ƹ":{"ha":749,"x_min":43,"x_max":742,"o":"m 742 117 q 602 13 682 47 q 407 -22 522 -22 q 215 16 297 -22 q 88 123 132 54 q 43 278 43 192 q 124 477 43 401 q 347 558 206 553 l 88 814 l 88 961 l 689 961 l 689 810 l 318 810 l 572 551 l 572 435 l 439 435 q 301 395 347 435 q 254 281 254 356 q 298 172 254 213 q 418 132 342 132 q 537 153 486 132 q 635 221 588 174 l 742 117 z "},"F":{"ha":678,"x_min":101,"x_max":660,"o":"m 101 0 l 101 961 l 660 961 l 638 813 l 306 813 l 306 540 l 594 540 l 594 392 l 306 392 l 306 0 l 101 0 z "},"Ḟ":{"ha":678,"x_min":101,"x_max":660,"o":"m 101 0 l 101 961 l 660 961 l 638 813 l 306 813 l 306 540 l 594 540 l 594 392 l 306 392 l 306 0 l 101 0 m 393 1290 q 480 1258 446 1290 q 514 1175 514 1225 q 480 1092 514 1125 q 393 1060 446 1060 q 307 1092 340 1060 q 274 1175 274 1125 q 307 1258 274 1225 q 393 1290 340 1290 z "},"Ƒ":{"ha":678,"x_min":-143,"x_max":660,"o":"m 306 813 l 306 540 l 594 540 l 594 392 l 306 392 l 306 1 l 307 1 l 307 -53 q 237 -241 307 -176 q 44 -306 167 -306 q -143 -247 -67 -306 l -74 -125 q -26 -147 -46 -140 q 24 -154 -6 -154 q 101 -65 101 -154 l 101 961 l 660 961 l 638 813 l 306 813 z "},"G":{"ha":890,"x_min":53,"x_max":822,"o":"m 503 983 q 676 953 600 983 q 817 868 751 924 l 710 757 q 613 814 658 796 q 511 832 568 832 q 334 745 401 832 q 267 481 267 658 q 319 212 267 293 q 481 131 371 131 q 624 165 560 131 l 624 400 l 489 400 l 468 549 l 822 549 l 822 75 q 660 3 747 29 q 485 -22 574 -22 q 163 106 272 -22 q 53 482 53 233 q 113 753 53 639 q 274 925 172 867 q 503 983 376 983 z "},"Ǵ":{"ha":890,"x_min":53,"x_max":822,"o":"m 503 983 q 676 953 600 983 q 817 868 751 924 l 710 757 q 613 814 658 796 q 511 832 568 832 q 334 745 401 832 q 267 481 267 658 q 319 212 267 293 q 481 131 371 131 q 624 165 560 131 l 624 400 l 489 400 l 468 549 l 822 549 l 822 75 q 660 3 747 29 q 485 -22 574 -22 q 163 106 272 -22 q 53 482 53 233 q 113 753 53 639 q 274 925 172 867 q 503 983 376 983 m 603 1313 l 678 1163 l 353 1044 l 303 1146 l 603 1313 z "},"Ɣ":{"ha":786,"x_min":-12,"x_max":797,"o":"m 504 119 q 574 -21 553 38 q 596 -140 596 -79 q 547 -262 596 -218 q 396 -306 497 -306 q 246 -262 296 -306 q 196 -140 196 -218 q 217 -29 196 -86 q 289 119 239 28 l -12 961 l 206 961 l 397 254 l 589 961 l 797 961 l 504 119 m 438 -126 q 427 -69 438 -100 q 396 10 417 -37 q 365 -69 375 -36 q 354 -126 354 -101 q 365 -160 354 -149 q 396 -172 376 -172 q 438 -126 438 -172 z "},"Ğ":{"ha":890,"x_min":53,"x_max":822,"o":"m 503 983 q 676 953 600 983 q 817 868 751 924 l 710 757 q 613 814 658 796 q 511 832 568 832 q 334 745 401 832 q 267 481 267 658 q 319 212 267 293 q 481 131 371 131 q 624 165 560 131 l 624 400 l 489 400 l 468 549 l 822 549 l 822 75 q 660 3 747 29 q 485 -22 574 -22 q 163 106 272 -22 q 53 482 53 233 q 113 753 53 639 q 274 925 172 867 q 503 983 376 983 m 489 1044 q 328 1106 390 1044 q 257 1257 265 1167 l 369 1278 q 413 1210 383 1235 q 489 1185 442 1185 q 565 1210 535 1185 q 610 1278 596 1235 l 722 1257 q 651 1106 714 1167 q 489 1044 588 1044 z "},"Ǧ":{"ha":890,"x_min":53,"x_max":822,"o":"m 503 983 q 676 953 600 983 q 817 868 751 924 l 710 757 q 613 814 658 796 q 511 832 568 832 q 334 745 401 832 q 267 481 267 658 q 319 212 267 293 q 481 131 371 131 q 624 165 560 131 l 624 400 l 489 400 l 468 549 l 822 549 l 822 75 q 660 3 747 29 q 485 -22 574 -22 q 163 106 272 -22 q 53 482 53 233 q 113 753 53 639 q 274 925 172 867 q 503 983 376 983 m 674 1299 l 746 1215 l 551 1043 l 429 1043 l 235 1215 l 308 1299 l 490 1183 l 674 1299 z "},"Ĝ":{"ha":890,"x_min":53,"x_max":822,"o":"m 503 983 q 676 953 600 983 q 817 868 751 924 l 710 757 q 613 814 658 796 q 511 832 568 832 q 334 745 401 832 q 267 481 267 658 q 319 212 267 293 q 481 131 371 131 q 624 165 560 131 l 624 400 l 489 400 l 468 549 l 822 549 l 822 75 q 660 3 747 29 q 485 -22 574 -22 q 163 106 272 -22 q 53 482 53 233 q 113 753 53 639 q 274 925 172 867 q 503 983 376 983 m 308 1050 l 235 1133 l 429 1306 l 551 1306 l 746 1133 l 674 1050 l 490 1165 l 308 1050 z "},"Ģ":{"ha":890,"x_min":53,"x_max":822,"o":"m 503 983 q 676 953 600 983 q 817 868 751 924 l 710 757 q 613 814 658 796 q 511 832 568 832 q 334 745 401 832 q 267 481 267 658 q 319 212 267 293 q 481 131 371 131 q 624 165 560 131 l 624 400 l 489 400 l 468 549 l 822 549 l 822 75 q 660 3 747 29 q 485 -22 574 -22 q 163 106 272 -22 q 53 482 53 233 q 113 753 53 639 q 274 925 172 867 q 503 983 376 983 m 483 -97 q 556 -126 526 -97 q 585 -197 585 -154 q 577 -245 585 -221 q 549 -312 569 -269 l 485 -442 l 385 -442 l 422 -282 q 381 -197 381 -247 q 410 -126 381 -156 q 483 -97 439 -97 z "},"Ġ":{"ha":890,"x_min":53,"x_max":822,"o":"m 503 983 q 676 953 600 983 q 817 868 751 924 l 710 757 q 613 814 658 796 q 511 832 568 832 q 334 745 401 832 q 267 481 267 658 q 319 212 267 293 q 481 131 371 131 q 624 165 560 131 l 624 400 l 489 400 l 468 549 l 822 549 l 822 75 q 660 3 747 29 q 485 -22 574 -22 q 163 106 272 -22 q 53 482 53 233 q 113 753 53 639 q 274 925 172 867 q 503 983 376 983 m 489 1290 q 576 1258 542 1290 q 610 1175 610 1225 q 576 1092 610 1125 q 489 1060 542 1060 q 403 1092 436 1060 q 369 1175 369 1125 q 403 1258 369 1225 q 489 1290 436 1290 z "},"Ɠ":{"ha":842,"x_min":53,"x_max":1049,"o":"m 868 1176 q 1049 1124 972 1176 l 989 1000 q 941 1022 963 1015 q 892 1029 919 1029 q 817 939 817 1029 l 817 868 l 719 767 q 616 815 665 799 q 511 832 567 832 q 334 745 401 832 q 267 481 267 658 q 319 212 267 293 q 481 131 371 131 q 624 165 560 131 l 624 400 l 489 400 l 468 549 l 822 549 l 822 75 q 661 3 749 29 q 479 -22 574 -22 q 162 106 271 -22 q 53 482 53 235 q 112 751 53 638 q 269 924 171 865 q 479 983 367 983 q 639 951 568 983 q 699 1117 642 1058 q 868 1176 757 1176 z "},"Ɂ":{"ha":693,"x_min":7,"x_max":665,"o":"m 206 454 l 288 478 q 413 546 374 501 q 453 674 453 590 q 414 790 453 747 q 306 832 375 832 q 206 813 253 832 q 108 751 158 793 l 7 858 q 155 952 76 921 q 329 983 233 983 q 507 946 431 983 q 624 840 583 908 q 665 683 665 772 q 608 501 665 565 q 443 397 550 436 l 410 385 l 410 0 l 206 0 l 206 454 z "},"Ǥ":{"ha":915,"x_min":53,"x_max":913,"o":"m 913 242 l 822 242 l 822 75 q 662 3 749 29 q 483 -22 575 -22 q 163 106 272 -22 q 53 482 53 235 q 113 753 53 639 q 274 925 172 867 q 501 983 376 983 q 675 953 600 983 q 817 868 750 924 l 711 757 q 613 814 658 796 q 511 832 568 832 q 334 745 401 832 q 267 481 267 658 q 319 212 267 293 q 481 131 371 131 q 636 164 560 131 l 636 242 l 482 242 l 482 368 l 636 368 l 636 433 l 486 433 l 468 565 l 822 565 l 822 368 l 913 368 l 913 242 z "},"Ȝ":{"ha":717,"x_min":1,"x_max":674,"o":"m 325 983 q 496 950 424 983 q 606 858 568 917 q 644 725 644 800 q 592 577 644 635 q 436 497 539 519 q 611 430 549 485 q 674 271 674 375 q 533 13 674 124 q 94 -153 393 -99 l 78 1 q 311 80 228 38 q 427 170 394 122 q 460 279 460 218 q 278 418 460 418 l 179 418 l 203 568 l 281 568 q 393 603 353 568 q 433 704 433 639 q 401 797 433 763 q 299 832 368 832 q 97 751 199 832 l 1 858 q 325 983 138 983 z "},"H":{"ha":929,"x_min":101,"x_max":828,"o":"m 624 0 l 624 421 l 306 421 l 306 0 l 101 0 l 101 961 l 306 961 l 306 582 l 624 582 l 624 961 l 828 961 l 828 0 l 624 0 z "},"Ħ":{"ha":944,"x_min":25,"x_max":918,"o":"m 918 817 l 918 697 l 835 697 l 835 0 l 631 0 l 631 421 l 313 421 l 313 0 l 108 0 l 108 697 l 25 697 l 25 817 l 108 817 l 108 961 l 313 961 l 313 817 l 631 817 l 631 961 l 835 961 l 835 817 l 918 817 m 631 582 l 631 697 l 313 697 l 313 582 l 631 582 z "},"Ȟ":{"ha":929,"x_min":101,"x_max":828,"o":"m 624 0 l 624 421 l 306 421 l 306 0 l 101 0 l 101 961 l 306 961 l 306 582 l 624 582 l 624 961 l 828 961 l 828 0 l 624 0 m 649 1299 l 721 1215 l 526 1043 l 404 1043 l 210 1215 l 283 1299 l 465 1183 l 649 1299 z "},"Ĥ":{"ha":929,"x_min":101,"x_max":828,"o":"m 624 0 l 624 421 l 306 421 l 306 0 l 101 0 l 101 961 l 306 961 l 306 582 l 624 582 l 624 961 l 828 961 l 828 0 l 624 0 m 283 1050 l 210 1133 l 404 1306 l 526 1306 l 721 1133 l 649 1050 l 465 1165 l 283 1050 z "},"Ḥ":{"ha":929,"x_min":101,"x_max":828,"o":"m 624 0 l 624 421 l 306 421 l 306 0 l 101 0 l 101 961 l 306 961 l 306 582 l 624 582 l 624 961 l 828 961 l 828 0 l 624 0 m 465 -319 q 378 -287 413 -319 q 344 -204 344 -254 q 378 -122 344 -154 q 465 -89 413 -89 q 551 -122 518 -89 q 585 -204 585 -154 q 551 -287 585 -254 q 465 -319 518 -319 z "},"Ɦ":{"ha":1106,"x_min":7,"x_max":1004,"o":"m 1004 961 l 1004 0 l 800 0 l 800 421 l 482 421 l 482 0 l 278 0 l 278 813 l 239 813 q 172 751 172 813 q 178 709 172 729 q 194 658 183 689 l 68 601 q 24 681 40 643 q 7 764 7 719 q 72 908 7 856 q 250 961 138 961 l 482 961 l 482 582 l 800 582 l 800 961 l 1004 961 z "},"Ɥ":{"ha":857,"x_min":36,"x_max":756,"o":"m 756 961 l 756 0 l 551 0 l 551 364 q 449 306 501 324 q 329 288 396 288 q 114 373 192 288 q 36 607 36 458 l 36 961 l 238 961 l 238 611 q 275 483 238 525 q 388 442 313 442 q 551 503 488 442 l 551 961 l 756 961 z "},"Ƕ":{"ha":1326,"x_min":101,"x_max":1260,"o":"m 1219 736 q 1260 347 1260 529 q 1210 139 1260 222 q 1080 17 1160 56 q 908 -22 1000 -22 q 704 46 785 -22 q 624 244 624 114 l 624 421 l 306 421 l 306 0 l 101 0 l 101 961 l 306 961 l 306 582 l 624 582 l 624 961 l 828 961 l 828 250 q 921 125 828 125 q 1020 181 979 125 q 1061 363 1061 238 q 1025 736 1061 536 l 1219 736 z "},"I":{"ha":408,"x_min":101,"x_max":306,"o":"m 306 961 l 306 0 l 101 0 l 101 961 l 306 961 z "},"Ĳ":{"ha":844,"x_min":101,"x_max":749,"o":"m 306 961 l 306 0 l 101 0 l 101 961 l 306 961 m 749 143 q 710 -40 749 32 q 608 -153 672 -112 q 453 -225 544 -194 l 399 -79 q 491 -25 460 -56 q 533 46 522 6 q 544 150 544 86 l 544 961 l 749 961 l 749 143 z "},"Í":{"ha":408,"x_min":17,"x_max":392,"o":"m 306 961 l 306 0 l 101 0 l 101 961 l 306 961 m 317 1313 l 392 1163 l 67 1044 l 17 1146 l 317 1313 z "},"Ĭ":{"ha":408,"x_min":-29,"x_max":436,"o":"m 306 961 l 306 0 l 101 0 l 101 961 l 306 961 m 203 1044 q 42 1106 104 1044 q -29 1257 -21 1167 l 83 1278 q 126 1210 97 1235 q 203 1185 156 1185 q 279 1210 249 1185 q 324 1278 310 1235 l 436 1257 q 365 1106 428 1167 q 203 1044 301 1044 z "},"Ǐ":{"ha":408,"x_min":-51,"x_max":460,"o":"m 306 961 l 306 0 l 101 0 l 101 961 l 306 961 m 388 1299 l 460 1215 l 265 1043 l 143 1043 l -51 1215 l 22 1299 l 204 1183 l 388 1299 z "},"Î":{"ha":408,"x_min":-51,"x_max":460,"o":"m 306 961 l 306 0 l 101 0 l 101 961 l 306 961 m 22 1050 l -51 1133 l 143 1306 l 265 1306 l 460 1133 l 388 1050 l 204 1165 l 22 1050 z "},"Ȉ":{"ha":408,"x_min":-112,"x_max":381,"o":"m 306 961 l 306 0 l 101 0 l 101 961 l 306 961 m 25 1360 l 157 1094 l 51 1046 l -112 1290 l 25 1360 m 261 1360 l 381 1097 l 274 1053 l 122 1293 l 261 1360 z "},"Ï":{"ha":408,"x_min":-60,"x_max":464,"o":"m 306 961 l 306 0 l 101 0 l 101 961 l 306 961 m 44 1275 q 119 1245 89 1275 q 149 1172 149 1215 q 119 1099 149 1129 q 44 1069 89 1069 q -29 1099 1 1069 q -60 1172 -60 1129 q -29 1245 -60 1215 q 44 1275 1 1275 m 358 1275 q 433 1245 403 1275 q 464 1172 464 1215 q 433 1099 464 1129 q 358 1069 403 1069 q 285 1099 315 1069 q 256 1172 256 1129 q 285 1245 256 1215 q 358 1275 315 1275 z "},"Ḯ":{"ha":408,"x_min":-65,"x_max":471,"o":"m 306 961 l 306 0 l 101 0 l 101 961 l 306 961 m 306 1494 l 415 1389 l 204 1199 l 128 1267 l 306 1494 m 39 1243 q 113 1213 82 1243 q 143 1140 143 1183 q 113 1067 143 1097 q 39 1038 82 1038 q -35 1067 -4 1038 q -65 1140 -65 1097 q -35 1213 -65 1183 q 39 1243 -4 1243 m 367 1243 q 440 1213 410 1243 q 471 1140 471 1183 q 440 1067 471 1097 q 367 1038 410 1038 q 292 1067 322 1038 q 263 1140 263 1097 q 292 1213 263 1183 q 367 1243 322 1243 z "},"İ":{"ha":408,"x_min":83,"x_max":324,"o":"m 306 961 l 306 0 l 101 0 l 101 961 l 306 961 m 203 1290 q 290 1258 256 1290 q 324 1175 324 1225 q 290 1092 324 1125 q 203 1060 256 1060 q 117 1092 150 1060 q 83 1175 83 1125 q 117 1258 83 1225 q 203 1290 150 1290 z "},"Ị":{"ha":408,"x_min":83,"x_max":324,"o":"m 306 961 l 306 0 l 101 0 l 101 961 l 306 961 m 204 -319 q 117 -287 151 -319 q 83 -204 83 -254 q 117 -122 83 -154 q 204 -89 151 -89 q 290 -122 257 -89 q 324 -204 324 -154 q 290 -287 324 -254 q 204 -319 257 -319 z "},"Ì":{"ha":408,"x_min":10,"x_max":385,"o":"m 306 961 l 306 0 l 101 0 l 101 961 l 306 961 m 85 1313 l 385 1146 l 335 1044 l 10 1163 l 85 1313 z "},"Ỉ":{"ha":408,"x_min":67,"x_max":381,"o":"m 306 961 l 306 0 l 101 0 l 101 961 l 306 961 m 142 1183 q 217 1198 194 1186 q 240 1238 240 1210 q 226 1271 240 1260 q 185 1282 211 1282 q 101 1264 147 1282 l 67 1350 q 213 1386 128 1386 q 336 1348 292 1386 q 381 1247 381 1310 q 264 1121 381 1143 l 264 1060 l 142 1060 l 142 1183 z "},"Ȋ":{"ha":408,"x_min":-29,"x_max":436,"o":"m 306 961 l 306 0 l 101 0 l 101 961 l 306 961 m 203 1311 q 365 1248 303 1311 q 436 1085 428 1185 l 324 1064 q 203 1172 294 1172 q 83 1064 110 1172 l -29 1085 q 41 1248 -21 1185 q 203 1311 103 1311 z "},"Ī":{"ha":408,"x_min":-3,"x_max":411,"o":"m 306 961 l 306 0 l 101 0 l 101 961 l 306 961 m 411 1089 l -3 1089 l -3 1228 l 411 1228 l 411 1089 z "},"Į":{"ha":408,"x_min":-36,"x_max":306,"o":"m 306 961 l 306 0 l 276 0 q 110 -146 110 -64 q 185 -210 110 -210 q 269 -200 225 -210 l 256 -326 q 161 -336 204 -336 q 19 -294 74 -336 q -36 -181 -36 -251 q -1 -73 -36 -119 q 101 10 33 -26 l 101 961 l 306 961 z "},"Ɩ":{"ha":535,"x_min":88,"x_max":538,"o":"m 538 36 q 350 -22 461 -22 q 158 42 228 -22 q 88 231 88 107 l 88 961 l 292 961 l 292 285 l 293 285 l 293 218 q 371 129 293 129 q 420 136 400 129 q 468 158 440 143 l 538 36 z "},"Ɨ":{"ha":453,"x_min":11,"x_max":442,"o":"m 442 575 l 442 424 l 328 424 l 328 0 l 124 0 l 124 424 l 11 424 l 11 575 l 124 575 l 124 961 l 328 961 l 328 575 l 442 575 z "},"Ĩ":{"ha":408,"x_min":-50,"x_max":458,"o":"m 306 961 l 306 0 l 101 0 l 101 961 l 306 961 m 285 1064 q 234 1074 256 1064 q 183 1101 213 1083 q 152 1122 165 1115 q 125 1128 139 1128 q 86 1113 103 1128 q 51 1065 69 1097 l -50 1115 q 22 1226 -22 1183 q 122 1269 67 1269 q 176 1259 154 1269 q 226 1231 199 1249 q 257 1212 244 1218 q 283 1206 269 1206 q 322 1220 306 1206 q 357 1267 338 1235 l 458 1217 q 386 1105 431 1146 q 285 1064 342 1064 z "},"J":{"ha":436,"x_min":-10,"x_max":340,"o":"m 340 143 q 302 -40 340 32 q 200 -153 264 -112 q 44 -225 136 -194 l -10 -79 q 83 -25 51 -56 q 125 46 114 6 q 136 150 136 86 l 136 961 l 340 961 l 340 143 z "},"Ĵ":{"ha":436,"x_min":-18,"x_max":493,"o":"m 340 143 q 302 -40 340 32 q 200 -153 264 -112 q 44 -225 136 -194 l -10 -79 q 83 -25 51 -56 q 125 46 114 6 q 136 150 136 86 l 136 961 l 340 961 l 340 143 m 56 1050 l -18 1133 l 176 1306 l 299 1306 l 493 1133 l 421 1050 l 238 1165 l 56 1050 z "},"Ʝ":{"ha":483,"x_min":-121,"x_max":533,"o":"m 496 -149 q 368 -103 436 -122 q 86 -306 315 -306 q -67 -262 -12 -306 q -121 -144 -121 -218 q -60 -15 -121 -60 q 114 31 0 31 q 176 28 143 31 l 176 961 l 382 961 l 382 29 q 381 -4 382 7 q 533 -62 458 -25 l 496 -149 m 79 -196 q 151 -167 129 -196 q 175 -74 172 -139 q 114 -69 153 -69 q 33 -86 58 -69 q 7 -139 7 -103 q 79 -196 7 -196 z "},"Ɉ":{"ha":460,"x_min":-10,"x_max":453,"o":"m 453 399 l 340 399 l 340 143 q 302 -40 340 32 q 200 -153 264 -112 q 44 -225 136 -194 l -10 -79 q 83 -25 51 -56 q 125 46 114 6 q 136 150 136 86 l 136 399 l 22 399 l 22 554 l 136 554 l 136 961 l 340 961 l 340 554 l 453 554 l 453 399 z "},"K":{"ha":864,"x_min":101,"x_max":876,"o":"m 306 961 l 306 0 l 101 0 l 101 961 l 306 961 m 851 961 l 531 528 l 876 0 l 638 0 l 314 513 l 633 961 l 851 961 z "},"Ǩ":{"ha":864,"x_min":101,"x_max":876,"o":"m 306 961 l 306 0 l 101 0 l 101 961 l 306 961 m 851 961 l 531 528 l 876 0 l 638 0 l 314 513 l 633 961 l 851 961 m 640 1299 l 713 1215 l 518 1043 l 396 1043 l 201 1215 l 275 1299 l 457 1183 l 640 1299 z "},"Ķ":{"ha":864,"x_min":101,"x_max":876,"o":"m 306 961 l 306 0 l 101 0 l 101 961 l 306 961 m 851 961 l 531 528 l 876 0 l 638 0 l 314 513 l 633 961 l 851 961 m 450 -97 q 522 -126 493 -97 q 551 -197 551 -154 q 544 -245 551 -221 q 515 -312 536 -269 l 451 -442 l 351 -442 l 389 -282 q 347 -197 347 -247 q 376 -126 347 -156 q 450 -97 406 -97 z "},"Ƙ":{"ha":894,"x_min":101,"x_max":908,"o":"m 314 513 l 517 828 q 622 949 571 914 q 756 983 674 983 q 908 932 844 983 l 851 814 q 782 833 818 833 q 731 819 751 833 q 679 760 710 804 l 531 528 l 876 0 l 638 0 l 314 513 m 306 961 l 306 0 l 101 0 l 101 961 l 306 961 z "},"L":{"ha":707,"x_min":101,"x_max":686,"o":"m 306 961 l 306 164 l 686 164 l 664 0 l 101 0 l 101 961 l 306 961 z "},"Ǉ":{"ha":1113,"x_min":101,"x_max":1017,"o":"m 306 961 l 306 164 l 686 164 l 664 0 l 101 0 l 101 961 l 306 961 m 1017 143 q 978 -40 1017 32 q 876 -153 940 -112 q 721 -225 813 -194 l 667 -79 q 759 -25 728 -56 q 801 46 790 6 q 813 150 813 86 l 813 961 l 1017 961 l 1017 143 z "},"Ĺ":{"ha":707,"x_min":17,"x_max":686,"o":"m 306 961 l 306 164 l 686 164 l 664 0 l 101 0 l 101 961 l 306 961 m 317 1313 l 392 1163 l 67 1044 l 17 1146 l 317 1313 z "},"Ƚ":{"ha":728,"x_min":11,"x_max":706,"o":"m 325 164 l 706 164 l 683 0 l 121 0 l 121 426 l 11 426 l 11 582 l 121 582 l 121 961 l 325 961 l 325 582 l 442 582 l 442 426 l 325 426 l 325 164 z "},"Ɬ":{"ha":831,"x_min":4,"x_max":808,"o":"m 808 164 l 786 0 l 224 0 l 224 353 q 59 402 114 356 q 4 529 4 449 q 52 646 4 604 q 175 688 100 688 q 224 682 207 688 l 224 961 l 428 961 l 428 474 q 597 493 504 475 l 614 382 q 428 357 524 361 l 428 164 l 808 164 m 140 531 q 224 471 140 471 l 224 576 q 189 579 201 579 q 153 567 167 579 q 140 531 140 554 z "},"Ľ":{"ha":707,"x_min":101,"x_max":686,"o":"m 306 961 l 306 164 l 686 164 l 664 0 l 101 0 l 101 961 l 306 961 m 478 672 l 553 961 l 400 982 l 369 689 l 478 672 z "},"Ḽ":{"ha":707,"x_min":101,"x_max":686,"o":"m 306 961 l 306 164 l 686 164 l 664 0 l 101 0 l 101 961 l 306 961 m 200 -354 l 128 -271 l 322 -89 l 444 -89 l 639 -271 l 565 -354 l 383 -231 l 200 -354 z "},"Ļ":{"ha":707,"x_min":101,"x_max":686,"o":"m 306 961 l 306 164 l 686 164 l 664 0 l 101 0 l 101 961 l 306 961 m 386 -97 q 458 -126 429 -97 q 488 -197 488 -154 q 480 -245 488 -221 q 451 -312 472 -269 l 388 -442 l 288 -442 l 325 -282 q 283 -197 283 -247 q 313 -126 283 -156 q 386 -97 342 -97 z "},"Ŀ":{"ha":707,"x_min":101,"x_max":686,"o":"m 306 961 l 306 164 l 686 164 l 664 0 l 101 0 l 101 961 l 306 961 m 551 667 q 638 634 604 667 q 672 551 672 601 q 638 469 672 501 q 551 436 604 436 q 465 469 499 436 q 432 551 432 501 q 465 634 432 601 q 551 667 499 667 z "},"Ḷ":{"ha":707,"x_min":101,"x_max":686,"o":"m 306 961 l 306 164 l 686 164 l 664 0 l 101 0 l 101 961 l 306 961 m 383 -319 q 297 -287 331 -319 q 263 -204 263 -254 q 297 -122 263 -154 q 383 -89 331 -89 q 469 -122 436 -89 q 503 -204 503 -154 q 469 -287 503 -254 q 383 -319 436 -319 z "},"ǈ":{"ha":1076,"x_min":101,"x_max":1001,"o":"m 306 961 l 306 164 l 686 164 l 664 0 l 101 0 l 101 961 l 306 961 m 979 74 q 945 -109 979 -37 q 851 -224 911 -181 q 699 -304 792 -268 l 633 -161 q 718 -112 688 -136 q 765 -47 749 -87 q 782 61 782 -6 l 782 736 l 979 736 l 979 74 m 881 1115 q 967 1083 933 1115 q 1001 1000 1001 1050 q 967 917 1001 950 q 881 885 933 885 q 794 917 828 885 q 761 1000 761 950 q 794 1083 761 1050 q 881 1115 828 1115 z "},"Ł":{"ha":754,"x_min":17,"x_max":733,"o":"m 353 164 l 733 164 l 711 0 l 149 0 l 149 322 l 85 283 l 17 394 l 149 476 l 149 961 l 353 961 l 353 603 l 542 719 l 611 608 l 353 449 l 353 164 z "},"M":{"ha":1089,"x_min":56,"x_max":1033,"o":"m 1033 0 l 833 0 l 813 390 q 803 688 803 565 q 804 782 803 753 l 642 103 l 449 103 l 275 783 q 281 593 281 699 q 275 386 281 481 l 254 0 l 56 0 l 131 961 l 390 961 l 549 299 l 697 961 l 960 961 l 1033 0 z "},"Ḿ":{"ha":1089,"x_min":56,"x_max":1033,"o":"m 1033 0 l 833 0 l 813 390 q 803 688 803 565 q 804 782 803 753 l 642 103 l 449 103 l 275 783 q 281 593 281 699 q 275 386 281 481 l 254 0 l 56 0 l 131 961 l 390 961 l 549 299 l 697 961 l 960 961 l 1033 0 m 657 1313 l 732 1163 l 407 1044 l 357 1146 l 657 1313 z "},"Ṁ":{"ha":1089,"x_min":56,"x_max":1033,"o":"m 1033 0 l 833 0 l 813 390 q 803 688 803 565 q 804 782 803 753 l 642 103 l 449 103 l 275 783 q 281 593 281 699 q 275 386 281 481 l 254 0 l 56 0 l 131 961 l 390 961 l 549 299 l 697 961 l 960 961 l 1033 0 m 543 1290 q 630 1258 596 1290 q 664 1175 664 1225 q 630 1092 664 1125 q 543 1060 596 1060 q 457 1092 490 1060 q 424 1175 424 1125 q 457 1258 424 1225 q 543 1290 490 1290 z "},"Ɯ":{"ha":1276,"x_min":88,"x_max":1175,"o":"m 1175 961 l 1175 0 l 997 0 l 982 93 q 881 6 933 33 q 763 -22 828 -22 q 638 13 690 -22 q 557 108 585 47 q 446 9 501 40 q 321 -22 390 -22 q 149 53 211 -22 q 88 250 88 128 l 88 961 l 292 961 l 292 258 q 316 166 292 199 q 383 133 340 133 q 456 158 424 133 q 529 235 489 182 l 529 250 l 529 961 l 733 961 l 733 258 q 758 166 733 199 q 825 133 782 133 q 901 157 868 133 q 971 236 933 181 l 971 961 l 1175 961 z "},"N":{"ha":928,"x_min":101,"x_max":826,"o":"m 826 0 l 564 0 l 258 763 q 278 577 271 664 q 286 374 286 490 l 286 0 l 101 0 l 101 961 l 358 961 l 669 197 q 642 539 642 383 l 642 961 l 826 961 l 826 0 z "},"Ǌ":{"ha":1364,"x_min":101,"x_max":1268,"o":"m 826 0 l 564 0 l 258 763 q 278 577 271 664 q 286 374 286 490 l 286 0 l 101 0 l 101 961 l 358 961 l 669 197 q 642 539 642 383 l 642 961 l 826 961 l 826 0 m 1268 143 q 1230 -40 1268 32 q 1128 -153 1192 -112 q 972 -225 1064 -194 l 918 -79 q 1010 -25 979 -56 q 1053 46 1042 6 q 1064 150 1064 86 l 1064 961 l 1268 961 l 1268 143 z "},"Ń":{"ha":928,"x_min":101,"x_max":826,"o":"m 826 0 l 564 0 l 258 763 q 278 577 271 664 q 286 374 286 490 l 286 0 l 101 0 l 101 961 l 358 961 l 669 197 q 642 539 642 383 l 642 961 l 826 961 l 826 0 m 585 1313 l 660 1163 l 335 1044 l 285 1146 l 585 1313 z "},"Ň":{"ha":928,"x_min":101,"x_max":826,"o":"m 826 0 l 564 0 l 258 763 q 278 577 271 664 q 286 374 286 490 l 286 0 l 101 0 l 101 961 l 358 961 l 669 197 q 642 539 642 383 l 642 961 l 826 961 l 826 0 m 656 1299 l 728 1215 l 533 1043 l 411 1043 l 217 1215 l 290 1299 l 472 1183 l 656 1299 z "},"Ṋ":{"ha":928,"x_min":101,"x_max":826,"o":"m 826 0 l 564 0 l 258 763 q 278 577 271 664 q 286 374 286 490 l 286 0 l 101 0 l 101 961 l 358 961 l 669 197 q 642 539 642 383 l 642 961 l 826 961 l 826 0 m 282 -354 l 210 -271 l 404 -89 l 526 -89 l 721 -271 l 647 -354 l 465 -231 l 282 -354 z "},"Ņ":{"ha":928,"x_min":101,"x_max":826,"o":"m 826 0 l 564 0 l 258 763 q 278 577 271 664 q 286 374 286 490 l 286 0 l 101 0 l 101 961 l 358 961 l 669 197 q 642 539 642 383 l 642 961 l 826 961 l 826 0 m 468 -97 q 540 -126 511 -97 q 569 -197 569 -154 q 562 -245 569 -221 q 533 -312 554 -269 l 469 -442 l 369 -442 l 407 -282 q 365 -197 365 -247 q 394 -126 365 -156 q 468 -97 424 -97 z "},"Ṅ":{"ha":928,"x_min":101,"x_max":826,"o":"m 826 0 l 564 0 l 258 763 q 278 577 271 664 q 286 374 286 490 l 286 0 l 101 0 l 101 961 l 358 961 l 669 197 q 642 539 642 383 l 642 961 l 826 961 l 826 0 m 471 1290 q 558 1258 524 1290 q 592 1175 592 1225 q 558 1092 592 1125 q 471 1060 524 1060 q 385 1092 418 1060 q 351 1175 351 1125 q 385 1258 351 1225 q 471 1290 418 1290 z "},"Ṇ":{"ha":928,"x_min":101,"x_max":826,"o":"m 826 0 l 564 0 l 258 763 q 278 577 271 664 q 286 374 286 490 l 286 0 l 101 0 l 101 961 l 358 961 l 669 197 q 642 539 642 383 l 642 961 l 826 961 l 826 0 m 465 -319 q 378 -287 413 -319 q 344 -204 344 -254 q 378 -122 344 -154 q 465 -89 413 -89 q 551 -122 518 -89 q 585 -204 585 -154 q 551 -287 585 -254 q 465 -319 518 -319 z "},"Ǹ":{"ha":928,"x_min":101,"x_max":826,"o":"m 826 0 l 564 0 l 258 763 q 278 577 271 664 q 286 374 286 490 l 286 0 l 101 0 l 101 961 l 358 961 l 669 197 q 642 539 642 383 l 642 961 l 826 961 l 826 0 m 353 1313 l 653 1146 l 603 1044 l 278 1163 l 353 1313 z "},"Ŋ":{"ha":928,"x_min":101,"x_max":826,"o":"m 826 961 l 826 -53 q 756 -241 826 -176 q 564 -306 686 -306 q 376 -247 453 -306 l 446 -125 q 494 -147 474 -140 q 543 -154 514 -154 q 621 -65 621 -154 l 621 0 l 564 0 l 258 763 q 278 577 271 664 q 286 374 286 490 l 286 0 l 101 0 l 101 961 l 358 961 l 669 197 q 642 539 642 383 l 642 961 l 826 961 z "},"Ɲ":{"ha":928,"x_min":-147,"x_max":826,"o":"m 826 961 l 826 0 l 564 0 l 258 763 q 278 577 271 664 q 286 374 286 490 l 286 -54 q 220 -241 286 -176 q 40 -306 154 -306 q -147 -247 -68 -306 l -78 -129 q -29 -151 -50 -144 q 21 -158 -8 -158 q 101 -69 101 -158 l 101 961 l 358 961 l 669 197 q 642 539 642 383 l 642 961 l 826 961 z "},"ǋ":{"ha":1318,"x_min":101,"x_max":1243,"o":"m 826 0 l 564 0 l 258 763 q 278 577 271 664 q 286 374 286 490 l 286 0 l 101 0 l 101 961 l 358 961 l 669 197 q 642 539 642 383 l 642 961 l 826 961 l 826 0 m 1221 74 q 1187 -109 1221 -37 q 1093 -224 1153 -181 q 940 -304 1033 -268 l 875 -161 q 960 -112 929 -136 q 1007 -47 990 -87 q 1024 61 1024 -6 l 1024 736 l 1221 736 l 1221 74 m 1122 1115 q 1209 1083 1175 1115 q 1243 1000 1243 1050 q 1209 917 1243 950 q 1122 885 1175 885 q 1036 917 1069 885 q 1003 1000 1003 950 q 1036 1083 1003 1050 q 1122 1115 1069 1115 z "},"Ƞ":{"ha":914,"x_min":101,"x_max":821,"o":"m 569 983 q 757 912 693 983 q 821 724 821 840 l 821 -289 l 617 -289 l 617 689 q 590 794 617 760 q 503 829 563 829 q 401 804 444 829 q 306 725 357 779 l 306 0 l 101 0 l 101 961 l 281 961 l 296 863 q 420 953 356 924 q 569 983 485 983 z "},"Ñ":{"ha":928,"x_min":101,"x_max":826,"o":"m 826 0 l 564 0 l 258 763 q 278 577 271 664 q 286 374 286 490 l 286 0 l 101 0 l 101 961 l 358 961 l 669 197 q 642 539 642 383 l 642 961 l 826 961 l 826 0 m 553 1064 q 502 1074 524 1064 q 451 1101 481 1083 q 420 1122 433 1115 q 393 1128 407 1128 q 354 1113 371 1128 q 319 1065 338 1097 l 218 1115 q 290 1226 246 1183 q 390 1269 335 1269 q 444 1259 422 1269 q 494 1231 467 1249 q 525 1212 513 1218 q 551 1206 538 1206 q 590 1220 574 1206 q 625 1267 606 1235 l 726 1217 q 654 1105 699 1146 q 553 1064 610 1064 z "},"O":{"ha":960,"x_min":53,"x_max":907,"o":"m 481 983 q 708 924 613 983 q 856 753 804 865 q 907 481 907 640 q 856 210 907 324 q 708 38 804 97 q 481 -22 613 -22 q 252 37 349 -22 q 104 209 156 96 q 53 481 53 322 q 105 749 53 636 q 253 923 157 863 q 481 983 350 983 m 481 831 q 322 747 375 831 q 268 481 268 664 q 322 214 268 297 q 481 131 376 131 q 639 213 586 131 q 692 481 692 296 q 639 748 692 665 q 481 831 586 831 z "},"Ȣ":{"ha":904,"x_min":53,"x_max":851,"o":"m 668 553 q 804 455 757 519 q 851 300 851 390 q 803 140 851 214 q 664 22 754 67 q 453 -22 574 -22 q 241 21 332 -22 q 101 137 150 64 q 53 299 53 210 q 100 450 53 386 q 235 550 147 514 q 111 764 111 617 l 111 961 l 317 961 l 317 758 q 348 651 317 688 q 453 614 379 614 q 590 758 590 614 l 590 961 l 794 961 l 794 764 q 762 641 794 694 q 668 553 729 588 m 453 131 q 590 175 544 131 q 636 301 636 219 q 590 423 636 379 q 453 467 543 467 q 315 423 363 467 q 268 300 268 379 q 315 175 268 219 q 453 131 363 131 z "},"Ó":{"ha":960,"x_min":53,"x_max":907,"o":"m 481 983 q 708 924 613 983 q 856 753 804 865 q 907 481 907 640 q 856 210 907 324 q 708 38 804 97 q 481 -22 613 -22 q 252 37 349 -22 q 104 209 156 96 q 53 481 53 322 q 105 749 53 636 q 253 923 157 863 q 481 983 350 983 m 481 831 q 322 747 375 831 q 268 481 268 664 q 322 214 268 297 q 481 131 376 131 q 639 213 586 131 q 692 481 692 296 q 639 748 692 665 q 481 831 586 831 m 593 1313 l 668 1163 l 343 1044 l 293 1146 l 593 1313 z "},"Ŏ":{"ha":960,"x_min":53,"x_max":907,"o":"m 481 983 q 708 924 613 983 q 856 753 804 865 q 907 481 907 640 q 856 210 907 324 q 708 38 804 97 q 481 -22 613 -22 q 252 37 349 -22 q 104 209 156 96 q 53 481 53 322 q 105 749 53 636 q 253 923 157 863 q 481 983 350 983 m 481 831 q 322 747 375 831 q 268 481 268 664 q 322 214 268 297 q 481 131 376 131 q 639 213 586 131 q 692 481 692 296 q 639 748 692 665 q 481 831 586 831 m 479 1044 q 318 1106 381 1044 q 247 1257 256 1167 l 360 1278 q 403 1210 374 1235 q 479 1185 432 1185 q 556 1210 525 1185 q 600 1278 586 1235 l 713 1257 q 641 1106 704 1167 q 479 1044 578 1044 z "},"Ǒ":{"ha":960,"x_min":53,"x_max":907,"o":"m 481 983 q 708 924 613 983 q 856 753 804 865 q 907 481 907 640 q 856 210 907 324 q 708 38 804 97 q 481 -22 613 -22 q 252 37 349 -22 q 104 209 156 96 q 53 481 53 322 q 105 749 53 636 q 253 923 157 863 q 481 983 350 983 m 481 831 q 322 747 375 831 q 268 481 268 664 q 322 214 268 297 q 481 131 376 131 q 639 213 586 131 q 692 481 692 296 q 639 748 692 665 q 481 831 586 831 m 664 1299 l 736 1215 l 542 1043 l 419 1043 l 225 1215 l 299 1299 l 481 1183 l 664 1299 z "},"Ɵ":{"ha":960,"x_min":53,"x_max":907,"o":"m 481 983 q 708 924 613 983 q 856 753 804 865 q 907 481 907 640 q 856 210 907 324 q 708 38 804 97 q 481 -22 613 -22 q 252 37 349 -22 q 104 209 156 96 q 53 481 53 322 q 105 749 53 636 q 253 923 157 863 q 481 983 350 983 m 481 831 q 329 763 385 831 q 264 547 274 694 l 696 547 q 632 763 686 694 q 481 831 578 831 m 481 131 q 634 201 579 131 q 697 428 689 272 l 263 428 q 481 131 278 131 z "},"Ô":{"ha":960,"x_min":53,"x_max":907,"o":"m 481 983 q 708 924 613 983 q 856 753 804 865 q 907 481 907 640 q 856 210 907 324 q 708 38 804 97 q 481 -22 613 -22 q 252 37 349 -22 q 104 209 156 96 q 53 481 53 322 q 105 749 53 636 q 253 923 157 863 q 481 983 350 983 m 481 831 q 322 747 375 831 q 268 481 268 664 q 322 214 268 297 q 481 131 376 131 q 639 213 586 131 q 692 481 692 296 q 639 748 692 665 q 481 831 586 831 m 299 1050 l 225 1133 l 419 1306 l 542 1306 l 736 1133 l 664 1050 l 481 1165 l 299 1050 z "},"Ố":{"ha":960,"x_min":53,"x_max":907,"o":"m 481 983 q 708 924 613 983 q 856 753 804 865 q 907 481 907 640 q 856 210 907 324 q 708 38 804 97 q 481 -22 613 -22 q 252 37 349 -22 q 104 209 156 96 q 53 481 53 322 q 105 749 53 636 q 253 923 157 863 q 481 983 350 983 m 481 831 q 322 747 375 831 q 268 481 268 664 q 322 214 268 297 q 481 131 376 131 q 639 213 586 131 q 692 481 692 296 q 639 748 692 665 q 481 831 586 831 m 297 1000 l 224 1083 l 418 1256 l 540 1256 l 735 1083 l 663 1000 l 479 1115 l 297 1000 m 797 1493 l 907 1388 l 696 1197 l 619 1265 l 797 1493 z "},"Ộ":{"ha":960,"x_min":53,"x_max":907,"o":"m 481 983 q 708 924 613 983 q 856 753 804 865 q 907 481 907 640 q 856 210 907 324 q 708 38 804 97 q 481 -22 613 -22 q 252 37 349 -22 q 104 209 156 96 q 53 481 53 322 q 105 749 53 636 q 253 923 157 863 q 481 983 350 983 m 481 831 q 322 747 375 831 q 268 481 268 664 q 322 214 268 297 q 481 131 376 131 q 639 213 586 131 q 692 481 692 296 q 639 748 692 665 q 481 831 586 831 m 299 1050 l 225 1133 l 419 1306 l 542 1306 l 736 1133 l 664 1050 l 481 1165 l 299 1050 m 481 -319 q 394 -287 428 -319 q 360 -204 360 -254 q 394 -122 360 -154 q 481 -89 428 -89 q 567 -122 533 -89 q 600 -204 600 -154 q 567 -287 600 -254 q 481 -319 533 -319 z "},"Ồ":{"ha":960,"x_min":53,"x_max":907,"o":"m 481 983 q 708 924 613 983 q 856 753 804 865 q 907 481 907 640 q 856 210 907 324 q 708 38 804 97 q 481 -22 613 -22 q 252 37 349 -22 q 104 209 156 96 q 53 481 53 322 q 105 749 53 636 q 253 923 157 863 q 481 983 350 983 m 481 831 q 322 747 375 831 q 268 481 268 664 q 322 214 268 297 q 481 131 376 131 q 639 213 586 131 q 692 481 692 296 q 639 748 692 665 q 481 831 586 831 m 297 1000 l 224 1083 l 418 1256 l 540 1256 l 735 1083 l 663 1000 l 479 1115 l 297 1000 m 163 1493 l 342 1265 l 265 1197 l 54 1388 l 163 1493 z "},"Ổ":{"ha":960,"x_min":53,"x_max":907,"o":"m 481 983 q 708 924 613 983 q 856 753 804 865 q 907 481 907 640 q 856 210 907 324 q 708 38 804 97 q 481 -22 613 -22 q 252 37 349 -22 q 104 209 156 96 q 53 481 53 322 q 105 749 53 636 q 253 923 157 863 q 481 983 350 983 m 481 831 q 322 747 375 831 q 268 481 268 664 q 322 214 268 297 q 481 131 376 131 q 639 213 586 131 q 692 481 692 296 q 639 748 692 665 q 481 831 586 831 m 297 1000 l 224 1083 l 418 1256 l 540 1256 l 735 1083 l 663 1000 l 479 1115 l 297 1000 m 650 1299 q 726 1313 703 1301 q 749 1353 749 1325 q 734 1386 749 1375 q 693 1397 719 1397 q 610 1379 656 1397 l 575 1465 q 721 1501 636 1501 q 844 1463 800 1501 q 889 1363 889 1425 q 772 1236 889 1258 l 772 1175 l 650 1175 l 650 1299 z "},"Ỗ":{"ha":960,"x_min":53,"x_max":907,"o":"m 481 983 q 708 924 613 983 q 856 753 804 865 q 907 481 907 640 q 856 210 907 324 q 708 38 804 97 q 481 -22 613 -22 q 252 37 349 -22 q 104 209 156 96 q 53 481 53 322 q 105 749 53 636 q 253 923 157 863 q 481 983 350 983 m 481 831 q 322 747 375 831 q 268 481 268 664 q 322 214 268 297 q 481 131 376 131 q 639 213 586 131 q 692 481 692 296 q 639 748 692 665 q 481 831 586 831 m 296 1000 l 222 1083 l 417 1256 l 539 1256 l 733 1083 l 661 1000 l 478 1115 l 296 1000 m 558 1294 q 507 1303 529 1294 q 457 1331 485 1313 q 399 1356 422 1356 q 360 1341 376 1356 q 325 1296 343 1326 l 224 1343 q 296 1449 251 1407 q 396 1490 340 1490 q 451 1481 428 1490 q 500 1453 474 1471 q 531 1435 519 1440 q 557 1429 543 1429 q 596 1443 579 1429 q 631 1488 613 1457 l 732 1440 q 660 1333 704 1372 q 558 1294 615 1294 z "},"Ȍ":{"ha":960,"x_min":53,"x_max":907,"o":"m 481 983 q 708 924 613 983 q 856 753 804 865 q 907 481 907 640 q 856 210 907 324 q 708 38 804 97 q 481 -22 613 -22 q 252 37 349 -22 q 104 209 156 96 q 53 481 53 322 q 105 749 53 636 q 253 923 157 863 q 481 983 350 983 m 481 831 q 322 747 375 831 q 268 481 268 664 q 322 214 268 297 q 481 131 376 131 q 639 213 586 131 q 692 481 692 296 q 639 748 692 665 q 481 831 586 831 m 301 1360 l 433 1094 l 328 1046 l 164 1290 l 301 1360 m 538 1360 l 657 1097 l 550 1053 l 399 1293 l 538 1360 z "},"Ö":{"ha":960,"x_min":53,"x_max":907,"o":"m 481 983 q 708 924 613 983 q 856 753 804 865 q 907 481 907 640 q 856 210 907 324 q 708 38 804 97 q 481 -22 613 -22 q 252 37 349 -22 q 104 209 156 96 q 53 481 53 322 q 105 749 53 636 q 253 923 157 863 q 481 983 350 983 m 481 831 q 322 747 375 831 q 268 481 268 664 q 322 214 268 297 q 481 131 376 131 q 639 213 586 131 q 692 481 692 296 q 639 748 692 665 q 481 831 586 831 m 321 1275 q 395 1245 365 1275 q 425 1172 425 1215 q 395 1099 425 1129 q 321 1069 365 1069 q 247 1099 278 1069 q 217 1172 217 1129 q 247 1245 217 1215 q 321 1275 278 1275 m 635 1275 q 710 1245 679 1275 q 740 1172 740 1215 q 710 1099 740 1129 q 635 1069 679 1069 q 562 1099 592 1069 q 532 1172 532 1129 q 562 1245 532 1215 q 635 1275 592 1275 z "},"Ȫ":{"ha":960,"x_min":53,"x_max":907,"o":"m 481 983 q 708 924 613 983 q 856 753 804 865 q 907 481 907 640 q 856 210 907 324 q 708 38 804 97 q 481 -22 613 -22 q 252 37 349 -22 q 104 209 156 96 q 53 481 53 322 q 105 749 53 636 q 253 923 157 863 q 481 983 350 983 m 481 831 q 322 747 375 831 q 268 481 268 664 q 322 214 268 297 q 481 131 376 131 q 639 213 586 131 q 692 481 692 296 q 639 748 692 665 q 481 831 586 831 m 322 1240 q 397 1210 367 1240 q 426 1138 426 1181 q 397 1065 426 1094 q 322 1035 367 1035 q 249 1065 279 1035 q 218 1138 218 1094 q 249 1210 218 1181 q 322 1240 279 1240 m 636 1240 q 711 1210 681 1240 q 742 1138 742 1181 q 711 1065 742 1094 q 636 1035 681 1035 q 563 1065 593 1035 q 533 1138 533 1094 q 563 1210 533 1181 q 636 1240 593 1240 m 692 1293 l 278 1293 l 278 1432 l 692 1432 l 692 1293 z "},"Ȯ":{"ha":960,"x_min":53,"x_max":907,"o":"m 481 983 q 708 924 613 983 q 856 753 804 865 q 907 481 907 640 q 856 210 907 324 q 708 38 804 97 q 481 -22 613 -22 q 252 37 349 -22 q 104 209 156 96 q 53 481 53 322 q 105 749 53 636 q 253 923 157 863 q 481 983 350 983 m 481 831 q 322 747 375 831 q 268 481 268 664 q 322 214 268 297 q 481 131 376 131 q 639 213 586 131 q 692 481 692 296 q 639 748 692 665 q 481 831 586 831 m 479 1290 q 566 1258 532 1290 q 600 1175 600 1225 q 566 1092 600 1125 q 479 1060 532 1060 q 393 1092 426 1060 q 360 1175 360 1125 q 393 1258 360 1225 q 479 1290 426 1290 z "},"Ȱ":{"ha":960,"x_min":53,"x_max":907,"o":"m 481 983 q 708 924 613 983 q 856 753 804 865 q 907 481 907 640 q 856 210 907 324 q 708 38 804 97 q 481 -22 613 -22 q 252 37 349 -22 q 104 209 156 96 q 53 481 53 322 q 105 749 53 636 q 253 923 157 863 q 481 983 350 983 m 481 831 q 322 747 375 831 q 268 481 268 664 q 322 214 268 297 q 481 131 376 131 q 639 213 586 131 q 692 481 692 296 q 639 748 692 665 q 481 831 586 831 m 479 1254 q 566 1222 532 1254 q 600 1139 600 1189 q 566 1056 600 1089 q 479 1024 532 1024 q 393 1056 426 1024 q 360 1139 360 1089 q 393 1222 360 1189 q 479 1254 426 1254 m 689 1294 l 275 1294 l 275 1433 l 689 1433 l 689 1294 z "},"Ọ":{"ha":960,"x_min":53,"x_max":907,"o":"m 481 983 q 708 924 613 983 q 856 753 804 865 q 907 481 907 640 q 856 210 907 324 q 708 38 804 97 q 481 -22 613 -22 q 252 37 349 -22 q 104 209 156 96 q 53 481 53 322 q 105 749 53 636 q 253 923 157 863 q 481 983 350 983 m 481 831 q 322 747 375 831 q 268 481 268 664 q 322 214 268 297 q 481 131 376 131 q 639 213 586 131 q 692 481 692 296 q 639 748 692 665 q 481 831 586 831 m 481 -319 q 394 -287 428 -319 q 360 -204 360 -254 q 394 -122 360 -154 q 481 -89 428 -89 q 567 -122 533 -89 q 600 -204 600 -154 q 567 -287 600 -254 q 481 -319 533 -319 z "},"Ò":{"ha":960,"x_min":53,"x_max":907,"o":"m 481 983 q 708 924 613 983 q 856 753 804 865 q 907 481 907 640 q 856 210 907 324 q 708 38 804 97 q 481 -22 613 -22 q 252 37 349 -22 q 104 209 156 96 q 53 481 53 322 q 105 749 53 636 q 253 923 157 863 q 481 983 350 983 m 481 831 q 322 747 375 831 q 268 481 268 664 q 322 214 268 297 q 481 131 376 131 q 639 213 586 131 q 692 481 692 296 q 639 748 692 665 q 481 831 586 831 m 361 1313 l 661 1146 l 611 1044 l 286 1163 l 361 1313 z "},"Ỏ":{"ha":960,"x_min":53,"x_max":907,"o":"m 481 983 q 708 924 613 983 q 856 753 804 865 q 907 481 907 640 q 856 210 907 324 q 708 38 804 97 q 481 -22 613 -22 q 252 37 349 -22 q 104 209 156 96 q 53 481 53 322 q 105 749 53 636 q 253 923 157 863 q 481 983 350 983 m 481 831 q 322 747 375 831 q 268 481 268 664 q 322 214 268 297 q 481 131 376 131 q 639 213 586 131 q 692 481 692 296 q 639 748 692 665 q 481 831 586 831 m 418 1183 q 494 1198 471 1186 q 517 1238 517 1210 q 502 1271 517 1260 q 461 1282 488 1282 q 378 1264 424 1282 l 343 1350 q 489 1386 404 1386 q 613 1348 568 1386 q 657 1247 657 1310 q 540 1121 657 1143 l 540 1060 l 418 1060 l 418 1183 z "},"Ơ":{"ha":989,"x_min":53,"x_max":974,"o":"m 974 953 q 836 790 974 818 q 907 481 907 665 q 856 210 907 324 q 708 38 804 97 q 481 -22 613 -22 q 252 37 349 -22 q 104 209 156 96 q 53 481 53 322 q 105 749 53 636 q 253 923 157 863 q 481 983 350 983 q 765 881 658 983 q 817 905 801 886 q 833 957 833 924 q 815 1053 833 1008 l 947 1074 q 974 953 974 1024 m 481 131 q 639 213 586 131 q 692 481 692 296 q 639 748 692 665 q 481 831 586 831 q 322 747 375 831 q 268 481 268 664 q 322 214 268 297 q 481 131 376 131 z "},"Ớ":{"ha":989,"x_min":53,"x_max":974,"o":"m 668 1163 l 343 1044 l 293 1146 l 593 1313 l 668 1163 m 974 953 q 836 790 974 818 q 907 481 907 665 q 856 210 907 324 q 708 38 804 97 q 481 -22 613 -22 q 252 37 349 -22 q 104 209 156 96 q 53 481 53 322 q 105 749 53 636 q 253 923 157 863 q 481 983 350 983 q 765 881 658 983 q 817 905 801 886 q 833 957 833 924 q 815 1053 833 1008 l 947 1074 q 974 953 974 1024 m 481 131 q 639 213 586 131 q 692 481 692 296 q 639 748 692 665 q 481 831 586 831 q 322 747 375 831 q 268 481 268 664 q 322 214 268 297 q 481 131 376 131 z "},"Ợ":{"ha":989,"x_min":53,"x_max":974,"o":"m 974 953 q 836 790 974 818 q 907 481 907 665 q 856 210 907 324 q 708 38 804 97 q 481 -22 613 -22 q 252 37 349 -22 q 104 209 156 96 q 53 481 53 322 q 105 749 53 636 q 253 923 157 863 q 481 983 350 983 q 765 881 658 983 q 817 905 801 886 q 833 957 833 924 q 815 1053 833 1008 l 947 1074 q 974 953 974 1024 m 481 131 q 639 213 586 131 q 692 481 692 296 q 639 748 692 665 q 481 831 586 831 q 322 747 375 831 q 268 481 268 664 q 322 214 268 297 q 481 131 376 131 m 481 -89 q 567 -122 533 -89 q 600 -204 600 -154 q 567 -287 600 -254 q 481 -319 533 -319 q 394 -287 428 -319 q 360 -204 360 -254 q 394 -122 360 -154 q 481 -89 428 -89 z "},"Ờ":{"ha":989,"x_min":53,"x_max":974,"o":"m 661 1146 l 611 1044 l 286 1163 l 361 1313 l 661 1146 m 974 953 q 836 790 974 818 q 907 481 907 665 q 856 210 907 324 q 708 38 804 97 q 481 -22 613 -22 q 252 37 349 -22 q 104 209 156 96 q 53 481 53 322 q 105 749 53 636 q 253 923 157 863 q 481 983 350 983 q 765 881 658 983 q 817 905 801 886 q 833 957 833 924 q 815 1053 833 1008 l 947 1074 q 974 953 974 1024 m 481 131 q 639 213 586 131 q 692 481 692 296 q 639 748 692 665 q 481 831 586 831 q 322 747 375 831 q 268 481 268 664 q 322 214 268 297 q 481 131 376 131 z "},"Ở":{"ha":989,"x_min":53,"x_max":974,"o":"m 461 1282 q 378 1264 422 1282 l 343 1350 q 489 1386 404 1386 q 613 1348 568 1386 q 657 1247 657 1310 q 540 1121 657 1143 l 540 1060 l 418 1060 l 418 1183 q 494 1198 471 1186 q 517 1238 517 1210 q 502 1271 517 1260 q 461 1282 488 1282 m 974 953 q 836 790 974 818 q 907 481 907 665 q 856 210 907 324 q 708 38 804 97 q 481 -22 613 -22 q 252 37 349 -22 q 104 209 156 96 q 53 481 53 322 q 105 749 53 636 q 253 923 157 863 q 481 983 350 983 q 765 881 658 983 q 817 905 801 886 q 833 957 833 924 q 815 1053 833 1008 l 947 1074 q 974 953 974 1024 m 481 131 q 639 213 586 131 q 692 481 692 296 q 639 748 692 665 q 481 831 586 831 q 322 747 375 831 q 268 481 268 664 q 322 214 268 297 q 481 131 376 131 z "},"Ỡ":{"ha":989,"x_min":53,"x_max":974,"o":"m 401 1128 q 363 1113 379 1128 q 328 1065 346 1097 l 226 1115 q 299 1226 254 1183 q 399 1269 343 1269 q 453 1259 431 1269 q 503 1231 475 1249 q 533 1212 521 1218 q 560 1206 546 1206 q 598 1220 582 1206 q 633 1267 614 1235 l 735 1217 q 663 1105 707 1146 q 561 1064 618 1064 q 510 1074 532 1064 q 460 1101 489 1083 q 428 1122 442 1115 q 401 1128 415 1128 m 974 953 q 836 790 974 818 q 907 481 907 665 q 856 210 907 324 q 708 38 804 97 q 481 -22 613 -22 q 252 37 349 -22 q 104 209 156 96 q 53 481 53 322 q 105 749 53 636 q 253 923 157 863 q 481 983 350 983 q 765 881 658 983 q 817 905 801 886 q 833 957 833 924 q 815 1053 833 1008 l 947 1074 q 974 953 974 1024 m 481 131 q 639 213 586 131 q 692 481 692 296 q 639 748 692 665 q 481 831 586 831 q 322 747 375 831 q 268 481 268 664 q 322 214 268 297 q 481 131 376 131 z "},"Ő":{"ha":960,"x_min":53,"x_max":907,"o":"m 481 983 q 708 924 613 983 q 856 753 804 865 q 907 481 907 640 q 856 210 907 324 q 708 38 804 97 q 481 -22 613 -22 q 252 37 349 -22 q 104 209 156 96 q 53 481 53 322 q 105 749 53 636 q 253 923 157 863 q 481 983 350 983 m 481 831 q 322 747 375 831 q 268 481 268 664 q 322 214 268 297 q 481 131 376 131 q 639 213 586 131 q 692 481 692 296 q 639 748 692 665 q 481 831 586 831 m 421 1360 l 561 1293 l 410 1053 l 303 1097 l 421 1360 m 657 1360 l 796 1290 l 632 1046 l 526 1094 l 657 1360 z "},"Ƣ":{"ha":1322,"x_min":53,"x_max":1221,"o":"m 951 985 q 1150 919 1079 985 q 1221 729 1221 854 l 1221 -289 l 1015 -289 l 1015 736 q 928 839 1015 839 q 874 833 899 839 q 819 813 849 826 q 907 481 907 682 q 856 210 907 324 q 708 38 804 97 q 481 -22 613 -22 q 252 37 349 -22 q 104 209 156 96 q 53 481 53 322 q 105 749 53 636 q 253 923 157 863 q 481 983 350 983 q 724 911 622 983 q 833 967 778 949 q 951 985 888 985 m 481 131 q 639 213 586 131 q 692 481 692 296 q 639 748 692 665 q 481 831 586 831 q 322 747 375 831 q 268 481 268 664 q 322 214 268 297 q 481 131 376 131 z "},"Ȏ":{"ha":960,"x_min":53,"x_max":907,"o":"m 481 983 q 708 924 613 983 q 856 753 804 865 q 907 481 907 640 q 856 210 907 324 q 708 38 804 97 q 481 -22 613 -22 q 252 37 349 -22 q 104 209 156 96 q 53 481 53 322 q 105 749 53 636 q 253 923 157 863 q 481 983 350 983 m 481 831 q 322 747 375 831 q 268 481 268 664 q 322 214 268 297 q 481 131 376 131 q 639 213 586 131 q 692 481 692 296 q 639 748 692 665 q 481 831 586 831 m 479 1311 q 642 1248 579 1311 q 713 1085 704 1185 l 600 1064 q 479 1172 571 1172 q 360 1064 386 1172 l 247 1085 q 317 1248 256 1185 q 479 1311 379 1311 z "},"Ō":{"ha":960,"x_min":53,"x_max":907,"o":"m 481 983 q 708 924 613 983 q 856 753 804 865 q 907 481 907 640 q 856 210 907 324 q 708 38 804 97 q 481 -22 613 -22 q 252 37 349 -22 q 104 209 156 96 q 53 481 53 322 q 105 749 53 636 q 253 923 157 863 q 481 983 350 983 m 481 831 q 322 747 375 831 q 268 481 268 664 q 322 214 268 297 q 481 131 376 131 q 639 213 586 131 q 692 481 692 296 q 639 748 692 665 q 481 831 586 831 m 688 1089 l 274 1089 l 274 1228 l 688 1228 l 688 1089 z "},"Ṓ":{"ha":960,"x_min":53,"x_max":907,"o":"m 481 983 q 708 924 613 983 q 856 753 804 865 q 907 481 907 640 q 856 210 907 324 q 708 38 804 97 q 481 -22 613 -22 q 252 37 349 -22 q 104 209 156 96 q 53 481 53 322 q 105 749 53 636 q 253 923 157 863 q 481 983 350 983 m 481 831 q 322 747 375 831 q 268 481 268 664 q 322 214 268 297 q 481 131 376 131 q 639 213 586 131 q 692 481 692 296 q 639 748 692 665 q 481 831 586 831 m 688 1056 l 274 1056 l 274 1194 l 688 1194 l 688 1056 m 594 1510 l 669 1360 l 344 1242 l 294 1343 l 594 1510 z "},"Ṑ":{"ha":960,"x_min":53,"x_max":907,"o":"m 363 1525 l 663 1358 l 613 1257 l 288 1375 l 363 1525 m 688 1056 l 274 1056 l 274 1194 l 688 1194 l 688 1056 m 481 983 q 708 924 613 983 q 856 753 804 865 q 907 481 907 640 q 856 210 907 324 q 708 38 804 97 q 481 -22 613 -22 q 252 37 349 -22 q 104 209 156 96 q 53 481 53 322 q 105 749 53 636 q 253 923 157 863 q 481 983 350 983 m 481 831 q 322 747 375 831 q 268 481 268 664 q 322 214 268 297 q 481 131 376 131 q 639 213 586 131 q 692 481 692 296 q 639 748 692 665 q 481 831 586 831 z "},"Ꞷ":{"ha":1215,"x_min":71,"x_max":1144,"o":"m 1036 961 q 1115 724 1085 850 q 1144 418 1144 597 q 1065 84 1144 190 q 835 -22 986 -22 q 606 149 653 -22 q 525 21 582 64 q 382 -22 468 -22 q 149 83 226 -22 q 71 418 71 188 q 101 724 71 597 q 179 961 131 850 l 369 961 q 299 710 322 831 q 275 429 275 589 q 304 198 275 265 q 403 131 333 131 q 506 264 506 131 l 506 553 l 707 553 l 707 264 q 733 161 707 192 q 813 131 760 131 q 908 196 876 131 q 940 428 940 261 q 915 710 940 589 q 839 961 889 831 l 1036 961 z "},"Ǫ":{"ha":960,"x_min":53,"x_max":907,"o":"m 624 -1 q 460 -146 460 -64 q 535 -210 460 -210 q 619 -200 575 -210 l 606 -326 q 511 -336 554 -336 q 369 -294 424 -336 q 314 -181 314 -251 q 407 -17 314 -82 q 147 136 240 7 q 53 481 53 265 q 105 749 53 636 q 253 923 157 863 q 481 983 350 983 q 708 924 613 983 q 856 753 804 865 q 907 481 907 640 q 833 168 907 293 q 624 -1 758 43 m 268 481 q 322 214 268 297 q 481 131 376 131 q 639 213 586 131 q 692 481 692 296 q 639 748 692 665 q 481 831 586 831 q 322 747 375 831 q 268 481 268 664 z "},"Ǭ":{"ha":960,"x_min":53,"x_max":907,"o":"m 688 1228 l 688 1089 l 274 1089 l 274 1228 l 688 1228 m 624 -1 q 460 -146 460 -64 q 535 -210 460 -210 q 619 -200 575 -210 l 606 -326 q 511 -336 554 -336 q 369 -294 424 -336 q 314 -181 314 -251 q 407 -17 314 -82 q 147 136 240 7 q 53 481 53 265 q 105 749 53 636 q 253 923 157 863 q 481 983 350 983 q 708 924 613 983 q 856 753 804 865 q 907 481 907 640 q 833 168 907 293 q 624 -1 758 43 m 268 481 q 322 214 268 297 q 481 131 376 131 q 639 213 586 131 q 692 481 692 296 q 639 748 692 665 q 481 831 586 831 q 322 747 375 831 q 268 481 268 664 z "},"Ɔ":{"ha":793,"x_min":15,"x_max":740,"o":"m 335 983 q 549 925 457 983 q 690 754 640 867 q 740 483 740 642 q 687 208 740 322 q 537 36 633 94 q 313 -22 440 -22 q 144 12 219 -22 q 15 99 69 46 l 108 215 q 203 158 160 178 q 303 139 246 139 q 467 222 407 139 q 526 482 526 304 q 472 747 526 664 q 324 829 418 829 q 220 812 268 829 q 125 761 172 794 l 26 879 q 165 958 92 932 q 335 983 239 983 z "},"Ø":{"ha":960,"x_min":53,"x_max":907,"o":"m 704 926 q 855 755 803 868 q 907 481 907 642 q 856 210 907 324 q 708 38 804 97 q 481 -22 613 -22 q 406 -17 438 -22 l 356 -185 l 199 -143 l 254 36 q 105 208 157 94 q 53 481 53 321 q 105 749 53 636 q 253 923 157 863 q 481 983 350 983 q 554 978 522 983 l 606 1147 l 761 1106 l 704 926 m 481 831 q 322 747 375 831 q 268 481 268 664 q 335 186 268 265 l 528 828 q 481 831 497 831 m 481 131 q 639 213 586 131 q 692 481 692 296 q 624 778 692 701 l 431 135 q 481 131 456 131 z "},"Ǿ":{"ha":960,"x_min":53,"x_max":907,"o":"m 704 926 q 855 755 803 868 q 907 481 907 642 q 856 210 907 324 q 708 38 804 97 q 481 -22 613 -22 q 406 -17 438 -22 l 356 -185 l 199 -143 l 254 36 q 105 208 157 94 q 53 481 53 321 q 105 749 53 636 q 253 923 157 863 q 481 983 350 983 q 554 978 522 983 l 606 1147 l 761 1106 l 704 926 m 481 831 q 322 747 375 831 q 268 481 268 664 q 335 186 268 265 l 528 828 q 481 831 497 831 m 481 131 q 639 213 586 131 q 692 481 692 296 q 624 778 692 701 l 431 135 q 481 131 456 131 m 589 1353 l 664 1203 l 339 1085 l 289 1186 l 589 1353 z "},"Õ":{"ha":960,"x_min":53,"x_max":907,"o":"m 481 983 q 708 924 613 983 q 856 753 804 865 q 907 481 907 640 q 856 210 907 324 q 708 38 804 97 q 481 -22 613 -22 q 252 37 349 -22 q 104 209 156 96 q 53 481 53 322 q 105 749 53 636 q 253 923 157 863 q 481 983 350 983 m 481 831 q 322 747 375 831 q 268 481 268 664 q 322 214 268 297 q 481 131 376 131 q 639 213 586 131 q 692 481 692 296 q 639 748 692 665 q 481 831 586 831 m 561 1064 q 510 1074 532 1064 q 460 1101 489 1083 q 428 1122 442 1115 q 401 1128 415 1128 q 363 1113 379 1128 q 328 1065 346 1097 l 226 1115 q 299 1226 254 1183 q 399 1269 343 1269 q 453 1259 431 1269 q 503 1231 475 1249 q 533 1212 521 1218 q 560 1206 546 1206 q 598 1220 582 1206 q 633 1267 614 1235 l 735 1217 q 663 1105 707 1146 q 561 1064 618 1064 z "},"Ṍ":{"ha":960,"x_min":53,"x_max":907,"o":"m 481 983 q 708 924 613 983 q 856 753 804 865 q 907 481 907 640 q 856 210 907 324 q 708 38 804 97 q 481 -22 613 -22 q 252 37 349 -22 q 104 209 156 96 q 53 481 53 322 q 105 749 53 636 q 253 923 157 863 q 481 983 350 983 m 481 831 q 322 747 375 831 q 268 481 268 664 q 322 214 268 297 q 481 131 376 131 q 639 213 586 131 q 692 481 692 296 q 639 748 692 665 q 481 831 586 831 m 561 1050 q 510 1060 532 1050 q 460 1088 489 1069 q 428 1108 442 1101 q 401 1114 415 1114 q 363 1099 379 1114 q 328 1051 346 1083 l 226 1101 q 299 1213 254 1169 q 399 1256 343 1256 q 453 1245 431 1256 q 503 1217 475 1235 q 533 1198 521 1204 q 560 1192 546 1192 q 598 1206 582 1192 q 633 1253 614 1221 l 735 1203 q 663 1091 707 1132 q 561 1050 618 1050 m 593 1546 l 668 1396 l 343 1278 l 293 1379 l 593 1546 z "},"Ȭ":{"ha":960,"x_min":53,"x_max":907,"o":"m 481 983 q 708 924 613 983 q 856 753 804 865 q 907 481 907 640 q 856 210 907 324 q 708 38 804 97 q 481 -22 613 -22 q 252 37 349 -22 q 104 209 156 96 q 53 481 53 322 q 105 749 53 636 q 253 923 157 863 q 481 983 350 983 m 481 831 q 322 747 375 831 q 268 481 268 664 q 322 214 268 297 q 481 131 376 131 q 639 213 586 131 q 692 481 692 296 q 639 748 692 665 q 481 831 586 831 m 561 1050 q 510 1060 532 1050 q 460 1088 489 1069 q 428 1108 442 1101 q 401 1114 415 1114 q 363 1099 379 1114 q 328 1051 346 1083 l 226 1101 q 299 1213 254 1169 q 399 1256 343 1256 q 453 1245 431 1256 q 503 1217 475 1235 q 533 1198 521 1204 q 560 1192 546 1192 q 598 1206 582 1192 q 633 1253 614 1221 l 735 1203 q 663 1091 707 1132 q 561 1050 618 1050 m 688 1299 l 274 1299 l 274 1438 l 688 1438 l 688 1299 z "},"Œ":{"ha":1254,"x_min":53,"x_max":1199,"o":"m 1199 0 l 583 0 q 458 -22 529 -22 q 246 37 338 -22 q 103 209 154 96 q 53 481 53 322 q 103 749 53 635 q 246 923 154 863 q 458 983 338 983 q 589 961 532 983 l 1196 961 l 1174 813 l 776 813 q 875 563 858 713 l 1131 563 l 1131 415 l 876 415 q 772 150 858 253 l 1199 150 l 1199 0 m 268 481 q 320 215 268 300 q 467 131 372 131 q 613 214 563 131 q 664 481 664 297 q 613 747 664 664 q 467 831 563 831 q 268 481 268 831 z "},"P":{"ha":826,"x_min":101,"x_max":793,"o":"m 399 961 q 690 883 586 961 q 793 651 793 806 q 690 409 793 490 q 415 328 588 328 l 306 328 l 306 0 l 101 0 l 101 961 l 399 961 m 399 478 q 535 518 488 478 q 582 651 582 558 q 396 814 582 814 l 306 814 l 306 478 l 399 478 z "},"Ṕ":{"ha":826,"x_min":101,"x_max":793,"o":"m 399 961 q 690 883 586 961 q 793 651 793 806 q 690 409 793 490 q 415 328 588 328 l 306 328 l 306 0 l 101 0 l 101 961 l 399 961 m 399 478 q 535 518 488 478 q 582 651 582 558 q 396 814 582 814 l 306 814 l 306 478 l 399 478 m 526 1313 l 601 1163 l 276 1044 l 226 1146 l 526 1313 z "},"Ṗ":{"ha":826,"x_min":101,"x_max":793,"o":"m 399 961 q 690 883 586 961 q 793 651 793 806 q 690 409 793 490 q 415 328 588 328 l 306 328 l 306 0 l 101 0 l 101 961 l 399 961 m 399 478 q 535 518 488 478 q 582 651 582 558 q 396 814 582 814 l 306 814 l 306 478 l 399 478 m 413 1290 q 499 1258 465 1290 q 533 1175 533 1225 q 499 1092 533 1125 q 413 1060 465 1060 q 326 1092 360 1060 q 293 1175 293 1125 q 326 1258 293 1225 q 413 1290 360 1290 z "},"Ƥ":{"ha":1003,"x_min":7,"x_max":969,"o":"m 575 961 q 866 883 763 961 q 969 651 969 806 q 867 409 969 490 q 592 328 764 328 l 482 328 l 482 0 l 278 0 l 278 813 l 239 813 q 172 751 172 813 q 178 709 172 729 q 194 658 183 689 l 68 601 q 24 681 40 643 q 7 764 7 719 q 72 908 7 856 q 250 961 138 961 l 575 961 m 575 478 q 711 518 664 478 q 758 651 758 558 q 572 814 758 814 l 482 814 l 482 478 l 575 478 z "},"Þ":{"ha":826,"x_min":101,"x_max":793,"o":"m 399 807 q 690 728 586 807 q 793 494 793 650 q 690 245 793 328 q 415 163 588 163 l 306 163 l 306 0 l 101 0 l 101 961 l 306 961 l 306 807 l 399 807 m 399 313 q 535 353 489 313 q 582 493 582 394 q 396 660 582 660 l 306 660 l 306 313 l 399 313 z "},"Q":{"ha":960,"x_min":53,"x_max":960,"o":"m 682 60 q 835 38 768 60 q 960 -26 901 15 l 836 -189 q 673 -61 754 -104 q 468 -18 592 -18 q 248 40 342 -18 q 103 210 154 99 q 53 481 53 322 q 105 749 53 636 q 253 923 157 863 q 481 983 350 983 q 708 924 613 983 q 856 753 804 865 q 907 481 907 640 q 846 217 907 318 q 682 60 785 117 m 268 481 q 322 214 268 297 q 481 131 376 131 q 639 213 586 131 q 692 481 692 296 q 639 748 692 665 q 481 831 586 831 q 322 747 375 831 q 268 481 268 664 z "},"Ɋ":{"ha":933,"x_min":53,"x_max":1076,"o":"m 1076 -247 q 889 -306 1000 -306 q 697 -241 767 -306 q 626 -53 626 -176 l 626 56 q 431 -22 546 -22 q 235 35 321 -22 q 101 201 150 92 q 53 463 53 310 q 102 742 53 624 q 238 922 151 860 q 436 983 325 983 q 640 903 556 983 l 650 961 l 832 961 l 832 -65 q 910 -154 832 -154 q 959 -147 939 -154 q 1007 -125 979 -140 l 1076 -247 m 469 128 q 626 192 560 128 l 626 769 q 474 831 561 831 q 321 743 374 831 q 268 463 268 656 q 321 206 268 285 q 469 128 374 128 z "},"R":{"ha":853,"x_min":101,"x_max":847,"o":"m 410 376 l 306 376 l 306 0 l 101 0 l 101 961 l 401 961 q 692 890 594 961 q 789 674 789 818 q 742 518 789 579 q 599 414 696 457 l 847 0 l 615 0 l 410 376 m 306 521 l 413 521 q 536 558 494 521 q 578 674 578 594 q 534 781 578 747 q 397 815 490 815 l 306 815 l 306 521 z "},"Ŕ":{"ha":853,"x_min":101,"x_max":847,"o":"m 410 376 l 306 376 l 306 0 l 101 0 l 101 961 l 401 961 q 692 890 594 961 q 789 674 789 818 q 742 518 789 579 q 599 414 696 457 l 847 0 l 615 0 l 410 376 m 306 521 l 413 521 q 536 558 494 521 q 578 674 578 594 q 534 781 578 747 q 397 815 490 815 l 306 815 l 306 521 m 529 1313 l 604 1163 l 279 1044 l 229 1146 l 529 1313 z "},"Ř":{"ha":853,"x_min":101,"x_max":847,"o":"m 410 376 l 306 376 l 306 0 l 101 0 l 101 961 l 401 961 q 692 890 594 961 q 789 674 789 818 q 742 518 789 579 q 599 414 696 457 l 847 0 l 615 0 l 410 376 m 306 521 l 413 521 q 536 558 494 521 q 578 674 578 594 q 534 781 578 747 q 397 815 490 815 l 306 815 l 306 521 m 600 1299 l 672 1215 l 478 1043 l 356 1043 l 161 1215 l 235 1299 l 417 1183 l 600 1299 z "},"Ŗ":{"ha":853,"x_min":101,"x_max":847,"o":"m 410 376 l 306 376 l 306 0 l 101 0 l 101 961 l 401 961 q 692 890 594 961 q 789 674 789 818 q 742 518 789 579 q 599 414 696 457 l 847 0 l 615 0 l 410 376 m 306 521 l 413 521 q 536 558 494 521 q 578 674 578 594 q 534 781 578 747 q 397 815 490 815 l 306 815 l 306 521 m 433 -97 q 506 -126 476 -97 q 535 -197 535 -154 q 527 -245 535 -221 q 499 -312 519 -269 l 435 -442 l 335 -442 l 372 -282 q 331 -197 331 -247 q 360 -126 331 -156 q 433 -97 389 -97 z "},"Ȑ":{"ha":853,"x_min":100,"x_max":847,"o":"m 410 376 l 306 376 l 306 0 l 101 0 l 101 961 l 401 961 q 692 890 594 961 q 789 674 789 818 q 742 518 789 579 q 599 414 696 457 l 847 0 l 615 0 l 410 376 m 306 521 l 413 521 q 536 558 494 521 q 578 674 578 594 q 534 781 578 747 q 397 815 490 815 l 306 815 l 306 521 m 238 1360 l 369 1094 l 264 1046 l 100 1290 l 238 1360 m 474 1360 l 593 1097 l 486 1053 l 335 1293 l 474 1360 z "},"Ṛ":{"ha":853,"x_min":101,"x_max":847,"o":"m 410 376 l 306 376 l 306 0 l 101 0 l 101 961 l 401 961 q 692 890 594 961 q 789 674 789 818 q 742 518 789 579 q 599 414 696 457 l 847 0 l 615 0 l 410 376 m 306 521 l 413 521 q 536 558 494 521 q 578 674 578 594 q 534 781 578 747 q 397 815 490 815 l 306 815 l 306 521 m 431 -319 q 344 -287 378 -319 q 310 -204 310 -254 q 344 -122 310 -154 q 431 -89 378 -89 q 517 -122 483 -89 q 550 -204 550 -154 q 517 -287 550 -254 q 431 -319 483 -319 z "},"Ȓ":{"ha":853,"x_min":101,"x_max":847,"o":"m 410 376 l 306 376 l 306 0 l 101 0 l 101 961 l 401 961 q 692 890 594 961 q 789 674 789 818 q 742 518 789 579 q 599 414 696 457 l 847 0 l 615 0 l 410 376 m 306 521 l 413 521 q 536 558 494 521 q 578 674 578 594 q 534 781 578 747 q 397 815 490 815 l 306 815 l 306 521 m 415 1311 q 578 1248 515 1311 q 649 1085 640 1185 l 536 1064 q 415 1172 507 1172 q 296 1064 322 1172 l 183 1085 q 253 1248 192 1185 q 415 1311 315 1311 z "},"Ɍ":{"ha":871,"x_min":21,"x_max":865,"o":"m 633 0 l 428 376 l 324 376 l 324 0 l 119 0 l 119 376 l 21 376 l 21 521 l 119 521 l 119 961 l 419 961 q 710 890 613 961 q 807 674 807 818 q 760 518 807 579 q 617 414 714 457 l 865 0 l 633 0 m 431 521 q 554 558 513 521 q 596 674 596 594 q 552 781 596 747 q 415 815 508 815 l 324 815 l 324 521 l 431 521 z "},"Ɽ":{"ha":853,"x_min":101,"x_max":847,"o":"m 306 376 l 306 1 l 307 1 l 307 -65 q 385 -154 307 -154 q 434 -147 414 -154 q 482 -125 454 -140 l 551 -247 q 364 -306 475 -306 q 172 -241 242 -306 q 101 -53 101 -176 l 101 961 l 401 961 q 692 890 594 961 q 789 674 789 818 q 742 518 789 579 q 599 414 696 457 l 847 0 l 615 0 l 410 376 l 306 376 m 306 815 l 306 521 l 413 521 q 536 558 494 521 q 578 674 578 594 q 534 781 578 747 q 397 815 490 815 l 306 815 z "},"S":{"ha":785,"x_min":18,"x_max":746,"o":"m 394 983 q 576 953 499 983 q 718 863 653 924 l 621 750 q 518 811 569 792 q 408 831 467 831 q 306 803 344 831 q 268 726 268 776 q 284 669 268 692 q 340 628 300 647 q 461 583 381 608 q 675 470 604 538 q 746 278 746 403 q 701 122 746 189 q 572 16 657 54 q 374 -22 488 -22 q 171 14 260 -22 q 18 113 82 50 l 122 228 q 238 156 178 181 q 368 132 297 132 q 488 167 443 132 q 533 264 533 201 q 517 328 533 303 q 463 375 501 354 q 350 418 424 396 q 126 535 193 467 q 58 713 58 603 q 101 855 58 793 q 221 950 144 917 q 394 983 297 983 z "},"Ś":{"ha":785,"x_min":18,"x_max":746,"o":"m 394 983 q 576 953 499 983 q 718 863 653 924 l 621 750 q 518 811 569 792 q 408 831 467 831 q 306 803 344 831 q 268 726 268 776 q 284 669 268 692 q 340 628 300 647 q 461 583 381 608 q 675 470 604 538 q 746 278 746 403 q 701 122 746 189 q 572 16 657 54 q 374 -22 488 -22 q 171 14 260 -22 q 18 113 82 50 l 122 228 q 238 156 178 181 q 368 132 297 132 q 488 167 443 132 q 533 264 533 201 q 517 328 533 303 q 463 375 501 354 q 350 418 424 396 q 126 535 193 467 q 58 713 58 603 q 101 855 58 793 q 221 950 144 917 q 394 983 297 983 m 517 1313 l 592 1163 l 267 1044 l 217 1146 l 517 1313 z "},"Ꞌ":{"ha":339,"x_min":71,"x_max":268,"o":"m 94 468 l 71 961 l 268 961 l 243 468 l 94 468 z "},"Š":{"ha":785,"x_min":18,"x_max":746,"o":"m 394 983 q 576 953 499 983 q 718 863 653 924 l 621 750 q 518 811 569 792 q 408 831 467 831 q 306 803 344 831 q 268 726 268 776 q 284 669 268 692 q 340 628 300 647 q 461 583 381 608 q 675 470 604 538 q 746 278 746 403 q 701 122 746 189 q 572 16 657 54 q 374 -22 488 -22 q 171 14 260 -22 q 18 113 82 50 l 122 228 q 238 156 178 181 q 368 132 297 132 q 488 167 443 132 q 533 264 533 201 q 517 328 533 303 q 463 375 501 354 q 350 418 424 396 q 126 535 193 467 q 58 713 58 603 q 101 855 58 793 q 221 950 144 917 q 394 983 297 983 m 588 1299 l 660 1215 l 465 1043 l 343 1043 l 149 1215 l 222 1299 l 404 1183 l 588 1299 z "},"Ş":{"ha":785,"x_min":18,"x_max":746,"o":"m 746 278 q 665 78 746 158 q 442 -18 583 -3 l 442 -69 q 547 -112 513 -76 q 582 -203 582 -147 q 527 -315 582 -272 q 383 -357 472 -357 q 299 -346 338 -357 q 235 -317 261 -335 l 281 -222 q 369 -246 324 -246 q 436 -201 436 -246 q 406 -163 436 -175 q 308 -151 376 -151 l 325 -21 q 18 113 139 -6 l 122 228 q 238 156 178 181 q 368 132 297 132 q 488 167 443 132 q 533 264 533 201 q 517 328 533 303 q 463 375 501 354 q 350 418 424 396 q 126 535 193 467 q 58 713 58 603 q 101 855 58 793 q 221 950 144 917 q 394 983 297 983 q 576 953 499 983 q 718 863 653 924 l 621 750 q 518 811 569 792 q 408 831 467 831 q 306 803 344 831 q 268 726 268 776 q 284 669 268 692 q 340 628 300 647 q 461 583 381 608 q 675 470 604 538 q 746 278 746 403 z "},"Ŝ":{"ha":785,"x_min":18,"x_max":746,"o":"m 394 983 q 576 953 499 983 q 718 863 653 924 l 621 750 q 518 811 569 792 q 408 831 467 831 q 306 803 344 831 q 268 726 268 776 q 284 669 268 692 q 340 628 300 647 q 461 583 381 608 q 675 470 604 538 q 746 278 746 403 q 701 122 746 189 q 572 16 657 54 q 374 -22 488 -22 q 171 14 260 -22 q 18 113 82 50 l 122 228 q 238 156 178 181 q 368 132 297 132 q 488 167 443 132 q 533 264 533 201 q 517 328 533 303 q 463 375 501 354 q 350 418 424 396 q 126 535 193 467 q 58 713 58 603 q 101 855 58 793 q 221 950 144 917 q 394 983 297 983 m 222 1050 l 149 1133 l 343 1306 l 465 1306 l 660 1133 l 588 1050 l 404 1165 l 222 1050 z "},"Ș":{"ha":785,"x_min":18,"x_max":746,"o":"m 394 983 q 576 953 499 983 q 718 863 653 924 l 621 750 q 518 811 569 792 q 408 831 467 831 q 306 803 344 831 q 268 726 268 776 q 284 669 268 692 q 340 628 300 647 q 461 583 381 608 q 675 470 604 538 q 746 278 746 403 q 701 122 746 189 q 572 16 657 54 q 374 -22 488 -22 q 171 14 260 -22 q 18 113 82 50 l 122 228 q 238 156 178 181 q 368 132 297 132 q 488 167 443 132 q 533 264 533 201 q 517 328 533 303 q 463 375 501 354 q 350 418 424 396 q 126 535 193 467 q 58 713 58 603 q 101 855 58 793 q 221 950 144 917 q 394 983 297 983 m 390 -97 q 463 -126 433 -97 q 492 -197 492 -154 q 484 -245 492 -221 q 456 -312 476 -269 l 392 -442 l 292 -442 l 329 -282 q 288 -197 288 -247 q 317 -126 288 -156 q 390 -97 346 -97 z "},"Ṡ":{"ha":785,"x_min":18,"x_max":746,"o":"m 394 983 q 576 953 499 983 q 718 863 653 924 l 621 750 q 518 811 569 792 q 408 831 467 831 q 306 803 344 831 q 268 726 268 776 q 284 669 268 692 q 340 628 300 647 q 461 583 381 608 q 675 470 604 538 q 746 278 746 403 q 701 122 746 189 q 572 16 657 54 q 374 -22 488 -22 q 171 14 260 -22 q 18 113 82 50 l 122 228 q 238 156 178 181 q 368 132 297 132 q 488 167 443 132 q 533 264 533 201 q 517 328 533 303 q 463 375 501 354 q 350 418 424 396 q 126 535 193 467 q 58 713 58 603 q 101 855 58 793 q 221 950 144 917 q 394 983 297 983 m 403 1290 q 490 1258 456 1290 q 524 1175 524 1225 q 490 1092 524 1125 q 403 1060 456 1060 q 317 1092 350 1060 q 283 1175 283 1125 q 317 1258 283 1225 q 403 1290 350 1290 z "},"Ṣ":{"ha":785,"x_min":18,"x_max":746,"o":"m 394 983 q 576 953 499 983 q 718 863 653 924 l 621 750 q 518 811 569 792 q 408 831 467 831 q 306 803 344 831 q 268 726 268 776 q 284 669 268 692 q 340 628 300 647 q 461 583 381 608 q 675 470 604 538 q 746 278 746 403 q 701 122 746 189 q 572 16 657 54 q 374 -22 488 -22 q 171 14 260 -22 q 18 113 82 50 l 122 228 q 238 156 178 181 q 368 132 297 132 q 488 167 443 132 q 533 264 533 201 q 517 328 533 303 q 463 375 501 354 q 350 418 424 396 q 126 535 193 467 q 58 713 58 603 q 101 855 58 793 q 221 950 144 917 q 394 983 297 983 m 388 -319 q 301 -287 335 -319 q 267 -204 267 -254 q 301 -122 267 -154 q 388 -89 335 -89 q 474 -122 440 -89 q 507 -204 507 -154 q 474 -287 507 -254 q 388 -319 440 -319 z "},"ẞ":{"ha":925,"x_min":101,"x_max":883,"o":"m 431 983 q 631 958 539 983 q 818 885 722 932 l 818 785 l 604 544 q 810 460 738 526 q 883 272 883 393 q 840 113 883 179 q 722 12 797 46 q 553 -22 647 -22 q 375 14 447 -22 l 436 151 q 529 135 476 135 q 632 169 594 135 q 669 274 669 203 q 610 393 669 353 q 425 440 551 433 l 425 556 l 629 794 q 442 831 535 831 q 340 794 374 831 q 306 679 306 757 l 306 0 l 101 0 l 101 675 q 186 902 101 821 q 431 983 271 983 z "},"Ə":{"ha":892,"x_min":39,"x_max":838,"o":"m 431 983 q 731 858 625 983 q 838 490 838 733 q 730 108 838 239 q 436 -22 622 -22 q 139 106 239 -22 q 39 468 39 235 q 46 556 39 511 l 629 556 q 569 765 624 699 q 414 831 515 831 q 294 809 347 831 q 188 749 240 788 l 93 861 q 247 953 165 922 q 431 983 329 983 m 433 129 q 574 196 525 129 q 629 411 624 263 l 238 411 q 433 129 242 129 z "},"T":{"ha":742,"x_min":14,"x_max":739,"o":"m 739 961 l 717 801 l 474 801 l 474 0 l 269 0 l 269 801 l 14 801 l 14 961 l 739 961 z "},"Ŧ":{"ha":742,"x_min":14,"x_max":739,"o":"m 717 800 l 474 800 l 474 540 l 636 540 l 636 419 l 474 419 l 474 -1 l 269 -1 l 269 419 l 107 419 l 107 540 l 269 540 l 269 800 l 14 800 l 14 960 l 739 960 l 717 800 z "},"Ť":{"ha":742,"x_min":14,"x_max":739,"o":"m 739 961 l 717 801 l 474 801 l 474 0 l 269 0 l 269 801 l 14 801 l 14 961 l 739 961 m 554 1299 l 626 1215 l 432 1043 l 310 1043 l 115 1215 l 189 1299 l 371 1183 l 554 1299 z "},"Ţ":{"ha":742,"x_min":14,"x_max":739,"o":"m 474 -69 q 581 -112 546 -76 q 617 -203 617 -147 q 561 -315 617 -272 q 415 -357 506 -357 q 333 -346 372 -357 q 269 -317 294 -335 l 315 -222 q 400 -246 358 -246 q 471 -200 471 -246 q 440 -163 471 -175 q 343 -151 410 -151 l 363 0 l 269 0 l 269 801 l 14 801 l 14 961 l 739 961 l 717 801 l 474 801 l 474 -69 z "},"Ṱ":{"ha":742,"x_min":14,"x_max":739,"o":"m 739 961 l 717 801 l 474 801 l 474 0 l 269 0 l 269 801 l 14 801 l 14 961 l 739 961 m 188 -354 l 115 -271 l 310 -89 l 432 -89 l 626 -271 l 553 -354 l 371 -231 l 188 -354 z "},"Ț":{"ha":742,"x_min":14,"x_max":739,"o":"m 739 961 l 717 801 l 474 801 l 474 0 l 269 0 l 269 801 l 14 801 l 14 961 l 739 961 m 374 -97 q 446 -126 417 -97 q 475 -197 475 -154 q 467 -245 475 -221 q 439 -312 460 -269 l 375 -442 l 275 -442 l 313 -282 q 271 -197 271 -247 q 300 -126 271 -156 q 374 -97 329 -97 z "},"Ⱦ":{"ha":742,"x_min":14,"x_max":739,"o":"m 717 808 l 592 808 l 463 518 l 463 0 l 279 0 l 279 110 l 185 -101 l 118 -71 l 279 290 l 279 808 l 14 808 l 14 961 l 579 961 l 619 1051 l 688 1021 l 661 961 l 739 961 l 717 808 m 463 700 l 511 808 l 463 808 l 463 700 z "},"Ṫ":{"ha":742,"x_min":14,"x_max":739,"o":"m 739 961 l 717 801 l 474 801 l 474 0 l 269 0 l 269 801 l 14 801 l 14 961 l 739 961 m 369 1290 q 456 1258 422 1290 q 490 1175 490 1225 q 456 1092 490 1125 q 369 1060 422 1060 q 283 1092 317 1060 q 250 1175 250 1125 q 283 1258 250 1225 q 369 1290 317 1290 z "},"Ṭ":{"ha":742,"x_min":14,"x_max":739,"o":"m 739 961 l 717 801 l 474 801 l 474 0 l 269 0 l 269 801 l 14 801 l 14 961 l 739 961 m 371 -319 q 284 -287 318 -319 q 250 -204 250 -254 q 284 -122 250 -154 q 371 -89 318 -89 q 457 -122 424 -89 q 490 -204 490 -154 q 457 -287 490 -254 q 371 -319 424 -319 z "},"Ƭ":{"ha":813,"x_min":7,"x_max":808,"o":"m 788 801 l 544 801 l 544 0 l 339 0 l 339 801 l 240 801 q 190 786 207 801 q 174 744 174 771 q 179 706 174 722 q 197 661 185 690 l 60 600 q 7 761 7 685 q 74 908 7 854 q 258 961 140 961 l 808 961 l 788 801 z "},"Ṯ":{"ha":742,"x_min":14,"x_max":739,"o":"m 739 961 l 717 801 l 474 801 l 474 0 l 269 0 l 269 801 l 14 801 l 14 961 l 739 961 m 578 -260 l 164 -260 l 164 -121 l 578 -121 l 578 -260 z "},"Ƽ":{"ha":743,"x_min":22,"x_max":693,"o":"m 629 818 l 274 818 l 274 589 q 425 625 347 625 q 563 588 503 625 q 658 481 624 551 q 693 314 693 411 q 649 138 693 214 q 522 19 604 61 q 331 -22 440 -22 q 22 114 144 -22 l 133 218 q 324 129 214 129 q 447 176 404 129 q 490 314 490 224 q 350 486 490 486 q 289 478 318 486 q 222 454 260 471 l 85 454 l 85 961 l 653 961 l 629 818 z "},"Ƅ":{"ha":840,"x_min":22,"x_max":815,"o":"m 438 628 q 717 551 618 628 q 815 322 815 475 q 713 80 815 160 q 439 0 611 0 l 124 0 l 124 694 l 22 761 q 154 961 99 842 l 328 961 l 328 628 l 438 628 m 428 151 q 557 190 513 151 q 601 319 601 229 q 557 442 601 403 q 422 482 513 482 l 328 482 l 328 151 l 428 151 z "},"Ƨ":{"ha":772,"x_min":39,"x_max":754,"o":"m 401 983 q 574 951 499 983 q 690 858 649 918 q 731 718 731 797 q 660 542 731 610 q 435 428 590 475 q 291 358 331 396 q 251 263 251 321 q 294 168 251 201 q 408 135 338 135 q 650 226 536 135 l 754 113 q 599 14 689 50 q 394 -22 508 -22 q 207 15 288 -22 q 83 120 126 53 q 39 272 39 188 q 110 460 39 393 q 325 574 182 528 q 444 620 403 599 q 503 667 486 642 q 519 728 519 692 q 484 805 519 779 q 388 831 449 831 q 272 811 324 831 q 168 750 219 792 l 69 863 q 220 953 139 922 q 401 983 301 983 z "},"Ʈ":{"ha":744,"x_min":14,"x_max":739,"o":"m 551 -154 q 601 -147 581 -154 q 649 -125 621 -140 l 718 -247 q 531 -306 642 -306 q 338 -241 408 -306 q 268 -53 268 -176 l 268 1 l 269 1 l 269 801 l 14 801 l 14 961 l 739 961 l 717 801 l 474 801 l 474 -65 q 551 -154 474 -154 z "},"U":{"ha":908,"x_min":88,"x_max":819,"o":"m 819 317 q 778 142 819 218 q 653 22 736 65 q 453 -22 571 -22 q 181 70 275 -22 q 88 317 88 163 l 88 961 l 292 961 l 292 326 q 331 181 292 229 q 453 133 369 133 q 576 181 536 133 q 615 326 615 229 l 615 961 l 819 961 l 819 317 z "},"Ú":{"ha":908,"x_min":88,"x_max":819,"o":"m 819 317 q 778 142 819 218 q 653 22 736 65 q 453 -22 571 -22 q 181 70 275 -22 q 88 317 88 163 l 88 961 l 292 961 l 292 326 q 331 181 292 229 q 453 133 369 133 q 576 181 536 133 q 615 326 615 229 l 615 961 l 819 961 l 819 317 m 567 1313 l 642 1163 l 317 1044 l 267 1146 l 567 1313 z "},"Ʉ":{"ha":949,"x_min":25,"x_max":924,"o":"m 924 697 l 840 697 l 840 317 q 799 142 840 218 q 674 22 757 65 q 474 -22 592 -22 q 202 70 296 -22 q 108 317 108 163 l 108 697 l 25 697 l 25 817 l 108 817 l 108 961 l 313 961 l 313 817 l 636 817 l 636 961 l 840 961 l 840 817 l 924 817 l 924 697 m 636 697 l 313 697 l 313 326 q 351 181 313 229 q 474 133 390 133 q 597 181 557 133 q 636 326 636 229 l 636 697 z "},"Ŭ":{"ha":908,"x_min":88,"x_max":819,"o":"m 819 317 q 778 142 819 218 q 653 22 736 65 q 453 -22 571 -22 q 181 70 275 -22 q 88 317 88 163 l 88 961 l 292 961 l 292 326 q 331 181 292 229 q 453 133 369 133 q 576 181 536 133 q 615 326 615 229 l 615 961 l 819 961 l 819 317 m 453 1044 q 292 1106 354 1044 q 221 1257 229 1167 l 333 1278 q 376 1210 347 1235 q 453 1185 406 1185 q 529 1210 499 1185 q 574 1278 560 1235 l 686 1257 q 615 1106 678 1167 q 453 1044 551 1044 z "},"Ǔ":{"ha":908,"x_min":88,"x_max":819,"o":"m 819 317 q 778 142 819 218 q 653 22 736 65 q 453 -22 571 -22 q 181 70 275 -22 q 88 317 88 163 l 88 961 l 292 961 l 292 326 q 331 181 292 229 q 453 133 369 133 q 576 181 536 133 q 615 326 615 229 l 615 961 l 819 961 l 819 317 m 638 1299 l 710 1215 l 515 1043 l 393 1043 l 199 1215 l 272 1299 l 454 1183 l 638 1299 z "},"Û":{"ha":908,"x_min":88,"x_max":819,"o":"m 819 317 q 778 142 819 218 q 653 22 736 65 q 453 -22 571 -22 q 181 70 275 -22 q 88 317 88 163 l 88 961 l 292 961 l 292 326 q 331 181 292 229 q 453 133 369 133 q 576 181 536 133 q 615 326 615 229 l 615 961 l 819 961 l 819 317 m 272 1050 l 199 1133 l 393 1306 l 515 1306 l 710 1133 l 638 1050 l 454 1165 l 272 1050 z "},"Ȕ":{"ha":908,"x_min":88,"x_max":819,"o":"m 819 317 q 778 142 819 218 q 653 22 736 65 q 453 -22 571 -22 q 181 70 275 -22 q 88 317 88 163 l 88 961 l 292 961 l 292 326 q 331 181 292 229 q 453 133 369 133 q 576 181 536 133 q 615 326 615 229 l 615 961 l 819 961 l 819 317 m 275 1360 l 407 1094 l 301 1046 l 138 1290 l 275 1360 m 511 1360 l 631 1097 l 524 1053 l 372 1293 l 511 1360 z "},"Ü":{"ha":908,"x_min":88,"x_max":819,"o":"m 819 317 q 778 142 819 218 q 653 22 736 65 q 453 -22 571 -22 q 181 70 275 -22 q 88 317 88 163 l 88 961 l 292 961 l 292 326 q 331 181 292 229 q 453 133 369 133 q 576 181 536 133 q 615 326 615 229 l 615 961 l 819 961 l 819 317 m 294 1275 q 369 1245 339 1275 q 399 1172 399 1215 q 369 1099 399 1129 q 294 1069 339 1069 q 221 1099 251 1069 q 190 1172 190 1129 q 221 1245 190 1215 q 294 1275 251 1275 m 608 1275 q 683 1245 653 1275 q 714 1172 714 1215 q 683 1099 714 1129 q 608 1069 653 1069 q 535 1099 565 1069 q 506 1172 506 1129 q 535 1245 506 1215 q 608 1275 565 1275 z "},"Ǘ":{"ha":908,"x_min":88,"x_max":819,"o":"m 819 317 q 778 142 819 218 q 653 22 736 65 q 453 -22 571 -22 q 181 70 275 -22 q 88 317 88 163 l 88 961 l 292 961 l 292 326 q 331 181 292 229 q 453 133 369 133 q 576 181 536 133 q 615 326 615 229 l 615 961 l 819 961 l 819 317 m 556 1494 l 665 1389 l 454 1199 l 378 1267 l 556 1494 m 289 1243 q 363 1213 332 1243 q 393 1140 393 1183 q 363 1067 393 1097 q 289 1038 332 1038 q 215 1067 246 1038 q 185 1140 185 1097 q 215 1213 185 1183 q 289 1243 246 1243 m 617 1243 q 690 1213 660 1243 q 721 1140 721 1183 q 690 1067 721 1097 q 617 1038 660 1038 q 542 1067 572 1038 q 513 1140 513 1097 q 542 1213 513 1183 q 617 1243 572 1243 z "},"Ǚ":{"ha":908,"x_min":88,"x_max":819,"o":"m 819 317 q 778 142 819 218 q 653 22 736 65 q 453 -22 571 -22 q 181 70 275 -22 q 88 317 88 163 l 88 961 l 292 961 l 292 326 q 331 181 292 229 q 453 133 369 133 q 576 181 536 133 q 615 326 615 229 l 615 961 l 819 961 l 819 317 m 633 1500 l 706 1417 l 511 1244 l 389 1244 l 194 1417 l 268 1500 l 450 1385 l 633 1500 m 290 1243 q 364 1213 333 1243 q 394 1140 394 1183 q 364 1067 394 1097 q 290 1038 333 1038 q 215 1067 246 1038 q 185 1140 185 1097 q 215 1213 185 1183 q 290 1243 246 1243 m 617 1243 q 690 1213 660 1243 q 721 1140 721 1183 q 690 1067 721 1097 q 617 1038 660 1038 q 543 1067 574 1038 q 513 1140 513 1097 q 543 1213 513 1183 q 617 1243 574 1243 z "},"Ǜ":{"ha":908,"x_min":88,"x_max":819,"o":"m 819 317 q 778 142 819 218 q 653 22 736 65 q 453 -22 571 -22 q 181 70 275 -22 q 88 317 88 163 l 88 961 l 292 961 l 292 326 q 331 181 292 229 q 453 133 369 133 q 576 181 536 133 q 615 326 615 229 l 615 961 l 819 961 l 819 317 m 353 1494 l 532 1267 l 456 1199 l 244 1389 l 353 1494 m 289 1243 q 363 1213 333 1243 q 393 1140 393 1183 q 363 1067 393 1097 q 289 1038 333 1038 q 215 1067 246 1038 q 185 1140 185 1097 q 215 1213 185 1183 q 289 1243 246 1243 m 617 1243 q 691 1213 661 1243 q 721 1140 721 1183 q 691 1067 721 1097 q 617 1038 661 1038 q 543 1067 574 1038 q 513 1140 513 1097 q 543 1213 513 1183 q 617 1243 574 1243 z "},"Ǖ":{"ha":908,"x_min":88,"x_max":819,"o":"m 819 317 q 778 142 819 218 q 653 22 736 65 q 453 -22 571 -22 q 181 70 275 -22 q 88 317 88 163 l 88 961 l 292 961 l 292 326 q 331 181 292 229 q 453 133 369 133 q 576 181 536 133 q 615 326 615 229 l 615 961 l 819 961 l 819 317 m 296 1240 q 370 1210 340 1240 q 400 1138 400 1181 q 370 1065 400 1094 q 296 1035 340 1035 q 222 1065 253 1035 q 192 1138 192 1094 q 222 1210 192 1181 q 296 1240 253 1240 m 610 1240 q 685 1210 654 1240 q 715 1138 715 1181 q 685 1065 715 1094 q 610 1035 654 1035 q 537 1065 567 1035 q 507 1138 507 1094 q 537 1210 507 1181 q 610 1240 567 1240 m 665 1293 l 251 1293 l 251 1432 l 665 1432 l 665 1293 z "},"Ụ":{"ha":908,"x_min":88,"x_max":819,"o":"m 819 317 q 778 142 819 218 q 653 22 736 65 q 453 -22 571 -22 q 181 70 275 -22 q 88 317 88 163 l 88 961 l 292 961 l 292 326 q 331 181 292 229 q 453 133 369 133 q 576 181 536 133 q 615 326 615 229 l 615 961 l 819 961 l 819 317 m 454 -319 q 367 -287 401 -319 q 333 -204 333 -254 q 367 -122 333 -154 q 454 -89 401 -89 q 540 -122 507 -89 q 574 -204 574 -154 q 540 -287 574 -254 q 454 -319 507 -319 z "},"Ù":{"ha":908,"x_min":88,"x_max":819,"o":"m 819 317 q 778 142 819 218 q 653 22 736 65 q 453 -22 571 -22 q 181 70 275 -22 q 88 317 88 163 l 88 961 l 292 961 l 292 326 q 331 181 292 229 q 453 133 369 133 q 576 181 536 133 q 615 326 615 229 l 615 961 l 819 961 l 819 317 m 335 1313 l 635 1146 l 585 1044 l 260 1163 l 335 1313 z "},"Ủ":{"ha":908,"x_min":88,"x_max":819,"o":"m 819 317 q 778 142 819 218 q 653 22 736 65 q 453 -22 571 -22 q 181 70 275 -22 q 88 317 88 163 l 88 961 l 292 961 l 292 326 q 331 181 292 229 q 453 133 369 133 q 576 181 536 133 q 615 326 615 229 l 615 961 l 819 961 l 819 317 m 392 1183 q 467 1198 444 1186 q 490 1238 490 1210 q 476 1271 490 1260 q 435 1282 461 1282 q 351 1264 397 1282 l 317 1350 q 463 1386 378 1386 q 586 1348 542 1386 q 631 1247 631 1310 q 514 1121 631 1143 l 514 1060 l 392 1060 l 392 1183 z "},"Ư":{"ha":990,"x_min":88,"x_max":1018,"o":"m 992 1074 q 1018 953 1018 1024 q 966 828 1018 871 q 819 783 914 786 l 819 317 q 778 142 819 218 q 653 22 736 65 q 453 -22 571 -22 q 181 70 275 -22 q 88 317 88 163 l 88 961 l 292 961 l 292 326 q 331 181 292 229 q 453 133 369 133 q 576 181 536 133 q 615 326 615 229 l 615 961 l 819 961 l 819 883 q 864 907 850 889 q 878 957 878 925 q 860 1053 878 1008 l 992 1074 z "},"Ứ":{"ha":990,"x_min":88,"x_max":1018,"o":"m 642 1163 l 317 1044 l 267 1146 l 567 1313 l 642 1163 m 992 1074 q 1018 953 1018 1024 q 966 828 1018 871 q 819 783 914 786 l 819 317 q 778 142 819 218 q 653 22 736 65 q 453 -22 571 -22 q 181 70 275 -22 q 88 317 88 163 l 88 961 l 292 961 l 292 326 q 331 181 292 229 q 453 133 369 133 q 576 181 536 133 q 615 326 615 229 l 615 961 l 819 961 l 819 883 q 864 907 850 889 q 878 957 878 925 q 860 1053 878 1008 l 992 1074 z "},"Ự":{"ha":990,"x_min":88,"x_max":1018,"o":"m 992 1074 q 1018 953 1018 1024 q 966 828 1018 871 q 819 783 914 786 l 819 317 q 778 142 819 218 q 653 22 736 65 q 453 -22 571 -22 q 181 70 275 -22 q 88 317 88 163 l 88 961 l 292 961 l 292 326 q 331 181 292 229 q 453 133 369 133 q 576 181 536 133 q 615 326 615 229 l 615 961 l 819 961 l 819 883 q 864 907 850 889 q 878 957 878 925 q 860 1053 878 1008 l 992 1074 m 454 -89 q 540 -122 507 -89 q 574 -204 574 -154 q 540 -287 574 -254 q 454 -319 507 -319 q 367 -287 401 -319 q 333 -204 333 -254 q 367 -122 333 -154 q 454 -89 401 -89 z "},"Ừ":{"ha":990,"x_min":88,"x_max":1018,"o":"m 635 1146 l 585 1044 l 260 1163 l 335 1313 l 635 1146 m 992 1074 q 1018 953 1018 1024 q 966 828 1018 871 q 819 783 914 786 l 819 317 q 778 142 819 218 q 653 22 736 65 q 453 -22 571 -22 q 181 70 275 -22 q 88 317 88 163 l 88 961 l 292 961 l 292 326 q 331 181 292 229 q 453 133 369 133 q 576 181 536 133 q 615 326 615 229 l 615 961 l 819 961 l 819 883 q 864 907 850 889 q 878 957 878 925 q 860 1053 878 1008 l 992 1074 z "},"Ử":{"ha":990,"x_min":88,"x_max":1018,"o":"m 435 1282 q 351 1264 397 1282 l 317 1350 q 463 1386 378 1386 q 586 1348 542 1386 q 631 1247 631 1310 q 514 1121 631 1143 l 514 1060 l 392 1060 l 392 1183 q 467 1198 444 1186 q 490 1238 490 1210 q 476 1271 490 1260 q 435 1282 461 1282 m 992 1074 q 1018 953 1018 1024 q 966 828 1018 871 q 819 783 914 786 l 819 317 q 778 142 819 218 q 653 22 736 65 q 453 -22 571 -22 q 181 70 275 -22 q 88 317 88 163 l 88 961 l 292 961 l 292 326 q 331 181 292 229 q 453 133 369 133 q 576 181 536 133 q 615 326 615 229 l 615 961 l 819 961 l 819 883 q 864 907 850 889 q 878 957 878 925 q 860 1053 878 1008 l 992 1074 z "},"Ữ":{"ha":990,"x_min":88,"x_max":1018,"o":"m 375 1128 q 336 1113 353 1128 q 301 1065 319 1097 l 200 1115 q 272 1226 228 1183 q 372 1269 317 1269 q 426 1259 404 1269 q 476 1231 449 1249 q 507 1212 494 1218 q 533 1206 519 1206 q 572 1220 556 1206 q 607 1267 588 1235 l 708 1217 q 636 1105 681 1146 q 535 1064 592 1064 q 484 1074 506 1064 q 433 1101 463 1083 q 402 1122 415 1115 q 375 1128 389 1128 m 992 1074 q 1018 953 1018 1024 q 966 828 1018 871 q 819 783 914 786 l 819 317 q 778 142 819 218 q 653 22 736 65 q 453 -22 571 -22 q 181 70 275 -22 q 88 317 88 163 l 88 961 l 292 961 l 292 326 q 331 181 292 229 q 453 133 369 133 q 576 181 536 133 q 615 326 615 229 l 615 961 l 819 961 l 819 883 q 864 907 850 889 q 878 957 878 925 q 860 1053 878 1008 l 992 1074 z "},"Ű":{"ha":908,"x_min":88,"x_max":819,"o":"m 819 317 q 778 142 819 218 q 653 22 736 65 q 453 -22 571 -22 q 181 70 275 -22 q 88 317 88 163 l 88 961 l 292 961 l 292 326 q 331 181 292 229 q 453 133 369 133 q 576 181 536 133 q 615 326 615 229 l 615 961 l 819 961 l 819 317 m 394 1360 l 535 1293 l 383 1053 l 276 1097 l 394 1360 m 631 1360 l 769 1290 l 606 1046 l 500 1094 l 631 1360 z "},"Ȗ":{"ha":908,"x_min":88,"x_max":819,"o":"m 819 317 q 778 142 819 218 q 653 22 736 65 q 453 -22 571 -22 q 181 70 275 -22 q 88 317 88 163 l 88 961 l 292 961 l 292 326 q 331 181 292 229 q 453 133 369 133 q 576 181 536 133 q 615 326 615 229 l 615 961 l 819 961 l 819 317 m 453 1311 q 615 1248 553 1311 q 686 1085 678 1185 l 574 1064 q 453 1172 544 1172 q 333 1064 360 1172 l 221 1085 q 291 1248 229 1185 q 453 1311 353 1311 z "},"Ū":{"ha":908,"x_min":88,"x_max":819,"o":"m 819 317 q 778 142 819 218 q 653 22 736 65 q 453 -22 571 -22 q 181 70 275 -22 q 88 317 88 163 l 88 961 l 292 961 l 292 326 q 331 181 292 229 q 453 133 369 133 q 576 181 536 133 q 615 326 615 229 l 615 961 l 819 961 l 819 317 m 661 1089 l 247 1089 l 247 1228 l 661 1228 l 661 1089 z "},"Ų":{"ha":908,"x_min":88,"x_max":819,"o":"m 819 961 l 819 317 q 763 117 819 201 q 597 -1 706 32 q 471 -74 506 -37 q 436 -146 436 -110 q 510 -210 436 -210 q 594 -200 550 -210 l 581 -326 q 486 -336 529 -336 q 344 -294 399 -336 q 289 -181 289 -251 q 410 -21 289 -78 q 170 81 253 -10 q 88 317 88 172 l 88 961 l 292 961 l 292 326 q 331 181 292 229 q 453 133 369 133 q 576 181 536 133 q 615 326 615 229 l 615 961 l 819 961 z "},"Ʊ":{"ha":960,"x_min":53,"x_max":907,"o":"m 481 -22 q 252 35 349 -22 q 104 192 156 92 q 53 424 53 293 q 101 655 53 564 q 235 811 149 746 l 83 811 l 83 961 l 399 961 l 399 818 q 299 660 331 747 q 268 424 268 572 q 322 204 268 278 q 481 131 376 131 q 638 205 583 131 q 692 425 692 279 q 659 658 692 569 q 561 818 626 746 l 561 961 l 878 961 l 878 811 l 725 811 q 859 660 811 753 q 907 425 907 568 q 855 195 907 297 q 706 35 803 93 q 481 -22 610 -22 z "},"Ů":{"ha":908,"x_min":88,"x_max":819,"o":"m 819 317 q 778 142 819 218 q 653 22 736 65 q 453 -22 571 -22 q 181 70 275 -22 q 88 317 88 163 l 88 961 l 292 961 l 292 326 q 331 181 292 229 q 453 133 369 133 q 576 181 536 133 q 615 326 615 229 l 615 961 l 819 961 l 819 317 m 454 1369 q 588 1319 536 1369 q 639 1196 639 1268 q 588 1072 639 1122 q 454 1021 536 1021 q 321 1072 372 1021 q 269 1196 269 1122 q 321 1319 269 1268 q 454 1369 372 1369 m 454 1267 q 407 1248 425 1267 q 389 1196 389 1229 q 406 1142 389 1161 q 454 1124 424 1124 q 502 1142 485 1124 q 519 1196 519 1161 q 501 1248 519 1229 q 454 1267 483 1267 z "},"Ũ":{"ha":908,"x_min":88,"x_max":819,"o":"m 819 317 q 778 142 819 218 q 653 22 736 65 q 453 -22 571 -22 q 181 70 275 -22 q 88 317 88 163 l 88 961 l 292 961 l 292 326 q 331 181 292 229 q 453 133 369 133 q 576 181 536 133 q 615 326 615 229 l 615 961 l 819 961 l 819 317 m 535 1064 q 484 1074 506 1064 q 433 1101 463 1083 q 402 1122 415 1115 q 375 1128 389 1128 q 336 1113 353 1128 q 301 1065 319 1097 l 200 1115 q 272 1226 228 1183 q 372 1269 317 1269 q 426 1259 404 1269 q 476 1231 449 1249 q 507 1212 494 1218 q 533 1206 519 1206 q 572 1220 556 1206 q 607 1267 588 1235 l 708 1217 q 636 1105 681 1146 q 535 1064 592 1064 z "},"Ṹ":{"ha":908,"x_min":88,"x_max":819,"o":"m 819 317 q 778 142 819 218 q 653 22 736 65 q 453 -22 571 -22 q 181 70 275 -22 q 88 317 88 163 l 88 961 l 292 961 l 292 326 q 331 181 292 229 q 453 133 369 133 q 576 181 536 133 q 615 326 615 229 l 615 961 l 819 961 l 819 317 m 535 1050 q 484 1060 506 1050 q 433 1088 463 1069 q 402 1108 415 1101 q 375 1114 389 1114 q 336 1099 353 1114 q 301 1051 319 1083 l 200 1101 q 272 1213 228 1169 q 372 1256 317 1256 q 426 1245 404 1256 q 476 1217 449 1235 q 507 1198 494 1204 q 533 1192 519 1192 q 572 1206 556 1192 q 607 1253 588 1221 l 708 1203 q 636 1091 681 1132 q 535 1050 592 1050 m 567 1546 l 642 1396 l 317 1278 l 267 1379 l 567 1546 z "},"V":{"ha":788,"x_min":-12,"x_max":799,"o":"m 799 961 l 522 0 l 274 0 l -12 961 l 206 961 l 401 169 l 590 961 l 799 961 z "},"Ʋ":{"ha":908,"x_min":88,"x_max":819,"o":"m 619 983 q 768 929 717 983 q 819 765 819 875 l 819 408 q 771 179 819 276 q 633 30 722 82 q 425 -22 544 -22 q 246 19 322 -22 q 128 132 169 60 q 88 296 88 204 l 88 961 l 292 961 l 292 299 q 328 176 292 219 q 431 133 364 133 q 567 201 518 133 q 615 408 615 269 l 615 774 q 605 819 615 806 q 569 832 594 832 q 529 825 547 832 l 493 960 q 619 983 547 983 z "},"Ʌ":{"ha":814,"x_min":-12,"x_max":826,"o":"m 532 961 l 826 0 l 610 0 l 406 810 l 200 0 l -12 0 l 283 961 l 532 961 z "},"W":{"ha":1169,"x_min":18,"x_max":1150,"o":"m 1150 961 l 982 0 l 717 0 l 583 751 l 443 0 l 185 0 l 18 961 l 222 961 l 332 158 l 478 961 l 693 961 l 833 158 l 957 961 l 1150 961 z "},"Ẃ":{"ha":1169,"x_min":18,"x_max":1150,"o":"m 1150 961 l 982 0 l 717 0 l 583 751 l 443 0 l 185 0 l 18 961 l 222 961 l 332 158 l 478 961 l 693 961 l 833 158 l 957 961 l 1150 961 m 699 1313 l 774 1163 l 449 1044 l 399 1146 l 699 1313 z "},"Ŵ":{"ha":1169,"x_min":18,"x_max":1150,"o":"m 1150 961 l 982 0 l 717 0 l 583 751 l 443 0 l 185 0 l 18 961 l 222 961 l 332 158 l 478 961 l 693 961 l 833 158 l 957 961 l 1150 961 m 404 1050 l 331 1133 l 525 1306 l 647 1306 l 842 1133 l 769 1050 l 586 1165 l 404 1050 z "},"Ẅ":{"ha":1169,"x_min":18,"x_max":1150,"o":"m 1150 961 l 982 0 l 717 0 l 583 751 l 443 0 l 185 0 l 18 961 l 222 961 l 332 158 l 478 961 l 693 961 l 833 158 l 957 961 l 1150 961 m 426 1275 q 501 1245 471 1275 q 531 1172 531 1215 q 501 1099 531 1129 q 426 1069 471 1069 q 353 1099 383 1069 q 322 1172 322 1129 q 353 1245 322 1215 q 426 1275 383 1275 m 740 1275 q 815 1245 785 1275 q 846 1172 846 1215 q 815 1099 846 1129 q 740 1069 785 1069 q 667 1099 697 1069 q 638 1172 638 1129 q 667 1245 638 1215 q 740 1275 697 1275 z "},"Ẁ":{"ha":1169,"x_min":18,"x_max":1150,"o":"m 1150 961 l 982 0 l 717 0 l 583 751 l 443 0 l 185 0 l 18 961 l 222 961 l 332 158 l 478 961 l 693 961 l 833 158 l 957 961 l 1150 961 m 467 1313 l 767 1146 l 717 1044 l 392 1163 l 467 1313 z "},"Ⱳ":{"ha":1249,"x_min":18,"x_max":1308,"o":"m 185 0 l 443 0 l 583 751 l 717 0 l 976 0 l 1093 754 q 1117 819 1100 800 q 1171 838 1135 838 q 1211 831 1194 838 q 1247 814 1228 825 l 1308 929 q 1233 969 1271 956 q 1143 983 1194 983 q 990 931 1047 983 q 918 760 932 878 l 833 158 l 693 961 l 478 961 l 332 158 l 222 961 l 18 961 l 185 0 z "},"Ƿ":{"ha":826,"x_min":101,"x_max":793,"o":"m 526 983 q 661 951 600 983 q 758 858 722 918 q 793 715 793 797 q 744 536 793 610 q 615 414 694 463 q 415 321 535 365 l 306 281 l 306 0 l 101 0 l 101 961 l 306 961 l 306 899 q 526 983 390 983 m 378 457 q 530 561 478 500 q 582 707 582 622 q 549 800 582 768 q 460 832 517 832 q 306 771 374 832 l 306 428 l 378 457 z "},"X":{"ha":793,"x_min":-3,"x_max":796,"o":"m 515 518 l 796 0 l 571 0 l 392 381 l 215 0 l -3 0 l 271 511 l 19 961 l 243 961 l 394 640 l 553 961 l 769 961 l 515 518 z "},"Y":{"ha":810,"x_min":-6,"x_max":815,"o":"m 815 961 l 507 363 l 507 0 l 303 0 l 303 361 l -6 961 l 218 961 l 410 525 l 600 961 l 815 961 z "},"Ý":{"ha":810,"x_min":-6,"x_max":815,"o":"m 815 961 l 507 363 l 507 0 l 303 0 l 303 361 l -6 961 l 218 961 l 410 525 l 600 961 l 815 961 m 518 1313 l 593 1163 l 268 1044 l 218 1146 l 518 1313 z "},"Ŷ":{"ha":810,"x_min":-6,"x_max":815,"o":"m 815 961 l 507 363 l 507 0 l 303 0 l 303 361 l -6 961 l 218 961 l 410 525 l 600 961 l 815 961 m 224 1050 l 150 1133 l 344 1306 l 467 1306 l 661 1133 l 589 1050 l 406 1165 l 224 1050 z "},"Ÿ":{"ha":810,"x_min":-6,"x_max":815,"o":"m 815 961 l 507 363 l 507 0 l 303 0 l 303 361 l -6 961 l 218 961 l 410 525 l 600 961 l 815 961 m 246 1275 q 320 1245 290 1275 q 350 1172 350 1215 q 320 1099 350 1129 q 246 1069 290 1069 q 172 1099 203 1069 q 142 1172 142 1129 q 172 1245 142 1215 q 246 1275 203 1275 m 560 1275 q 635 1245 604 1275 q 665 1172 665 1215 q 635 1099 665 1129 q 560 1069 604 1069 q 487 1099 517 1069 q 457 1172 457 1129 q 487 1245 457 1215 q 560 1275 517 1275 z "},"Ỵ":{"ha":810,"x_min":-6,"x_max":815,"o":"m 815 961 l 507 363 l 507 0 l 303 0 l 303 361 l -6 961 l 218 961 l 410 525 l 600 961 l 815 961 m 406 -319 q 319 -287 353 -319 q 285 -204 285 -254 q 319 -122 285 -154 q 406 -89 353 -89 q 492 -122 458 -89 q 525 -204 525 -154 q 492 -287 525 -254 q 406 -319 458 -319 z "},"Ỳ":{"ha":810,"x_min":-6,"x_max":815,"o":"m 815 961 l 507 363 l 507 0 l 303 0 l 303 361 l -6 961 l 218 961 l 410 525 l 600 961 l 815 961 m 286 1313 l 586 1146 l 536 1044 l 211 1163 l 286 1313 z "},"Ƴ":{"ha":863,"x_min":-6,"x_max":924,"o":"m 303 361 l -6 961 l 218 961 l 410 525 l 519 793 q 615 940 560 896 q 761 983 669 983 q 924 931 847 983 l 864 814 q 785 838 825 838 q 733 820 753 838 q 690 757 713 803 l 507 363 l 507 0 l 303 0 l 303 361 z "},"Ỷ":{"ha":810,"x_min":-6,"x_max":815,"o":"m 815 961 l 507 363 l 507 0 l 303 0 l 303 361 l -6 961 l 218 961 l 410 525 l 600 961 l 815 961 m 343 1183 q 419 1198 396 1186 q 442 1238 442 1210 q 427 1271 442 1260 q 386 1282 413 1282 q 303 1264 349 1282 l 268 1350 q 414 1386 329 1386 q 538 1348 493 1386 q 582 1247 582 1310 q 465 1121 582 1143 l 465 1060 l 343 1060 l 343 1183 z "},"Ȳ":{"ha":810,"x_min":-6,"x_max":815,"o":"m 815 961 l 507 363 l 507 0 l 303 0 l 303 361 l -6 961 l 218 961 l 410 525 l 600 961 l 815 961 m 613 1089 l 199 1089 l 199 1228 l 613 1228 l 613 1089 z "},"Ʀ":{"ha":853,"x_min":101,"x_max":847,"o":"m 410 215 l 306 215 l 306 0 l 101 0 l 101 961 l 306 961 l 306 800 l 401 800 q 692 728 594 800 q 789 513 789 657 q 743 356 789 417 q 600 253 697 294 l 847 -161 l 615 -161 l 410 215 m 306 360 l 413 360 q 536 397 494 360 q 578 513 578 433 q 534 619 578 586 q 397 653 490 653 l 306 653 l 306 360 z "},"Ɏ":{"ha":810,"x_min":-6,"x_max":817,"o":"m 760 850 l 817 850 l 817 731 l 697 731 l 508 363 l 508 0 l 303 0 l 303 361 l 113 731 l -3 731 l -3 850 l 51 850 l -6 961 l 213 961 l 261 850 l 560 850 l 608 961 l 817 961 l 760 850 m 410 513 l 507 731 l 314 731 l 410 513 z "},"Ỹ":{"ha":810,"x_min":-6,"x_max":815,"o":"m 815 961 l 507 363 l 507 0 l 303 0 l 303 361 l -6 961 l 218 961 l 410 525 l 600 961 l 815 961 m 486 1064 q 435 1074 457 1064 q 385 1101 414 1083 q 353 1122 367 1115 q 326 1128 340 1128 q 288 1113 304 1128 q 253 1065 271 1097 l 151 1115 q 224 1226 179 1183 q 324 1269 268 1269 q 378 1259 356 1269 q 428 1231 400 1249 q 458 1212 446 1218 q 485 1206 471 1206 q 523 1220 507 1206 q 558 1267 539 1235 l 660 1217 q 588 1105 632 1146 q 486 1064 543 1064 z "},"Z":{"ha":749,"x_min":29,"x_max":706,"o":"m 699 961 l 699 804 l 268 165 l 706 165 l 683 0 l 29 0 l 29 154 l 468 800 l 74 800 l 74 961 l 699 961 z "},"Ź":{"ha":749,"x_min":29,"x_max":706,"o":"m 699 961 l 699 804 l 268 165 l 706 165 l 683 0 l 29 0 l 29 154 l 468 800 l 74 800 l 74 961 l 699 961 m 494 1313 l 569 1163 l 244 1044 l 194 1146 l 494 1313 z "},"Ž":{"ha":749,"x_min":29,"x_max":706,"o":"m 699 961 l 699 804 l 268 165 l 706 165 l 683 0 l 29 0 l 29 154 l 468 800 l 74 800 l 74 961 l 699 961 m 565 1299 l 638 1215 l 443 1043 l 321 1043 l 126 1215 l 200 1299 l 382 1183 l 565 1299 z "},"Ż":{"ha":749,"x_min":29,"x_max":706,"o":"m 699 961 l 699 804 l 268 165 l 706 165 l 683 0 l 29 0 l 29 154 l 468 800 l 74 800 l 74 961 l 699 961 m 381 1290 q 467 1258 433 1290 q 501 1175 501 1225 q 467 1092 501 1125 q 381 1060 433 1060 q 294 1092 328 1060 q 261 1175 261 1125 q 294 1258 261 1225 q 381 1290 328 1290 z "},"Ẓ":{"ha":749,"x_min":29,"x_max":706,"o":"m 699 961 l 699 804 l 268 165 l 706 165 l 683 0 l 29 0 l 29 154 l 468 800 l 74 800 l 74 961 l 699 961 m 365 -319 q 278 -287 313 -319 q 244 -204 244 -254 q 278 -122 244 -154 q 365 -89 313 -89 q 451 -122 418 -89 q 485 -204 485 -154 q 451 -287 485 -254 q 365 -319 418 -319 z "},"Ȥ":{"ha":742,"x_min":29,"x_max":699,"o":"m 699 804 l 268 165 l 694 165 l 694 -53 q 624 -241 694 -176 q 433 -306 554 -306 q 246 -247 322 -306 l 314 -124 q 362 -147 340 -140 q 417 -154 383 -154 q 499 -65 499 -154 l 499 0 l 29 0 l 29 154 l 468 800 l 74 800 l 74 961 l 699 961 l 699 804 z "},"Ƶ":{"ha":749,"x_min":29,"x_max":706,"o":"m 251 165 l 706 165 l 683 0 l 29 0 l 29 149 l 215 414 l 100 414 l 100 550 l 310 550 l 485 800 l 74 800 l 74 961 l 699 961 l 699 811 l 518 550 l 636 550 l 636 414 l 424 414 l 251 165 z "},"ʙ":{"ha":775,"x_min":97,"x_max":722,"o":"m 535 403 q 722 225 722 382 q 635 56 722 111 q 397 0 547 0 l 97 0 l 97 728 q 376 758 253 758 q 606 708 522 758 q 689 558 689 657 q 649 456 689 496 q 535 403 610 417 m 374 628 q 294 624 336 628 l 294 446 l 386 446 q 465 468 436 446 q 493 538 493 490 q 463 606 493 583 q 374 628 433 628 m 393 133 q 519 239 519 133 q 490 311 519 288 q 394 335 460 335 l 294 335 l 294 133 l 393 133 z "},"ɢ":{"ha":778,"x_min":53,"x_max":710,"o":"m 425 758 q 579 733 514 758 q 703 660 644 708 l 606 554 q 523 599 563 585 q 435 614 483 614 q 306 552 354 614 q 258 371 258 490 q 297 179 258 236 q 411 122 335 122 q 524 144 468 122 l 524 294 l 418 294 l 400 428 l 710 428 l 710 65 q 408 -19 568 -19 q 143 79 233 -19 q 53 372 53 178 q 102 576 53 489 q 236 711 151 664 q 425 758 321 758 z "},"ʛ":{"ha":778,"x_min":53,"x_max":935,"o":"m 756 1051 q 935 999 858 1051 l 875 875 q 828 897 849 890 q 779 904 807 904 q 703 814 703 904 l 703 660 l 617 564 q 529 602 569 590 q 438 614 489 614 q 306 553 353 614 q 258 371 258 492 q 297 179 258 236 q 411 122 335 122 q 524 144 468 122 l 524 294 l 418 294 l 400 428 l 710 428 l 710 65 q 575 3 651 26 q 410 -19 499 -19 q 144 80 235 -19 q 53 372 53 179 q 101 576 53 488 q 231 711 149 664 q 410 758 313 758 q 525 739 474 758 l 525 819 q 584 992 525 932 q 756 1051 643 1051 z "},"ʜ":{"ha":817,"x_min":97,"x_max":719,"o":"m 522 0 l 522 300 l 294 300 l 294 0 l 97 0 l 97 736 l 294 736 l 294 449 l 522 449 l 522 736 l 719 736 l 719 0 l 522 0 z "},"ɪ":{"ha":467,"x_min":25,"x_max":442,"o":"m 442 593 l 332 593 l 332 144 l 442 144 l 442 0 l 25 0 l 25 144 l 135 144 l 135 593 l 25 593 l 25 736 l 442 736 l 442 593 z "},"ʟ":{"ha":621,"x_min":97,"x_max":607,"o":"m 294 736 l 294 154 l 607 154 l 585 0 l 97 0 l 97 736 l 294 736 z "},"ɴ":{"ha":818,"x_min":97,"x_max":721,"o":"m 721 0 l 482 0 l 244 561 q 266 401 258 475 q 274 229 274 326 l 274 0 l 97 0 l 97 736 l 335 736 l 574 175 q 552 317 558 264 q 546 456 546 371 l 546 736 l 721 736 l 721 0 z "},"ɶ":{"ha":1061,"x_min":53,"x_max":1026,"o":"m 750 306 q 672 139 733 207 l 1025 139 l 1025 0 l 532 0 q 406 -22 468 -22 q 147 81 240 -22 q 53 368 53 185 q 95 573 53 485 q 217 710 138 661 q 407 758 297 758 q 538 736 472 758 l 1026 736 l 1006 599 l 676 599 q 747 442 731 532 l 968 442 l 968 306 l 750 306 m 407 125 q 515 185 476 125 q 553 368 553 244 q 514 552 553 493 q 407 611 475 611 q 295 552 332 611 q 258 368 258 493 q 295 184 258 243 q 407 125 332 125 z "},"ʀ":{"ha":735,"x_min":97,"x_max":719,"o":"m 357 261 l 288 261 l 288 0 l 97 0 l 97 736 l 346 736 q 584 676 501 736 q 667 497 667 617 q 633 374 667 428 q 533 290 599 319 l 719 0 l 510 0 l 357 261 m 288 385 l 353 385 q 443 411 414 385 q 472 499 472 438 q 440 581 472 557 q 342 606 408 606 l 288 606 l 288 385 z "},"ʁ":{"ha":735,"x_min":97,"x_max":719,"o":"m 533 447 q 633 368 599 421 q 667 244 667 315 q 585 60 667 121 q 346 0 503 0 l 97 0 l 97 736 l 288 736 l 288 475 l 357 475 l 510 736 l 719 736 l 533 447 m 342 131 q 440 156 408 131 q 472 243 472 182 q 442 326 472 301 q 353 351 413 351 l 288 351 l 288 131 l 342 131 z "},"ʏ":{"ha":678,"x_min":-12,"x_max":692,"o":"m 692 736 l 438 269 l 438 0 l 240 0 l 240 268 l -12 736 l 197 736 l 343 397 l 488 736 l 692 736 z "},"a":{"ha":760,"x_min":43,"x_max":714,"o":"m 660 204 q 672 141 660 161 q 714 111 685 121 l 672 -19 q 566 11 607 -14 q 503 89 525 36 q 282 -22 431 -22 q 108 41 172 -22 q 43 206 43 104 q 131 390 43 326 q 382 454 218 454 l 467 454 l 467 490 q 436 585 467 558 q 335 611 406 611 q 140 572 257 611 l 96 704 q 368 758 233 758 q 589 694 518 758 q 660 501 660 629 l 660 204 m 336 119 q 467 201 419 119 l 467 342 l 401 342 q 242 222 242 342 q 266 147 242 174 q 336 119 290 119 z "},"á":{"ha":760,"x_min":43,"x_max":714,"o":"m 660 204 q 672 141 660 161 q 714 111 685 121 l 672 -19 q 566 11 607 -14 q 503 89 525 36 q 282 -22 431 -22 q 108 41 172 -22 q 43 206 43 104 q 131 390 43 326 q 382 454 218 454 l 467 454 l 467 490 q 436 585 467 558 q 335 611 406 611 q 140 572 257 611 l 96 704 q 368 758 233 758 q 589 694 518 758 q 660 501 660 629 l 660 204 m 336 119 q 467 201 419 119 l 467 342 l 401 342 q 242 222 242 342 q 266 147 242 174 q 336 119 290 119 m 476 1149 l 554 997 l 235 869 l 179 971 l 476 1149 z "},"ă":{"ha":760,"x_min":43,"x_max":714,"o":"m 660 204 q 672 141 660 161 q 714 111 685 121 l 672 -19 q 566 11 607 -14 q 503 89 525 36 q 282 -22 431 -22 q 108 41 172 -22 q 43 206 43 104 q 131 390 43 326 q 382 454 218 454 l 467 454 l 467 490 q 436 585 467 558 q 335 611 406 611 q 140 572 257 611 l 96 704 q 368 758 233 758 q 589 694 518 758 q 660 501 660 629 l 660 204 m 336 119 q 467 201 419 119 l 467 342 l 401 342 q 242 222 242 342 q 266 147 242 174 q 336 119 290 119 m 372 882 q 210 945 272 882 q 140 1108 149 1008 l 253 1129 q 372 1021 279 1021 q 493 1129 464 1021 l 606 1108 q 535 945 597 1008 q 372 882 472 882 z "},"ắ":{"ha":760,"x_min":43,"x_max":714,"o":"m 660 204 q 672 141 660 161 q 714 111 685 121 l 672 -19 q 566 11 607 -14 q 503 89 525 36 q 282 -22 431 -22 q 108 41 172 -22 q 43 206 43 104 q 131 390 43 326 q 382 454 218 454 l 467 454 l 467 490 q 436 585 467 558 q 335 611 406 611 q 140 572 257 611 l 96 704 q 368 758 233 758 q 589 694 518 758 q 660 501 660 629 l 660 204 m 336 119 q 467 201 419 119 l 467 342 l 401 342 q 242 222 242 342 q 266 147 242 174 q 336 119 290 119 m 372 833 q 211 894 274 833 q 140 1046 149 956 l 253 1067 q 296 999 267 1024 q 372 974 325 974 q 449 999 418 974 q 493 1067 479 1024 l 606 1046 q 534 894 597 956 q 372 833 471 833 m 478 1346 l 588 1240 l 376 1050 l 300 1118 l 478 1346 z "},"ặ":{"ha":760,"x_min":43,"x_max":714,"o":"m 660 204 q 672 141 660 161 q 714 111 685 121 l 672 -19 q 566 11 607 -14 q 503 89 525 36 q 282 -22 431 -22 q 108 41 172 -22 q 43 206 43 104 q 131 390 43 326 q 382 454 218 454 l 467 454 l 467 490 q 436 585 467 558 q 335 611 406 611 q 140 572 257 611 l 96 704 q 368 758 233 758 q 589 694 518 758 q 660 501 660 629 l 660 204 m 336 119 q 467 201 419 119 l 467 342 l 401 342 q 242 222 242 342 q 266 147 242 174 q 336 119 290 119 m 372 882 q 210 945 272 882 q 140 1108 149 1008 l 253 1129 q 372 1021 279 1021 q 493 1129 464 1021 l 606 1108 q 535 945 597 1008 q 372 882 472 882 m 374 -319 q 287 -287 321 -319 q 253 -204 253 -254 q 287 -122 253 -154 q 374 -89 321 -89 q 460 -122 426 -89 q 493 -204 493 -154 q 460 -287 493 -254 q 374 -319 426 -319 z "},"ằ":{"ha":760,"x_min":43,"x_max":714,"o":"m 660 204 q 672 141 660 161 q 714 111 685 121 l 672 -19 q 566 11 607 -14 q 503 89 525 36 q 282 -22 431 -22 q 108 41 172 -22 q 43 206 43 104 q 131 390 43 326 q 382 454 218 454 l 467 454 l 467 490 q 436 585 467 558 q 335 611 406 611 q 140 572 257 611 l 96 704 q 368 758 233 758 q 589 694 518 758 q 660 501 660 629 l 660 204 m 336 119 q 467 201 419 119 l 467 342 l 401 342 q 242 222 242 342 q 266 147 242 174 q 336 119 290 119 m 372 833 q 211 894 274 833 q 140 1046 149 956 l 253 1067 q 296 999 267 1024 q 372 974 325 974 q 449 999 418 974 q 493 1067 479 1024 l 606 1046 q 534 894 597 956 q 372 833 471 833 m 268 1346 l 447 1118 l 371 1050 l 160 1240 l 268 1346 z "},"ẳ":{"ha":760,"x_min":43,"x_max":714,"o":"m 660 204 q 672 141 660 161 q 714 111 685 121 l 672 -19 q 566 11 607 -14 q 503 89 525 36 q 282 -22 431 -22 q 108 41 172 -22 q 43 206 43 104 q 131 390 43 326 q 382 454 218 454 l 467 454 l 467 490 q 436 585 467 558 q 335 611 406 611 q 140 572 257 611 l 96 704 q 368 758 233 758 q 589 694 518 758 q 660 501 660 629 l 660 204 m 336 119 q 467 201 419 119 l 467 342 l 401 342 q 242 222 242 342 q 266 147 242 174 q 336 119 290 119 m 374 833 q 213 894 275 833 q 142 1046 150 956 l 254 1067 q 297 999 268 1024 q 374 974 326 974 q 450 999 419 974 q 494 1067 481 1024 l 607 1046 q 535 894 599 956 q 374 833 472 833 m 311 1183 q 387 1198 364 1186 q 410 1238 410 1210 q 394 1270 410 1258 q 354 1282 379 1282 q 271 1264 317 1282 l 236 1350 q 382 1386 297 1386 q 506 1349 461 1386 q 550 1249 550 1311 q 519 1163 550 1196 q 433 1121 489 1131 l 433 1046 l 311 1046 l 311 1183 z "},"ẵ":{"ha":760,"x_min":43,"x_max":714,"o":"m 660 204 q 672 141 660 161 q 714 111 685 121 l 672 -19 q 566 11 607 -14 q 503 89 525 36 q 282 -22 431 -22 q 108 41 172 -22 q 43 206 43 104 q 131 390 43 326 q 382 454 218 454 l 467 454 l 467 490 q 436 585 467 558 q 335 611 406 611 q 140 572 257 611 l 96 704 q 368 758 233 758 q 589 694 518 758 q 660 501 660 629 l 660 204 m 336 119 q 467 201 419 119 l 467 342 l 401 342 q 242 222 242 342 q 266 147 242 174 q 336 119 290 119 m 375 833 q 214 894 276 833 q 143 1046 151 956 l 256 1067 q 299 999 269 1024 q 375 974 328 974 q 451 999 421 974 q 496 1067 482 1024 l 608 1046 q 537 894 600 956 q 375 833 474 833 m 456 1104 q 404 1113 426 1104 q 354 1140 382 1122 q 296 1165 319 1165 q 257 1151 274 1165 q 222 1106 240 1136 l 121 1153 q 193 1258 149 1217 q 293 1300 238 1300 q 348 1290 325 1300 q 397 1263 371 1281 q 428 1244 417 1250 q 454 1239 440 1239 q 493 1253 476 1239 q 528 1297 510 1267 l 629 1250 q 557 1143 601 1182 q 456 1104 513 1104 z "},"ǎ":{"ha":760,"x_min":43,"x_max":714,"o":"m 660 204 q 672 141 660 161 q 714 111 685 121 l 672 -19 q 566 11 607 -14 q 503 89 525 36 q 282 -22 431 -22 q 108 41 172 -22 q 43 206 43 104 q 131 390 43 326 q 382 454 218 454 l 467 454 l 467 490 q 436 585 467 558 q 335 611 406 611 q 140 572 257 611 l 96 704 q 368 758 233 758 q 589 694 518 758 q 660 501 660 629 l 660 204 m 336 119 q 467 201 419 119 l 467 342 l 401 342 q 242 222 242 342 q 266 147 242 174 q 336 119 290 119 m 557 1119 l 629 1036 l 435 854 l 313 854 l 118 1036 l 192 1119 l 374 996 l 557 1119 z "},"â":{"ha":760,"x_min":43,"x_max":714,"o":"m 660 204 q 672 141 660 161 q 714 111 685 121 l 672 -19 q 566 11 607 -14 q 503 89 525 36 q 282 -22 431 -22 q 108 41 172 -22 q 43 206 43 104 q 131 390 43 326 q 382 454 218 454 l 467 454 l 467 490 q 436 585 467 558 q 335 611 406 611 q 140 572 257 611 l 96 704 q 368 758 233 758 q 589 694 518 758 q 660 501 660 629 l 660 204 m 336 119 q 467 201 419 119 l 467 342 l 401 342 q 242 222 242 342 q 266 147 242 174 q 336 119 290 119 m 190 867 l 118 950 l 313 1132 l 435 1132 l 629 950 l 556 867 l 374 990 l 190 867 z "},"ấ":{"ha":760,"x_min":43,"x_max":797,"o":"m 660 204 q 672 141 660 161 q 714 111 685 121 l 672 -19 q 566 11 607 -14 q 503 89 525 36 q 282 -22 431 -22 q 108 41 172 -22 q 43 206 43 104 q 131 390 43 326 q 382 454 218 454 l 467 454 l 467 490 q 436 585 467 558 q 335 611 406 611 q 140 572 257 611 l 96 704 q 368 758 233 758 q 589 694 518 758 q 660 501 660 629 l 660 204 m 336 119 q 467 201 419 119 l 467 342 l 401 342 q 242 222 242 342 q 266 147 242 174 q 336 119 290 119 m 188 814 l 114 897 l 308 1069 l 431 1069 l 625 897 l 553 814 l 369 929 l 188 814 m 688 1307 l 797 1201 l 586 1011 l 510 1079 l 688 1307 z "},"ậ":{"ha":760,"x_min":43,"x_max":714,"o":"m 660 204 q 672 141 660 161 q 714 111 685 121 l 672 -19 q 566 11 607 -14 q 503 89 525 36 q 282 -22 431 -22 q 108 41 172 -22 q 43 206 43 104 q 131 390 43 326 q 382 454 218 454 l 467 454 l 467 490 q 436 585 467 558 q 335 611 406 611 q 140 572 257 611 l 96 704 q 368 758 233 758 q 589 694 518 758 q 660 501 660 629 l 660 204 m 336 119 q 467 201 419 119 l 467 342 l 401 342 q 242 222 242 342 q 266 147 242 174 q 336 119 290 119 m 190 867 l 118 950 l 313 1132 l 435 1132 l 629 950 l 556 867 l 374 990 l 190 867 m 374 -319 q 287 -287 321 -319 q 253 -204 253 -254 q 287 -122 253 -154 q 374 -89 321 -89 q 460 -122 426 -89 q 493 -204 493 -154 q 460 -287 493 -254 q 374 -319 426 -319 z "},"ầ":{"ha":760,"x_min":-56,"x_max":714,"o":"m 660 204 q 672 141 660 161 q 714 111 685 121 l 672 -19 q 566 11 607 -14 q 503 89 525 36 q 282 -22 431 -22 q 108 41 172 -22 q 43 206 43 104 q 131 390 43 326 q 382 454 218 454 l 467 454 l 467 490 q 436 585 467 558 q 335 611 406 611 q 140 572 257 611 l 96 704 q 368 758 233 758 q 589 694 518 758 q 660 501 660 629 l 660 204 m 336 119 q 467 201 419 119 l 467 342 l 401 342 q 242 222 242 342 q 266 147 242 174 q 336 119 290 119 m 188 814 l 114 897 l 308 1069 l 431 1069 l 625 897 l 553 814 l 369 929 l 188 814 m 53 1307 l 232 1079 l 156 1011 l -56 1201 l 53 1307 z "},"ẩ":{"ha":760,"x_min":43,"x_max":757,"o":"m 660 204 q 672 141 660 161 q 714 111 685 121 l 672 -19 q 566 11 607 -14 q 503 89 525 36 q 282 -22 431 -22 q 108 41 172 -22 q 43 206 43 104 q 131 390 43 326 q 382 454 218 454 l 467 454 l 467 490 q 436 585 467 558 q 335 611 406 611 q 140 572 257 611 l 96 704 q 368 758 233 758 q 589 694 518 758 q 660 501 660 629 l 660 204 m 336 119 q 467 201 419 119 l 467 342 l 401 342 q 242 222 242 342 q 266 147 242 174 q 336 119 290 119 m 188 814 l 114 897 l 308 1069 l 431 1069 l 625 897 l 553 814 l 369 929 l 188 814 m 518 1171 q 594 1185 571 1174 q 617 1225 617 1197 q 601 1258 617 1246 q 561 1269 586 1269 q 478 1251 524 1269 l 443 1338 q 589 1374 504 1374 q 713 1336 668 1374 q 757 1236 757 1299 q 726 1151 757 1183 q 640 1108 696 1118 l 640 1033 l 518 1033 l 518 1171 z "},"ẫ":{"ha":760,"x_min":43,"x_max":714,"o":"m 660 204 q 672 141 660 161 q 714 111 685 121 l 672 -19 q 566 11 607 -14 q 503 89 525 36 q 282 -22 431 -22 q 108 41 172 -22 q 43 206 43 104 q 131 390 43 326 q 382 454 218 454 l 467 454 l 467 490 q 436 585 467 558 q 335 611 406 611 q 140 572 257 611 l 96 704 q 368 758 233 758 q 589 694 518 758 q 660 501 660 629 l 660 204 m 336 119 q 467 201 419 119 l 467 342 l 401 342 q 242 222 242 342 q 266 147 242 174 q 336 119 290 119 m 188 807 l 114 890 l 308 1063 l 431 1063 l 625 890 l 553 807 l 369 922 l 188 807 m 450 1100 q 399 1109 421 1100 q 349 1136 376 1118 q 290 1161 314 1161 q 251 1147 268 1161 q 217 1101 235 1132 l 115 1149 q 188 1254 143 1213 q 288 1296 232 1296 q 342 1286 319 1296 q 392 1258 365 1276 q 423 1240 411 1246 q 449 1235 435 1235 q 488 1249 471 1235 q 522 1293 504 1263 l 624 1246 q 551 1139 596 1178 q 450 1100 507 1100 z "},"ȁ":{"ha":760,"x_min":43,"x_max":714,"o":"m 660 204 q 672 141 660 161 q 714 111 685 121 l 672 -19 q 566 11 607 -14 q 503 89 525 36 q 282 -22 431 -22 q 108 41 172 -22 q 43 206 43 104 q 131 390 43 326 q 382 454 218 454 l 467 454 l 467 490 q 436 585 467 558 q 335 611 406 611 q 140 572 257 611 l 96 704 q 368 758 233 758 q 589 694 518 758 q 660 501 660 629 l 660 204 m 336 119 q 467 201 419 119 l 467 342 l 401 342 q 242 222 242 342 q 266 147 242 174 q 336 119 290 119 m 208 1185 l 340 919 l 235 871 l 71 1115 l 208 1185 m 444 1185 l 564 922 l 457 878 l 306 1118 l 444 1185 z "},"ä":{"ha":760,"x_min":43,"x_max":714,"o":"m 660 204 q 672 141 660 161 q 714 111 685 121 l 672 -19 q 566 11 607 -14 q 503 89 525 36 q 282 -22 431 -22 q 108 41 172 -22 q 43 206 43 104 q 131 390 43 326 q 382 454 218 454 l 467 454 l 467 490 q 436 585 467 558 q 335 611 406 611 q 140 572 257 611 l 96 704 q 368 758 233 758 q 589 694 518 758 q 660 501 660 629 l 660 204 m 336 119 q 467 201 419 119 l 467 342 l 401 342 q 242 222 242 342 q 266 147 242 174 q 336 119 290 119 m 215 1100 q 290 1070 260 1100 q 319 997 319 1040 q 290 924 319 954 q 215 894 260 894 q 142 924 172 894 q 111 997 111 954 q 142 1070 111 1040 q 215 1100 172 1100 m 529 1100 q 604 1070 574 1100 q 635 997 635 1040 q 604 924 635 954 q 529 894 574 894 q 456 924 486 894 q 426 997 426 954 q 456 1070 426 1040 q 529 1100 486 1100 z "},"ǟ":{"ha":760,"x_min":43,"x_max":714,"o":"m 660 204 q 672 141 660 161 q 714 111 685 121 l 672 -19 q 566 11 607 -14 q 503 89 525 36 q 282 -22 431 -22 q 108 41 172 -22 q 43 206 43 104 q 131 390 43 326 q 382 454 218 454 l 467 454 l 467 490 q 436 585 467 558 q 335 611 406 611 q 140 572 257 611 l 96 704 q 368 758 233 758 q 589 694 518 758 q 660 501 660 629 l 660 204 m 336 119 q 467 201 419 119 l 467 342 l 401 342 q 242 222 242 342 q 266 147 242 174 q 336 119 290 119 m 215 1049 q 290 1019 260 1049 q 319 946 319 989 q 290 873 319 903 q 215 843 260 843 q 142 873 172 843 q 111 946 111 903 q 142 1019 111 989 q 215 1049 172 1049 m 529 1049 q 604 1019 574 1049 q 635 946 635 989 q 604 873 635 903 q 529 843 574 843 q 456 873 486 843 q 426 946 426 903 q 456 1019 426 989 q 529 1049 486 1049 m 581 1110 l 167 1110 l 167 1249 l 581 1249 l 581 1110 z "},"ȧ":{"ha":760,"x_min":43,"x_max":714,"o":"m 660 204 q 672 141 660 161 q 714 111 685 121 l 672 -19 q 566 11 607 -14 q 503 89 525 36 q 282 -22 431 -22 q 108 41 172 -22 q 43 206 43 104 q 131 390 43 326 q 382 454 218 454 l 467 454 l 467 490 q 436 585 467 558 q 335 611 406 611 q 140 572 257 611 l 96 704 q 368 758 233 758 q 589 694 518 758 q 660 501 660 629 l 660 204 m 336 119 q 467 201 419 119 l 467 342 l 401 342 q 242 222 242 342 q 266 147 242 174 q 336 119 290 119 m 372 1115 q 459 1083 425 1115 q 493 1000 493 1050 q 459 917 493 950 q 372 885 425 885 q 286 917 319 885 q 253 1000 253 950 q 286 1083 253 1050 q 372 1115 319 1115 z "},"ạ":{"ha":760,"x_min":43,"x_max":714,"o":"m 660 204 q 672 141 660 161 q 714 111 685 121 l 672 -19 q 566 11 607 -14 q 503 89 525 36 q 282 -22 431 -22 q 108 41 172 -22 q 43 206 43 104 q 131 390 43 326 q 382 454 218 454 l 467 454 l 467 490 q 436 585 467 558 q 335 611 406 611 q 140 572 257 611 l 96 704 q 368 758 233 758 q 589 694 518 758 q 660 501 660 629 l 660 204 m 336 119 q 467 201 419 119 l 467 342 l 401 342 q 242 222 242 342 q 266 147 242 174 q 336 119 290 119 m 374 -319 q 287 -287 321 -319 q 253 -204 253 -254 q 287 -122 253 -154 q 374 -89 321 -89 q 460 -122 426 -89 q 493 -204 493 -154 q 460 -287 493 -254 q 374 -319 426 -319 z "},"ǡ":{"ha":760,"x_min":43,"x_max":714,"o":"m 660 204 q 672 141 660 161 q 714 111 685 121 l 672 -19 q 566 11 607 -14 q 503 89 525 36 q 282 -22 431 -22 q 108 41 172 -22 q 43 206 43 104 q 131 390 43 326 q 382 454 218 454 l 467 454 l 467 490 q 436 585 467 558 q 335 611 406 611 q 140 572 257 611 l 96 704 q 368 758 233 758 q 589 694 518 758 q 660 501 660 629 l 660 204 m 336 119 q 467 201 419 119 l 467 342 l 401 342 q 242 222 242 342 q 266 147 242 174 q 336 119 290 119 m 372 1058 q 459 1026 425 1058 q 493 943 493 993 q 459 860 493 893 q 372 828 425 828 q 286 860 319 828 q 253 943 253 893 q 286 1026 253 993 q 372 1058 319 1058 m 581 1104 l 167 1104 l 167 1243 l 581 1243 l 581 1104 z "},"à":{"ha":760,"x_min":43,"x_max":714,"o":"m 660 204 q 672 141 660 161 q 714 111 685 121 l 672 -19 q 566 11 607 -14 q 503 89 525 36 q 282 -22 431 -22 q 108 41 172 -22 q 43 206 43 104 q 131 390 43 326 q 382 454 218 454 l 467 454 l 467 490 q 436 585 467 558 q 335 611 406 611 q 140 572 257 611 l 96 704 q 368 758 233 758 q 589 694 518 758 q 660 501 660 629 l 660 204 m 336 119 q 467 201 419 119 l 467 342 l 401 342 q 242 222 242 342 q 266 147 242 174 q 336 119 290 119 m 279 1149 l 575 971 l 519 869 l 200 997 l 279 1149 z "},"ả":{"ha":760,"x_min":43,"x_max":714,"o":"m 660 204 q 672 141 660 161 q 714 111 685 121 l 672 -19 q 566 11 607 -14 q 503 89 525 36 q 282 -22 431 -22 q 108 41 172 -22 q 43 206 43 104 q 131 390 43 326 q 382 454 218 454 l 467 454 l 467 490 q 436 585 467 558 q 335 611 406 611 q 140 572 257 611 l 96 704 q 368 758 233 758 q 589 694 518 758 q 660 501 660 629 l 660 204 m 336 119 q 467 201 419 119 l 467 342 l 401 342 q 242 222 242 342 q 266 147 242 174 q 336 119 290 119 m 311 979 q 387 994 364 982 q 410 1033 410 1006 q 394 1066 410 1054 q 354 1078 379 1078 q 271 1060 317 1078 l 236 1146 q 382 1182 297 1182 q 506 1144 461 1182 q 550 1044 550 1107 q 519 959 550 992 q 433 917 489 926 l 433 842 l 311 842 l 311 979 z "},"ȃ":{"ha":760,"x_min":43,"x_max":714,"o":"m 660 204 q 672 141 660 161 q 714 111 685 121 l 672 -19 q 566 11 607 -14 q 503 89 525 36 q 282 -22 431 -22 q 108 41 172 -22 q 43 206 43 104 q 131 390 43 326 q 382 454 218 454 l 467 454 l 467 490 q 436 585 467 558 q 335 611 406 611 q 140 572 257 611 l 96 704 q 368 758 233 758 q 589 694 518 758 q 660 501 660 629 l 660 204 m 336 119 q 467 201 419 119 l 467 342 l 401 342 q 242 222 242 342 q 266 147 242 174 q 336 119 290 119 m 372 1086 q 535 1023 472 1086 q 606 860 597 960 l 493 839 q 372 947 464 947 q 253 839 279 947 l 140 860 q 210 1023 149 960 q 372 1086 272 1086 z "},"ɑ":{"ha":831,"x_min":53,"x_max":786,"o":"m 726 235 q 739 161 726 185 q 786 121 751 138 l 728 -22 q 614 19 656 -8 q 553 92 572 46 q 458 8 513 39 q 338 -22 403 -22 q 127 83 201 -22 q 53 368 53 189 q 90 570 53 482 q 195 708 126 658 q 357 758 264 758 q 543 669 469 758 l 554 736 l 726 736 l 726 235 m 388 125 q 465 147 432 125 q 529 215 499 169 l 529 542 q 469 594 500 576 q 399 613 438 613 q 295 553 332 613 q 258 368 258 493 q 292 181 258 236 q 388 125 326 125 z "},"ɒ":{"ha":831,"x_min":44,"x_max":778,"o":"m 493 758 q 703 653 629 758 q 778 368 778 547 q 741 166 778 254 q 635 28 704 78 q 474 -22 567 -22 q 288 67 361 -22 l 276 0 l 104 0 l 104 501 q 92 575 104 551 q 44 615 79 599 l 103 758 q 217 717 175 744 q 278 644 258 690 q 373 728 318 697 q 493 758 428 758 m 432 124 q 535 183 499 124 q 572 368 572 243 q 538 556 572 500 q 443 611 504 611 q 365 589 399 611 q 301 521 332 567 l 301 194 q 362 142 331 160 q 432 124 393 124 z "},"ā":{"ha":760,"x_min":43,"x_max":714,"o":"m 660 204 q 672 141 660 161 q 714 111 685 121 l 672 -19 q 566 11 607 -14 q 503 89 525 36 q 282 -22 431 -22 q 108 41 172 -22 q 43 206 43 104 q 131 390 43 326 q 382 454 218 454 l 467 454 l 467 490 q 436 585 467 558 q 335 611 406 611 q 140 572 257 611 l 96 704 q 368 758 233 758 q 589 694 518 758 q 660 501 660 629 l 660 204 m 336 119 q 467 201 419 119 l 467 342 l 401 342 q 242 222 242 342 q 266 147 242 174 q 336 119 290 119 m 581 914 l 167 914 l 167 1053 l 581 1053 l 581 914 z "},"ą":{"ha":760,"x_min":43,"x_max":714,"o":"m 672 -19 q 506 -165 506 -83 q 581 -229 506 -229 q 665 -219 621 -229 l 651 -346 q 557 -356 600 -356 q 415 -313 469 -356 q 360 -200 360 -271 q 410 -73 360 -125 q 557 17 460 -21 q 503 89 524 42 q 282 -22 431 -22 q 108 41 172 -22 q 43 206 43 104 q 131 390 43 326 q 382 454 218 454 l 467 454 l 467 490 q 436 585 467 558 q 335 611 406 611 q 140 572 257 611 l 96 704 q 368 758 233 758 q 589 694 518 758 q 660 501 660 629 l 660 204 q 672 141 660 161 q 714 111 685 121 l 672 -19 m 336 119 q 467 201 419 119 l 467 342 l 401 342 q 242 222 242 342 q 266 147 242 174 q 336 119 290 119 z "},"å":{"ha":760,"x_min":43,"x_max":714,"o":"m 660 204 q 672 141 660 161 q 714 111 685 121 l 672 -19 q 566 11 607 -14 q 503 89 525 36 q 282 -22 431 -22 q 108 41 172 -22 q 43 206 43 104 q 131 390 43 326 q 382 454 218 454 l 467 454 l 467 490 q 436 585 467 558 q 335 611 406 611 q 140 572 257 611 l 96 704 q 368 758 233 758 q 589 694 518 758 q 660 501 660 629 l 660 204 m 336 119 q 467 201 419 119 l 467 342 l 401 342 q 242 222 242 342 q 266 147 242 174 q 336 119 290 119 m 374 1194 q 507 1144 456 1194 q 558 1021 558 1093 q 507 897 558 947 q 374 846 456 846 q 240 897 292 846 q 189 1021 189 947 q 240 1144 189 1093 q 374 1194 292 1194 m 374 1092 q 326 1073 344 1092 q 308 1021 308 1054 q 326 967 308 986 q 374 949 343 949 q 422 967 404 949 q 439 1021 439 986 q 421 1073 439 1054 q 374 1092 403 1092 z "},"ǻ":{"ha":760,"x_min":43,"x_max":714,"o":"m 561 1275 l 236 1157 l 186 1258 l 486 1425 l 561 1275 m 188 978 q 239 1101 188 1050 q 372 1151 290 1151 q 506 1101 454 1151 q 557 978 557 1050 q 506 853 557 904 q 372 803 454 803 q 239 853 290 803 q 188 978 188 904 m 438 978 q 419 1030 438 1011 q 372 1049 401 1049 q 325 1030 343 1049 q 307 978 307 1011 q 324 924 307 943 q 372 906 342 906 q 420 924 403 906 q 438 978 438 943 m 660 204 q 672 141 660 161 q 714 111 685 121 l 672 -19 q 566 11 607 -14 q 503 89 525 36 q 282 -22 431 -22 q 108 41 172 -22 q 43 206 43 104 q 131 390 43 326 q 382 454 218 454 l 467 454 l 467 490 q 436 585 467 558 q 335 611 406 611 q 140 572 257 611 l 96 704 q 368 758 233 758 q 589 694 518 758 q 660 501 660 629 l 660 204 m 336 119 q 467 201 419 119 l 467 342 l 401 342 q 242 222 242 342 q 266 147 242 174 q 336 119 290 119 z "},"ⱥ":{"ha":760,"x_min":43,"x_max":714,"o":"m 660 204 q 672 141 660 161 q 714 111 685 121 l 672 -19 q 566 11 607 -14 q 503 89 525 36 q 311 -21 438 -11 l 290 -101 l 221 -85 l 238 -19 q 95 55 147 -6 q 43 206 43 115 q 124 379 43 317 q 356 447 204 442 l 400 618 q 356 621 372 621 q 253 610 313 621 q 140 582 194 600 l 96 704 q 368 758 233 758 q 435 754 404 758 l 454 832 l 524 815 l 504 740 q 622 656 585 715 q 660 501 660 596 l 660 204 m 486 500 q 465 585 486 556 l 431 447 l 486 447 l 486 500 m 346 114 q 486 200 429 122 l 486 342 l 403 342 l 346 114 m 228 219 q 275 125 228 150 l 328 336 q 252 297 276 326 q 228 219 228 268 z "},"ã":{"ha":760,"x_min":43,"x_max":714,"o":"m 660 204 q 672 141 660 161 q 714 111 685 121 l 672 -19 q 566 11 607 -14 q 503 89 525 36 q 282 -22 431 -22 q 108 41 172 -22 q 43 206 43 104 q 131 390 43 326 q 382 454 218 454 l 467 454 l 467 490 q 436 585 467 558 q 335 611 406 611 q 140 572 257 611 l 96 704 q 368 758 233 758 q 589 694 518 758 q 660 501 660 629 l 660 204 m 336 119 q 467 201 419 119 l 467 342 l 401 342 q 242 222 242 342 q 266 147 242 174 q 336 119 290 119 m 454 889 q 403 899 425 889 q 353 926 382 908 q 322 947 335 940 q 294 953 308 953 q 256 938 272 953 q 221 890 239 922 l 119 940 q 192 1051 147 1008 q 292 1094 236 1094 q 346 1084 324 1094 q 396 1056 368 1074 q 426 1037 414 1043 q 453 1031 439 1031 q 491 1045 475 1031 q 526 1092 507 1060 l 628 1042 q 556 930 600 971 q 454 889 511 889 z "},"ɐ":{"ha":760,"x_min":46,"x_max":717,"o":"m 425 125 q 619 164 503 125 l 664 32 q 392 -22 526 -22 q 171 42 242 -22 q 100 235 100 107 l 100 532 q 88 595 100 575 q 46 625 75 615 l 88 756 q 194 725 153 750 q 257 647 235 700 q 478 758 329 758 q 652 695 588 758 q 717 531 717 632 q 629 346 717 410 q 378 282 542 282 l 293 282 l 293 246 q 324 151 293 178 q 425 125 354 125 m 424 617 q 293 535 340 617 l 293 394 l 358 394 q 518 514 518 394 q 494 590 518 563 q 424 617 469 617 z "},"æ":{"ha":1186,"x_min":43,"x_max":1140,"o":"m 1140 385 q 1136 308 1140 371 l 676 308 q 731 167 686 208 q 851 125 775 125 q 940 140 899 125 q 1031 189 982 156 l 1113 78 q 833 -22 989 -22 q 667 11 739 -22 q 549 106 594 44 q 435 7 500 36 q 286 -22 369 -22 q 108 41 174 -22 q 43 206 43 104 q 133 390 43 326 q 389 454 222 454 l 474 454 l 474 489 q 444 583 474 557 q 343 610 414 610 q 149 571 263 610 l 103 704 q 375 758 240 758 q 599 661 529 758 q 822 758 685 758 q 990 714 918 758 q 1101 585 1063 669 q 1140 385 1140 500 m 946 440 q 813 624 943 624 q 717 578 751 624 q 676 432 683 533 l 946 432 l 946 440 m 346 119 q 426 144 390 119 q 493 219 461 169 q 476 333 479 271 l 476 338 l 411 338 q 291 309 331 338 q 251 219 251 281 q 276 146 251 172 q 346 119 300 119 z "},"ǽ":{"ha":1186,"x_min":43,"x_max":1140,"o":"m 1140 385 q 1136 308 1140 371 l 676 308 q 731 167 686 208 q 851 125 775 125 q 940 140 899 125 q 1031 189 982 156 l 1113 78 q 833 -22 989 -22 q 667 11 739 -22 q 549 106 594 44 q 435 7 500 36 q 286 -22 369 -22 q 108 41 174 -22 q 43 206 43 104 q 133 390 43 326 q 389 454 222 454 l 474 454 l 474 489 q 444 583 474 557 q 343 610 414 610 q 149 571 263 610 l 103 704 q 375 758 240 758 q 599 661 529 758 q 822 758 685 758 q 990 714 918 758 q 1101 585 1063 669 q 1140 385 1140 500 m 946 440 q 813 624 943 624 q 717 578 751 624 q 676 432 683 533 l 946 432 l 946 440 m 346 119 q 426 144 390 119 q 493 219 461 169 q 476 333 479 271 l 476 338 l 411 338 q 291 309 331 338 q 251 219 251 281 q 276 146 251 172 q 346 119 300 119 m 697 1149 l 775 997 l 456 869 l 400 971 l 697 1149 z "},"ǣ":{"ha":1186,"x_min":43,"x_max":1140,"o":"m 1140 385 q 1136 308 1140 371 l 676 308 q 731 167 686 208 q 851 125 775 125 q 940 140 899 125 q 1031 189 982 156 l 1113 78 q 833 -22 989 -22 q 667 11 739 -22 q 549 106 594 44 q 435 7 500 36 q 286 -22 369 -22 q 108 41 174 -22 q 43 206 43 104 q 133 390 43 326 q 389 454 222 454 l 474 454 l 474 489 q 444 583 474 557 q 343 610 414 610 q 149 571 263 610 l 103 704 q 375 758 240 758 q 599 661 529 758 q 822 758 685 758 q 990 714 918 758 q 1101 585 1063 669 q 1140 385 1140 500 m 946 440 q 813 624 943 624 q 717 578 751 624 q 676 432 683 533 l 946 432 l 946 440 m 346 119 q 426 144 390 119 q 493 219 461 169 q 476 333 479 271 l 476 338 l 411 338 q 291 309 331 338 q 251 219 251 281 q 276 146 251 172 q 346 119 300 119 m 801 914 l 388 914 l 388 1053 l 801 1053 l 801 914 z "},"b":{"ha":828,"x_min":97,"x_max":768,"o":"m 496 758 q 697 656 625 758 q 768 368 768 553 q 733 166 768 254 q 631 28 697 78 q 476 -22 565 -22 q 283 72 356 -22 l 272 0 l 97 0 l 97 1029 l 294 1051 l 294 657 q 382 731 329 704 q 496 758 435 758 m 421 124 q 563 368 563 124 q 528 558 563 503 q 431 613 494 613 q 294 518 351 613 l 294 203 q 421 124 343 124 z "},"ḃ":{"ha":828,"x_min":97,"x_max":768,"o":"m 496 758 q 697 656 625 758 q 768 368 768 553 q 733 166 768 254 q 631 28 697 78 q 476 -22 565 -22 q 283 72 356 -22 l 272 0 l 97 0 l 97 1029 l 294 1051 l 294 657 q 382 731 329 704 q 496 758 435 758 m 421 124 q 563 368 563 124 q 528 558 563 503 q 431 613 494 613 q 294 518 351 613 l 294 203 q 421 124 343 124 m 439 1358 q 526 1326 492 1358 q 560 1243 560 1293 q 526 1160 560 1193 q 439 1128 492 1128 q 353 1160 386 1128 q 319 1243 319 1193 q 353 1326 319 1293 q 439 1358 386 1358 z "},"ḅ":{"ha":828,"x_min":97,"x_max":768,"o":"m 496 758 q 697 656 625 758 q 768 368 768 553 q 733 166 768 254 q 631 28 697 78 q 476 -22 565 -22 q 283 72 356 -22 l 272 0 l 97 0 l 97 1029 l 294 1051 l 294 657 q 382 731 329 704 q 496 758 435 758 m 421 124 q 563 368 563 124 q 528 558 563 503 q 431 613 494 613 q 294 518 351 613 l 294 203 q 421 124 343 124 m 428 -319 q 341 -287 375 -319 q 307 -204 307 -254 q 341 -122 307 -154 q 428 -89 375 -89 q 514 -122 481 -89 q 547 -204 547 -154 q 514 -287 547 -254 q 428 -319 481 -319 z "},"ꞵ":{"ha":842,"x_min":97,"x_max":799,"o":"m 526 563 q 719 489 640 550 q 799 286 799 428 q 758 126 799 196 q 646 17 717 56 q 488 -22 575 -22 q 289 42 382 -22 l 289 -279 l 97 -306 l 97 757 q 184 973 97 894 q 414 1051 271 1051 q 576 1018 506 1051 q 684 926 646 985 q 722 790 722 867 q 671 640 722 699 q 526 563 619 582 m 442 131 q 556 174 513 131 q 600 300 600 217 q 407 485 600 485 l 349 485 l 363 621 l 404 621 q 497 660 463 621 q 532 774 532 699 q 500 876 532 842 q 411 910 468 910 q 289 758 289 910 l 289 171 q 442 131 350 131 z "},"ɓ":{"ha":828,"x_min":97,"x_max":768,"o":"m 492 758 q 697 656 625 758 q 768 368 768 553 q 733 166 768 254 q 631 28 697 78 q 476 -22 565 -22 q 283 72 356 -22 l 272 0 l 97 0 l 97 810 q 167 984 97 917 q 367 1051 238 1051 q 561 1007 469 1051 l 507 876 q 388 904 447 904 q 316 881 338 904 q 294 804 294 857 l 294 657 q 381 731 328 704 q 492 758 433 758 m 422 124 q 525 182 488 124 q 563 368 563 240 q 528 558 563 503 q 431 613 494 613 q 354 588 389 613 q 294 518 319 563 l 294 203 q 351 144 318 165 q 422 124 383 124 z "},"ʭ":{"ha":499,"x_min":42,"x_max":457,"o":"m 42 556 l 42 779 l 457 779 l 457 556 l 336 556 l 336 674 l 163 674 l 163 556 l 42 556 m 42 0 l 42 224 l 457 224 l 457 0 l 336 0 l 336 118 l 163 118 l 163 0 l 42 0 z "},"ʘ":{"ha":1106,"x_min":53,"x_max":1053,"o":"m 553 983 q 813 923 700 983 q 990 749 926 863 q 1053 482 1053 635 q 990 217 1053 332 q 813 40 926 103 q 553 -22 700 -22 q 292 39 406 -22 q 116 214 179 100 q 53 481 53 328 q 116 743 53 629 q 293 920 179 857 q 553 983 407 983 m 553 843 q 327 753 408 843 q 246 481 246 663 q 328 208 246 297 q 553 119 410 119 q 779 208 699 119 q 860 482 860 297 q 777 753 860 663 q 553 843 694 843 m 556 586 q 634 556 603 586 q 665 482 665 526 q 634 408 665 438 q 556 378 603 378 q 478 408 508 378 q 447 482 447 438 q 478 556 447 526 q 556 586 508 586 z "},"ʬ":{"ha":650,"x_min":42,"x_max":608,"o":"m 608 926 l 522 556 l 383 556 l 329 825 l 272 556 l 133 556 l 42 926 l 154 926 l 208 642 l 269 926 l 394 926 l 451 640 l 504 926 l 608 926 m 608 371 l 522 0 l 383 0 l 329 269 l 272 0 l 133 0 l 42 371 l 154 371 l 208 86 l 269 371 l 394 371 l 451 85 l 504 371 l 608 371 z "},"ƀ":{"ha":839,"x_min":17,"x_max":779,"o":"m 507 758 q 708 656 636 758 q 779 368 779 553 q 744 166 779 254 q 642 28 708 78 q 488 -22 576 -22 q 294 72 367 -22 l 283 0 l 108 0 l 108 831 l 17 831 l 17 951 l 108 951 l 108 1029 l 306 1051 l 306 951 l 494 951 l 494 831 l 306 831 l 306 657 q 393 731 340 704 q 507 758 446 758 m 432 124 q 574 368 574 124 q 540 558 574 503 q 442 613 506 613 q 306 518 363 613 l 306 203 q 432 124 354 124 z "},"ƃ":{"ha":828,"x_min":97,"x_max":768,"o":"m 492 746 q 696 644 624 746 q 768 361 768 543 q 733 163 768 250 q 631 27 697 76 q 476 -22 565 -22 q 283 72 356 -22 l 272 0 l 97 0 l 97 1029 l 599 1029 l 578 888 l 294 888 l 294 644 q 381 719 328 692 q 492 746 433 746 m 422 124 q 525 181 488 124 q 563 361 563 238 q 528 546 563 493 q 431 599 494 599 q 294 506 349 599 l 294 203 q 351 144 318 165 q 422 124 383 124 z "},"c":{"ha":664,"x_min":53,"x_max":649,"o":"m 404 758 q 537 737 478 758 q 649 669 596 715 l 563 553 q 492 593 526 581 q 418 606 458 606 q 261 364 261 606 q 301 189 261 242 q 417 136 342 136 q 488 148 456 136 q 563 188 519 160 l 649 64 q 407 -22 543 -22 q 219 25 299 -22 q 96 159 139 72 q 53 363 53 246 q 96 569 53 479 q 219 708 139 658 q 404 758 299 758 z "},"ć":{"ha":664,"x_min":53,"x_max":649,"o":"m 404 758 q 537 737 478 758 q 649 669 596 715 l 563 553 q 492 593 526 581 q 418 606 458 606 q 261 364 261 606 q 301 189 261 242 q 417 136 342 136 q 488 148 456 136 q 563 188 519 160 l 649 64 q 407 -22 543 -22 q 219 25 299 -22 q 96 159 139 72 q 53 363 53 246 q 96 569 53 479 q 219 708 139 658 q 404 758 299 758 m 506 1149 l 583 997 l 264 869 l 208 971 l 506 1149 z "},"č":{"ha":664,"x_min":53,"x_max":658,"o":"m 404 758 q 537 737 478 758 q 649 669 596 715 l 563 553 q 492 593 526 581 q 418 606 458 606 q 261 364 261 606 q 301 189 261 242 q 417 136 342 136 q 488 148 456 136 q 563 188 519 160 l 649 64 q 407 -22 543 -22 q 219 25 299 -22 q 96 159 139 72 q 53 363 53 246 q 96 569 53 479 q 219 708 139 658 q 404 758 299 758 m 586 1119 l 658 1036 l 464 854 l 342 854 l 147 1036 l 221 1119 l 403 996 l 586 1119 z "},"ç":{"ha":664,"x_min":53,"x_max":649,"o":"m 649 64 q 444 -21 556 -11 l 444 -69 q 550 -112 515 -76 q 585 -203 585 -147 q 530 -315 585 -272 q 386 -357 475 -357 q 302 -346 340 -357 q 238 -317 264 -335 l 283 -222 q 372 -246 326 -246 q 439 -201 439 -246 q 409 -163 439 -175 q 311 -151 379 -151 l 329 -15 q 126 108 199 8 q 53 363 53 208 q 96 569 53 479 q 219 708 139 658 q 404 758 299 758 q 537 737 478 758 q 649 669 596 715 l 563 553 q 492 593 526 581 q 418 606 458 606 q 261 364 261 606 q 301 189 261 242 q 417 136 342 136 q 488 148 456 136 q 563 188 519 160 l 649 64 z "},"ĉ":{"ha":664,"x_min":53,"x_max":658,"o":"m 404 758 q 537 737 478 758 q 649 669 596 715 l 563 553 q 492 593 526 581 q 418 606 458 606 q 261 364 261 606 q 301 189 261 242 q 417 136 342 136 q 488 148 456 136 q 563 188 519 160 l 649 64 q 407 -22 543 -22 q 219 25 299 -22 q 96 159 139 72 q 53 363 53 246 q 96 569 53 479 q 219 708 139 658 q 404 758 299 758 m 219 867 l 147 950 l 342 1132 l 464 1132 l 658 950 l 585 867 l 403 990 l 219 867 z "},"ɕ":{"ha":692,"x_min":53,"x_max":676,"o":"m 503 347 q 628 303 579 347 q 676 185 676 260 q 603 31 676 85 q 417 -22 531 -22 q 318 -11 360 -22 l 272 -114 l 171 -74 l 218 28 q 96 160 139 74 q 53 363 53 247 q 96 569 53 479 q 219 708 139 658 q 404 758 299 758 q 537 737 478 758 q 649 669 596 715 l 563 551 q 492 592 526 579 q 418 606 458 606 q 261 364 261 606 q 297 190 261 249 q 379 310 331 272 q 503 347 428 347 m 440 124 q 533 189 533 124 q 486 235 533 235 q 431 213 454 235 q 381 132 408 190 q 440 124 410 124 z "},"ċ":{"ha":664,"x_min":53,"x_max":649,"o":"m 404 758 q 537 737 478 758 q 649 669 596 715 l 563 553 q 492 593 526 581 q 418 606 458 606 q 261 364 261 606 q 301 189 261 242 q 417 136 342 136 q 488 148 456 136 q 563 188 519 160 l 649 64 q 407 -22 543 -22 q 219 25 299 -22 q 96 159 139 72 q 53 363 53 246 q 96 569 53 479 q 219 708 139 658 q 404 758 299 758 m 401 1115 q 488 1083 454 1115 q 522 1000 522 1050 q 488 917 522 950 q 401 885 454 885 q 315 917 349 885 q 282 1000 282 950 q 315 1083 282 1050 q 401 1115 349 1115 z "},"ƈ":{"ha":664,"x_min":53,"x_max":882,"o":"m 701 1051 q 882 999 803 1051 l 821 875 q 774 897 794 890 q 725 904 753 904 q 649 814 649 904 l 649 669 l 575 568 q 421 606 503 606 q 261 364 261 606 q 301 189 261 242 q 417 136 342 136 q 488 148 456 136 q 563 188 519 160 l 649 64 q 407 -22 543 -22 q 219 25 299 -22 q 96 159 139 72 q 53 363 53 246 q 95 568 53 478 q 213 708 138 658 q 385 758 288 758 q 471 746 433 758 l 471 819 q 530 992 471 932 q 701 1051 589 1051 z "},"ʗ":{"ha":681,"x_min":68,"x_max":665,"o":"m 436 758 q 665 669 567 758 l 582 556 q 514 593 547 581 q 444 606 481 606 q 319 515 361 606 q 276 224 276 425 q 318 -60 276 25 q 438 -146 360 -146 q 507 -134 475 -146 q 578 -94 539 -122 l 665 -218 q 432 -304 560 -304 q 163 -169 257 -304 q 68 221 68 -33 q 165 617 68 476 q 436 758 261 758 z "},"ȼ":{"ha":664,"x_min":53,"x_max":649,"o":"m 417 136 q 488 148 456 136 q 563 188 519 160 l 649 64 q 407 -22 543 -22 q 335 -17 367 -22 l 313 -101 l 239 -83 l 263 4 q 108 136 163 43 q 53 363 53 229 q 96 569 53 479 q 219 708 139 658 q 404 758 299 758 q 465 754 436 758 l 486 832 l 558 814 l 538 736 q 649 669 596 714 l 563 553 q 499 590 528 578 l 378 140 q 417 136 397 136 m 261 364 q 310 179 261 235 l 425 606 l 418 606 q 261 364 261 606 z "},"d":{"ha":832,"x_min":60,"x_max":735,"o":"m 735 1029 l 735 0 l 561 0 l 550 90 q 339 -22 472 -22 q 131 83 203 -22 q 60 368 60 188 q 97 570 60 482 q 201 708 133 658 q 358 758 269 758 q 538 685 461 758 l 538 1051 l 735 1029 m 397 125 q 474 147 440 125 q 538 214 507 168 l 538 543 q 478 595 508 578 q 410 613 449 613 q 303 553 342 613 q 265 368 265 493 q 299 181 265 236 q 397 125 333 125 z "},"ð":{"ha":801,"x_min":53,"x_max":740,"o":"m 490 928 q 683 699 626 832 q 740 381 740 567 q 699 174 740 265 q 578 30 657 82 q 392 -22 499 -22 q 219 19 296 -22 q 97 140 142 61 q 53 325 53 218 q 89 494 53 417 q 190 618 125 572 q 339 664 256 664 q 443 646 397 664 q 528 593 489 628 q 475 716 510 663 q 381 817 440 769 l 299 735 l 172 794 l 257 883 q 124 918 200 903 l 163 1050 q 365 994 278 1029 l 467 1101 l 571 1011 l 490 928 m 393 124 q 503 183 465 124 q 540 358 540 242 l 539 454 q 389 524 481 524 q 254 329 254 524 q 291 175 254 226 q 393 124 328 124 z "},"ȸ":{"ha":1214,"x_min":60,"x_max":1154,"o":"m 900 758 q 1086 655 1018 758 q 1154 368 1154 551 q 1119 167 1154 256 q 1022 28 1085 78 q 875 -22 958 -22 q 774 7 819 -22 q 697 88 728 36 l 685 0 l 533 0 l 521 89 q 435 8 485 39 q 325 -22 385 -22 q 129 83 199 -22 q 60 368 60 189 q 95 569 60 481 q 194 708 131 658 q 339 758 257 758 q 432 735 388 758 q 510 667 476 711 l 510 1029 l 707 1051 l 707 656 q 900 758 781 758 m 385 125 q 510 214 453 125 l 510 533 q 390 613 456 613 q 299 552 333 613 q 265 368 265 492 q 385 125 265 125 m 826 124 q 914 183 879 124 q 949 368 949 243 q 917 558 949 503 q 833 613 886 613 q 764 590 794 613 q 707 526 733 567 l 707 218 q 760 147 733 171 q 826 124 788 124 z "},"ď":{"ha":924,"x_min":60,"x_max":974,"o":"m 735 1029 l 735 0 l 561 0 l 550 90 q 339 -22 472 -22 q 131 83 203 -22 q 60 368 60 188 q 97 570 60 482 q 201 708 133 658 q 358 758 269 758 q 538 685 461 758 l 538 1051 l 735 1029 m 397 125 q 474 147 440 125 q 538 214 507 168 l 538 543 q 478 595 508 578 q 410 613 449 613 q 303 553 342 613 q 265 368 265 493 q 299 181 265 236 q 397 125 333 125 m 899 740 l 974 1029 l 821 1050 l 790 757 l 899 740 z "},"ḓ":{"ha":832,"x_min":60,"x_max":735,"o":"m 735 1029 l 735 0 l 561 0 l 550 90 q 339 -22 472 -22 q 131 83 203 -22 q 60 368 60 188 q 97 570 60 482 q 201 708 133 658 q 358 758 269 758 q 538 685 461 758 l 538 1051 l 735 1029 m 397 125 q 474 147 440 125 q 538 214 507 168 l 538 543 q 478 595 508 578 q 410 613 449 613 q 303 553 342 613 q 265 368 265 493 q 299 181 265 236 q 397 125 333 125 m 244 -354 l 172 -271 l 367 -89 l 489 -89 l 683 -271 l 610 -354 l 428 -231 l 244 -354 z "},"đ":{"ha":843,"x_min":60,"x_max":828,"o":"m 828 951 l 828 831 l 735 831 l 735 0 l 561 0 l 550 90 q 339 -22 472 -22 q 131 83 203 -22 q 60 368 60 188 q 97 570 60 482 q 201 708 133 658 q 358 758 269 758 q 538 685 461 758 l 538 831 l 340 831 l 340 951 l 538 951 l 538 1051 l 735 1029 l 735 951 l 828 951 m 397 125 q 474 147 440 125 q 538 214 507 168 l 538 543 q 478 595 508 578 q 410 613 449 613 q 303 553 342 613 q 265 368 265 493 q 299 181 265 236 q 397 125 333 125 z "},"ȡ":{"ha":1078,"x_min":60,"x_max":1093,"o":"m 929 333 q 1047 292 1000 333 q 1093 179 1093 250 q 1021 30 1093 82 q 833 -22 949 -22 q 761 -17 793 -22 l 717 -114 l 614 -74 l 658 19 q 568 115 597 56 q 339 -22 483 -22 q 131 83 203 -22 q 60 368 60 188 q 97 570 60 482 q 201 708 133 658 q 361 758 269 758 q 458 738 413 758 q 538 685 503 718 l 538 1051 l 735 1029 l 735 247 q 740 186 735 208 q 819 298 775 263 q 929 333 863 333 m 399 125 q 475 148 442 125 q 539 217 508 171 q 538 254 538 228 l 538 543 q 479 595 508 578 q 411 613 450 613 q 304 553 343 613 q 265 368 265 493 q 299 181 265 236 q 399 125 333 125 m 858 124 q 950 181 950 124 q 940 210 950 200 q 910 221 929 221 q 866 201 885 221 q 822 125 847 181 q 858 124 833 124 z "},"ḋ":{"ha":832,"x_min":60,"x_max":735,"o":"m 735 1029 l 735 0 l 561 0 l 550 90 q 339 -22 472 -22 q 131 83 203 -22 q 60 368 60 188 q 97 570 60 482 q 201 708 133 658 q 358 758 269 758 q 538 685 461 758 l 538 1051 l 735 1029 m 397 125 q 474 147 440 125 q 538 214 507 168 l 538 543 q 478 595 508 578 q 410 613 449 613 q 303 553 342 613 q 265 368 265 493 q 299 181 265 236 q 397 125 333 125 m 414 1358 q 501 1326 467 1358 q 535 1243 535 1293 q 501 1160 535 1193 q 414 1128 467 1128 q 328 1160 361 1128 q 294 1243 294 1193 q 328 1326 294 1293 q 414 1358 361 1358 z "},"ḍ":{"ha":832,"x_min":60,"x_max":735,"o":"m 735 1029 l 735 0 l 561 0 l 550 90 q 339 -22 472 -22 q 131 83 203 -22 q 60 368 60 188 q 97 570 60 482 q 201 708 133 658 q 358 758 269 758 q 538 685 461 758 l 538 1051 l 735 1029 m 397 125 q 474 147 440 125 q 538 214 507 168 l 538 543 q 478 595 508 578 q 410 613 449 613 q 303 553 342 613 q 265 368 265 493 q 299 181 265 236 q 397 125 333 125 m 428 -319 q 341 -287 375 -319 q 307 -204 307 -254 q 341 -122 307 -154 q 428 -89 375 -89 q 514 -122 481 -89 q 547 -204 547 -154 q 514 -287 547 -254 q 428 -319 481 -319 z "},"ƍ":{"ha":803,"x_min":53,"x_max":749,"o":"m 538 99 q 644 10 615 56 q 674 -97 674 -35 q 601 -247 674 -187 q 389 -307 528 -307 q 128 -225 236 -307 l 219 -118 q 294 -155 258 -143 q 374 -167 331 -167 q 456 -147 431 -167 q 482 -93 482 -126 q 472 -50 482 -67 q 431 -15 461 -33 q 336 29 400 3 q 120 173 188 90 q 53 394 53 256 q 95 583 53 500 q 217 712 138 665 q 401 758 296 758 q 656 663 563 758 q 749 401 749 568 q 694 224 749 300 q 538 99 640 147 m 258 393 q 273 284 258 325 q 324 212 288 243 q 433 147 361 181 q 519 252 493 193 q 544 396 544 311 q 510 558 544 504 q 403 611 475 611 q 258 393 258 611 z "},"ʤ":{"ha":1393,"x_min":60,"x_max":1364,"o":"m 1056 293 q 1285 216 1206 286 q 1364 13 1364 146 q 1320 -152 1364 -81 q 1194 -265 1276 -224 q 1000 -306 1111 -306 q 682 -167 800 -306 l 788 -65 q 884 -132 838 -111 q 990 -153 931 -153 q 1115 -108 1069 -153 q 1160 24 1160 -64 q 1115 138 1160 103 q 975 172 1069 172 l 850 172 l 850 292 l 1099 586 l 735 586 l 735 0 l 561 0 l 550 90 q 339 -22 472 -22 q 131 83 203 -22 q 60 368 60 188 q 97 570 60 482 q 201 708 133 658 q 358 758 269 758 q 538 685 461 758 l 538 1051 l 735 1029 l 735 736 l 1322 736 l 1322 599 l 1056 293 m 397 125 q 474 147 440 125 q 538 214 507 168 l 538 543 q 478 595 508 578 q 410 613 449 613 q 303 553 342 613 q 265 368 265 493 q 299 181 265 236 q 397 125 333 125 z "},"ɗ":{"ha":832,"x_min":60,"x_max":967,"o":"m 786 1051 q 967 999 890 1051 l 907 875 q 859 897 881 890 q 811 904 838 904 q 735 814 735 904 l 735 0 l 561 0 l 550 90 q 339 -22 472 -22 q 131 83 203 -22 q 60 368 60 188 q 97 570 60 482 q 201 708 133 658 q 361 758 269 758 q 458 738 413 758 q 538 685 503 718 l 538 806 q 602 985 538 919 q 786 1051 667 1051 m 399 125 q 475 147 442 125 q 538 214 508 169 l 538 543 q 479 595 508 578 q 411 613 450 613 q 304 553 343 613 q 265 368 265 493 q 299 181 265 236 q 399 125 333 125 z "},"ḏ":{"ha":832,"x_min":60,"x_max":735,"o":"m 735 1029 l 735 0 l 561 0 l 550 90 q 339 -22 472 -22 q 131 83 203 -22 q 60 368 60 188 q 97 570 60 482 q 201 708 133 658 q 358 758 269 758 q 538 685 461 758 l 538 1051 l 735 1029 m 397 125 q 474 147 440 125 q 538 214 507 168 l 538 543 q 478 595 508 578 q 410 613 449 613 q 303 553 342 613 q 265 368 265 493 q 299 181 265 236 q 397 125 333 125 m 635 -260 l 221 -260 l 221 -121 l 635 -121 l 635 -260 z "},"ɖ":{"ha":832,"x_min":60,"x_max":983,"o":"m 983 -247 q 794 -306 907 -306 q 607 -240 676 -306 q 538 -53 538 -175 l 538 74 q 339 -22 461 -22 q 131 83 203 -22 q 60 368 60 188 q 97 570 60 482 q 201 708 133 658 q 361 758 269 758 q 458 738 413 758 q 538 685 503 718 l 538 1051 l 735 1029 l 735 -69 q 815 -158 735 -158 q 865 -152 844 -158 q 915 -131 885 -146 l 983 -247 m 399 125 q 475 147 442 125 q 538 214 508 169 l 538 543 q 479 595 508 578 q 411 613 450 613 q 304 553 343 613 q 265 368 265 493 q 299 181 265 236 q 399 125 333 125 z "},"ƌ":{"ha":832,"x_min":60,"x_max":735,"o":"m 735 0 l 561 0 l 550 90 q 339 -22 472 -22 q 132 82 204 -22 q 60 363 60 186 q 97 560 60 472 q 201 697 133 647 q 361 746 269 746 q 458 726 413 746 q 538 671 503 706 l 538 888 l 244 888 l 244 1029 l 735 1029 l 735 0 m 399 125 q 475 147 442 125 q 538 214 508 169 l 538 531 q 479 583 508 565 q 411 600 450 600 q 304 541 343 600 q 265 363 265 482 q 300 180 265 235 q 399 125 335 125 z "},"ǳ":{"ha":1463,"x_min":60,"x_max":1433,"o":"m 735 1029 l 735 0 l 561 0 l 550 90 q 339 -22 472 -22 q 131 83 203 -22 q 60 368 60 188 q 97 570 60 482 q 201 708 133 658 q 358 758 269 758 q 538 685 461 758 l 538 1051 l 735 1029 m 397 125 q 474 147 440 125 q 538 214 507 168 l 538 543 q 478 595 508 578 q 410 613 449 613 q 303 553 342 613 q 265 368 265 493 q 299 181 265 236 q 397 125 333 125 m 1426 736 l 1426 596 l 1081 153 l 1433 153 l 1414 0 l 854 0 l 854 142 l 1200 585 l 883 585 l 883 736 l 1426 736 z "},"ʣ":{"ha":1340,"x_min":60,"x_max":1313,"o":"m 1313 153 l 1293 0 l 561 0 l 550 90 q 339 -22 472 -22 q 131 83 203 -22 q 60 368 60 188 q 97 570 60 482 q 201 708 133 658 q 358 758 269 758 q 538 685 461 758 l 538 1051 l 735 1029 l 735 736 l 1306 736 l 1306 596 l 950 153 l 1313 153 m 397 125 q 474 147 440 125 q 538 214 507 168 l 538 543 q 478 595 508 578 q 410 613 449 613 q 303 553 342 613 q 265 368 265 493 q 299 181 265 236 q 397 125 333 125 m 735 585 l 735 139 l 1089 585 l 735 585 z "},"ǆ":{"ha":1463,"x_min":60,"x_max":1433,"o":"m 735 1029 l 735 0 l 561 0 l 550 90 q 339 -22 472 -22 q 131 83 203 -22 q 60 368 60 188 q 97 570 60 482 q 201 708 133 658 q 358 758 269 758 q 538 685 461 758 l 538 1051 l 735 1029 m 397 125 q 474 147 440 125 q 538 214 507 168 l 538 543 q 478 595 508 578 q 410 613 449 613 q 303 553 342 613 q 265 368 265 493 q 299 181 265 236 q 397 125 333 125 m 1426 736 l 1426 596 l 1081 153 l 1433 153 l 1414 0 l 854 0 l 854 142 l 1200 585 l 883 585 l 883 736 l 1426 736 m 1333 1119 l 1406 1036 l 1211 854 l 1089 854 l 894 1036 l 968 1119 l 1150 996 l 1333 1119 z "},"ʥ":{"ha":1435,"x_min":60,"x_max":1458,"o":"m 1458 196 q 1176 0 1458 1 q 1168 -176 1168 -53 l 1050 -176 q 1057 0 1050 -67 l 561 0 l 550 90 q 339 -22 472 -22 q 131 83 203 -22 q 60 368 60 188 q 97 570 60 482 q 201 708 133 658 q 358 758 269 758 q 538 685 461 758 l 538 1051 l 735 1029 l 735 736 l 1304 736 l 1304 601 l 946 153 l 1081 153 q 1293 351 1126 351 q 1413 310 1367 351 q 1458 196 1458 269 m 397 125 q 474 147 440 125 q 538 214 507 168 l 538 543 q 478 595 508 578 q 410 613 449 613 q 303 553 342 613 q 265 368 265 493 q 299 181 265 236 q 397 125 333 125 m 735 585 l 735 146 l 1085 585 l 735 585 m 1199 153 q 1291 164 1264 153 q 1318 204 1318 175 q 1308 234 1318 224 q 1279 244 1297 244 q 1199 153 1219 244 z "},"e":{"ha":765,"x_min":53,"x_max":719,"o":"m 719 385 q 715 308 719 371 l 256 308 q 310 167 265 208 q 431 125 354 125 q 519 140 478 125 q 610 189 561 156 l 692 78 q 413 -22 568 -22 q 146 82 239 -22 q 53 364 53 186 q 92 566 53 476 q 208 707 132 656 q 388 758 283 758 q 632 660 544 758 q 719 385 719 561 m 524 440 q 392 624 524 624 q 297 578 331 624 q 256 432 263 533 l 524 432 l 524 440 z "},"é":{"ha":765,"x_min":53,"x_max":719,"o":"m 719 385 q 715 308 719 371 l 256 308 q 310 167 265 208 q 431 125 354 125 q 519 140 478 125 q 610 189 561 156 l 692 78 q 413 -22 568 -22 q 146 82 239 -22 q 53 364 53 186 q 92 566 53 476 q 208 707 132 656 q 388 758 283 758 q 632 660 544 758 q 719 385 719 561 m 524 440 q 392 624 524 624 q 297 578 331 624 q 256 432 263 533 l 524 432 l 524 440 m 494 1149 l 572 997 l 253 869 l 197 971 l 494 1149 z "},"ĕ":{"ha":765,"x_min":53,"x_max":719,"o":"m 719 385 q 715 308 719 371 l 256 308 q 310 167 265 208 q 431 125 354 125 q 519 140 478 125 q 610 189 561 156 l 692 78 q 413 -22 568 -22 q 146 82 239 -22 q 53 364 53 186 q 92 566 53 476 q 208 707 132 656 q 388 758 283 758 q 632 660 544 758 q 719 385 719 561 m 524 440 q 392 624 524 624 q 297 578 331 624 q 256 432 263 533 l 524 432 l 524 440 m 390 882 q 228 945 290 882 q 158 1108 167 1008 l 271 1129 q 390 1021 297 1021 q 511 1129 482 1021 l 624 1108 q 553 945 615 1008 q 390 882 490 882 z "},"ě":{"ha":765,"x_min":53,"x_max":719,"o":"m 719 385 q 715 308 719 371 l 256 308 q 310 167 265 208 q 431 125 354 125 q 519 140 478 125 q 610 189 561 156 l 692 78 q 413 -22 568 -22 q 146 82 239 -22 q 53 364 53 186 q 92 566 53 476 q 208 707 132 656 q 388 758 283 758 q 632 660 544 758 q 719 385 719 561 m 524 440 q 392 624 524 624 q 297 578 331 624 q 256 432 263 533 l 524 432 l 524 440 m 575 1119 l 647 1036 l 453 854 l 331 854 l 136 1036 l 210 1119 l 392 996 l 575 1119 z "},"ȩ":{"ha":765,"x_min":53,"x_max":719,"o":"m 719 385 q 715 308 719 371 l 256 308 q 310 167 265 208 q 431 125 354 125 q 519 140 478 125 q 610 189 561 156 l 692 78 q 461 -19 589 -6 l 461 -69 q 567 -112 532 -76 q 601 -203 601 -147 q 547 -315 601 -272 q 403 -357 492 -357 q 319 -346 357 -357 q 254 -317 281 -335 l 300 -222 q 389 -246 343 -246 q 456 -201 456 -246 q 426 -163 456 -175 q 328 -151 396 -151 l 344 -18 q 128 104 203 3 q 53 364 53 206 q 92 566 53 476 q 208 707 132 656 q 388 758 283 758 q 632 660 544 758 q 719 385 719 561 m 524 440 q 392 624 524 624 q 297 578 331 624 q 256 432 263 533 l 524 432 l 524 440 z "},"ê":{"ha":765,"x_min":53,"x_max":719,"o":"m 719 385 q 715 308 719 371 l 256 308 q 310 167 265 208 q 431 125 354 125 q 519 140 478 125 q 610 189 561 156 l 692 78 q 413 -22 568 -22 q 146 82 239 -22 q 53 364 53 186 q 92 566 53 476 q 208 707 132 656 q 388 758 283 758 q 632 660 544 758 q 719 385 719 561 m 524 440 q 392 624 524 624 q 297 578 331 624 q 256 432 263 533 l 524 432 l 524 440 m 208 867 l 136 950 l 331 1132 l 453 1132 l 647 950 l 574 867 l 392 990 l 208 867 z "},"ế":{"ha":765,"x_min":53,"x_max":815,"o":"m 719 385 q 715 308 719 371 l 256 308 q 310 167 265 208 q 431 125 354 125 q 519 140 478 125 q 610 189 561 156 l 692 78 q 413 -22 568 -22 q 146 82 239 -22 q 53 364 53 186 q 92 566 53 476 q 208 707 132 656 q 388 758 283 758 q 632 660 544 758 q 719 385 719 561 m 524 440 q 392 624 524 624 q 297 578 331 624 q 256 432 263 533 l 524 432 l 524 440 m 206 814 l 132 897 l 326 1069 l 449 1069 l 643 897 l 571 814 l 388 929 l 206 814 m 706 1307 l 815 1201 l 604 1011 l 528 1079 l 706 1307 z "},"ệ":{"ha":765,"x_min":53,"x_max":719,"o":"m 719 385 q 715 308 719 371 l 256 308 q 310 167 265 208 q 431 125 354 125 q 519 140 478 125 q 610 189 561 156 l 692 78 q 413 -22 568 -22 q 146 82 239 -22 q 53 364 53 186 q 92 566 53 476 q 208 707 132 656 q 388 758 283 758 q 632 660 544 758 q 719 385 719 561 m 524 440 q 392 624 524 624 q 297 578 331 624 q 256 432 263 533 l 524 432 l 524 440 m 208 867 l 136 950 l 331 1132 l 453 1132 l 647 950 l 574 867 l 392 990 l 208 867 m 407 -319 q 320 -287 354 -319 q 286 -204 286 -254 q 320 -122 286 -154 q 407 -89 354 -89 q 493 -122 460 -89 q 526 -204 526 -154 q 493 -287 526 -254 q 407 -319 460 -319 z "},"ề":{"ha":765,"x_min":-37,"x_max":719,"o":"m 719 385 q 715 308 719 371 l 256 308 q 310 167 265 208 q 431 125 354 125 q 519 140 478 125 q 610 189 561 156 l 692 78 q 413 -22 568 -22 q 146 82 239 -22 q 53 364 53 186 q 92 566 53 476 q 208 707 132 656 q 388 758 283 758 q 632 660 544 758 q 719 385 719 561 m 524 440 q 392 624 524 624 q 297 578 331 624 q 256 432 263 533 l 524 432 l 524 440 m 206 814 l 132 897 l 326 1069 l 449 1069 l 643 897 l 571 814 l 388 929 l 206 814 m 71 1307 l 250 1079 l 174 1011 l -37 1201 l 71 1307 z "},"ể":{"ha":765,"x_min":53,"x_max":775,"o":"m 719 385 q 715 308 719 371 l 256 308 q 310 167 265 208 q 431 125 354 125 q 519 140 478 125 q 610 189 561 156 l 692 78 q 413 -22 568 -22 q 146 82 239 -22 q 53 364 53 186 q 92 566 53 476 q 208 707 132 656 q 388 758 283 758 q 632 660 544 758 q 719 385 719 561 m 524 440 q 392 624 524 624 q 297 578 331 624 q 256 432 263 533 l 524 432 l 524 440 m 206 814 l 132 897 l 326 1069 l 449 1069 l 643 897 l 571 814 l 388 929 l 206 814 m 536 1171 q 612 1185 589 1174 q 635 1225 635 1197 q 619 1258 635 1246 q 579 1269 604 1269 q 496 1251 542 1269 l 461 1338 q 607 1374 522 1374 q 731 1336 686 1374 q 775 1236 775 1299 q 744 1151 775 1183 q 658 1108 714 1118 l 658 1033 l 536 1033 l 536 1171 z "},"ễ":{"ha":765,"x_min":53,"x_max":719,"o":"m 719 385 q 715 308 719 371 l 256 308 q 310 167 265 208 q 431 125 354 125 q 519 140 478 125 q 610 189 561 156 l 692 78 q 413 -22 568 -22 q 146 82 239 -22 q 53 364 53 186 q 92 566 53 476 q 208 707 132 656 q 388 758 283 758 q 632 660 544 758 q 719 385 719 561 m 524 440 q 392 624 524 624 q 297 578 331 624 q 256 432 263 533 l 524 432 l 524 440 m 206 807 l 132 890 l 326 1063 l 449 1063 l 643 890 l 571 807 l 388 922 l 206 807 m 468 1100 q 417 1109 439 1100 q 367 1136 394 1118 q 308 1161 332 1161 q 269 1147 286 1161 q 235 1101 253 1132 l 133 1149 q 206 1254 161 1213 q 306 1296 250 1296 q 360 1286 338 1296 q 410 1258 383 1276 q 441 1240 429 1246 q 467 1235 453 1235 q 506 1249 489 1235 q 540 1293 522 1263 l 642 1246 q 569 1139 614 1178 q 468 1100 525 1100 z "},"ȅ":{"ha":765,"x_min":53,"x_max":719,"o":"m 719 385 q 715 308 719 371 l 256 308 q 310 167 265 208 q 431 125 354 125 q 519 140 478 125 q 610 189 561 156 l 692 78 q 413 -22 568 -22 q 146 82 239 -22 q 53 364 53 186 q 92 566 53 476 q 208 707 132 656 q 388 758 283 758 q 632 660 544 758 q 719 385 719 561 m 524 440 q 392 624 524 624 q 297 578 331 624 q 256 432 263 533 l 524 432 l 524 440 m 226 1185 l 358 919 l 253 871 l 89 1115 l 226 1185 m 463 1185 l 582 922 l 475 878 l 324 1118 l 463 1185 z "},"ë":{"ha":765,"x_min":53,"x_max":719,"o":"m 719 385 q 715 308 719 371 l 256 308 q 310 167 265 208 q 431 125 354 125 q 519 140 478 125 q 610 189 561 156 l 692 78 q 413 -22 568 -22 q 146 82 239 -22 q 53 364 53 186 q 92 566 53 476 q 208 707 132 656 q 388 758 283 758 q 632 660 544 758 q 719 385 719 561 m 524 440 q 392 624 524 624 q 297 578 331 624 q 256 432 263 533 l 524 432 l 524 440 m 233 1100 q 308 1070 278 1100 q 338 997 338 1040 q 308 924 338 954 q 233 894 278 894 q 160 924 190 894 q 129 997 129 954 q 160 1070 129 1040 q 233 1100 190 1100 m 547 1100 q 622 1070 592 1100 q 653 997 653 1040 q 622 924 653 954 q 547 894 592 894 q 474 924 504 894 q 444 997 444 954 q 474 1070 444 1040 q 547 1100 504 1100 z "},"ė":{"ha":765,"x_min":53,"x_max":719,"o":"m 719 385 q 715 308 719 371 l 256 308 q 310 167 265 208 q 431 125 354 125 q 519 140 478 125 q 610 189 561 156 l 692 78 q 413 -22 568 -22 q 146 82 239 -22 q 53 364 53 186 q 92 566 53 476 q 208 707 132 656 q 388 758 283 758 q 632 660 544 758 q 719 385 719 561 m 524 440 q 392 624 524 624 q 297 578 331 624 q 256 432 263 533 l 524 432 l 524 440 m 390 1115 q 477 1083 443 1115 q 511 1000 511 1050 q 477 917 511 950 q 390 885 443 885 q 304 917 338 885 q 271 1000 271 950 q 304 1083 271 1050 q 390 1115 338 1115 z "},"ẹ":{"ha":765,"x_min":53,"x_max":719,"o":"m 719 385 q 715 308 719 371 l 256 308 q 310 167 265 208 q 431 125 354 125 q 519 140 478 125 q 610 189 561 156 l 692 78 q 413 -22 568 -22 q 146 82 239 -22 q 53 364 53 186 q 92 566 53 476 q 208 707 132 656 q 388 758 283 758 q 632 660 544 758 q 719 385 719 561 m 524 440 q 392 624 524 624 q 297 578 331 624 q 256 432 263 533 l 524 432 l 524 440 m 407 -319 q 320 -287 354 -319 q 286 -204 286 -254 q 320 -122 286 -154 q 407 -89 354 -89 q 493 -122 460 -89 q 526 -204 526 -154 q 493 -287 526 -254 q 407 -319 460 -319 z "},"è":{"ha":765,"x_min":53,"x_max":719,"o":"m 719 385 q 715 308 719 371 l 256 308 q 310 167 265 208 q 431 125 354 125 q 519 140 478 125 q 610 189 561 156 l 692 78 q 413 -22 568 -22 q 146 82 239 -22 q 53 364 53 186 q 92 566 53 476 q 208 707 132 656 q 388 758 283 758 q 632 660 544 758 q 719 385 719 561 m 524 440 q 392 624 524 624 q 297 578 331 624 q 256 432 263 533 l 524 432 l 524 440 m 297 1149 l 593 971 l 538 869 l 218 997 l 297 1149 z "},"ẻ":{"ha":765,"x_min":53,"x_max":719,"o":"m 719 385 q 715 308 719 371 l 256 308 q 310 167 265 208 q 431 125 354 125 q 519 140 478 125 q 610 189 561 156 l 692 78 q 413 -22 568 -22 q 146 82 239 -22 q 53 364 53 186 q 92 566 53 476 q 208 707 132 656 q 388 758 283 758 q 632 660 544 758 q 719 385 719 561 m 524 440 q 392 624 524 624 q 297 578 331 624 q 256 432 263 533 l 524 432 l 524 440 m 329 979 q 405 994 382 982 q 428 1033 428 1006 q 413 1066 428 1054 q 372 1078 397 1078 q 289 1060 335 1078 l 254 1146 q 400 1182 315 1182 q 524 1144 479 1182 q 568 1044 568 1107 q 538 959 568 992 q 451 917 507 926 l 451 842 l 329 842 l 329 979 z "},"ȇ":{"ha":765,"x_min":53,"x_max":719,"o":"m 719 385 q 715 308 719 371 l 256 308 q 310 167 265 208 q 431 125 354 125 q 519 140 478 125 q 610 189 561 156 l 692 78 q 413 -22 568 -22 q 146 82 239 -22 q 53 364 53 186 q 92 566 53 476 q 208 707 132 656 q 388 758 283 758 q 632 660 544 758 q 719 385 719 561 m 524 440 q 392 624 524 624 q 297 578 331 624 q 256 432 263 533 l 524 432 l 524 440 m 390 1086 q 553 1023 490 1086 q 624 860 615 960 l 511 839 q 390 947 482 947 q 271 839 297 947 l 158 860 q 228 1023 167 960 q 390 1086 290 1086 z "},"ē":{"ha":765,"x_min":53,"x_max":719,"o":"m 719 385 q 715 308 719 371 l 256 308 q 310 167 265 208 q 431 125 354 125 q 519 140 478 125 q 610 189 561 156 l 692 78 q 413 -22 568 -22 q 146 82 239 -22 q 53 364 53 186 q 92 566 53 476 q 208 707 132 656 q 388 758 283 758 q 632 660 544 758 q 719 385 719 561 m 524 440 q 392 624 524 624 q 297 578 331 624 q 256 432 263 533 l 524 432 l 524 440 m 599 914 l 185 914 l 185 1053 l 599 1053 l 599 914 z "},"ę":{"ha":765,"x_min":53,"x_max":719,"o":"m 719 385 q 715 308 719 371 l 256 308 q 310 167 265 208 q 431 125 354 125 q 519 140 478 125 q 610 189 561 156 l 692 78 q 542 -3 621 21 q 411 -135 411 -62 q 485 -199 411 -199 q 569 -189 525 -199 l 556 -315 q 461 -325 504 -325 q 319 -283 374 -325 q 264 -169 264 -240 q 364 -19 264 -76 q 133 97 214 -6 q 53 364 53 200 q 92 566 53 476 q 208 707 132 656 q 388 758 283 758 q 632 660 544 758 q 719 385 719 561 m 524 440 q 392 624 524 624 q 297 578 331 624 q 256 432 263 533 l 524 432 l 524 440 z "},"ɛ":{"ha":663,"x_min":53,"x_max":656,"o":"m 365 758 q 632 679 522 758 l 550 574 q 472 608 508 597 q 390 619 435 619 q 311 597 340 619 q 282 533 282 575 q 312 469 282 493 q 396 446 342 446 l 486 446 l 465 314 l 386 314 q 288 291 318 314 q 258 219 258 268 q 292 147 258 174 q 389 121 325 121 q 479 135 436 121 q 571 179 522 149 l 656 67 q 526 1 600 24 q 364 -22 451 -22 q 139 38 225 -22 q 53 204 53 97 q 247 392 53 368 q 82 556 82 425 q 160 704 82 650 q 365 758 238 758 z "},"ʚ":{"ha":794,"x_min":53,"x_max":742,"o":"m 381 -22 q 142 40 232 -22 q 53 214 53 101 q 101 335 53 293 q 247 393 150 378 q 89 554 89 433 q 171 703 89 647 q 383 758 253 758 q 576 710 496 758 q 699 574 657 661 q 742 368 742 486 q 649 80 742 182 q 381 -22 557 -22 m 382 121 q 506 178 469 121 q 542 368 542 236 q 503 559 542 499 q 386 619 465 619 q 313 597 340 619 q 286 536 286 575 q 319 469 286 492 q 406 446 351 446 l 428 446 l 439 314 l 390 314 q 289 293 325 314 q 253 224 253 272 q 287 147 253 172 q 382 121 321 121 z "},"ɜ":{"ha":692,"x_min":8,"x_max":639,"o":"m 319 758 q 520 703 439 758 q 601 556 601 649 q 563 453 601 493 q 443 393 524 413 q 590 335 542 378 q 639 214 639 293 q 547 38 639 99 q 304 -22 454 -22 q 8 68 128 -22 l 103 179 q 197 134 153 147 q 297 121 240 121 q 433 222 433 121 q 397 292 433 271 q 290 314 360 314 l 179 314 l 192 446 l 275 446 q 368 469 335 446 q 401 538 401 492 q 372 599 401 579 q 292 619 342 619 q 203 606 242 619 q 124 567 165 593 l 32 674 q 163 738 93 717 q 319 758 232 758 z "},"ɞ":{"ha":794,"x_min":53,"x_max":742,"o":"m 414 -22 q 145 80 238 -22 q 53 368 53 182 q 95 574 53 486 q 218 710 138 661 q 411 758 299 758 q 624 703 542 758 q 706 554 706 647 q 547 393 706 433 q 693 335 644 378 q 742 214 742 293 q 652 40 742 101 q 414 -22 563 -22 m 413 121 q 508 147 474 121 q 542 224 542 172 q 506 293 542 272 q 404 314 469 314 l 356 314 l 367 446 l 389 446 q 476 469 443 446 q 508 536 508 492 q 481 597 508 575 q 408 619 454 619 q 291 559 329 619 q 253 368 253 499 q 289 178 253 236 q 413 121 325 121 z "},"ɝ":{"ha":1036,"x_min":8,"x_max":1057,"o":"m 1057 481 q 886 428 986 428 q 735 474 790 428 q 672 600 681 519 l 672 608 l 601 568 l 601 556 q 563 453 601 493 q 443 393 524 413 q 590 335 542 378 q 639 214 639 293 q 547 38 639 99 q 304 -22 454 -22 q 8 68 128 -22 l 103 179 q 197 134 153 147 q 297 121 240 121 q 433 222 433 121 q 397 292 433 271 q 290 314 360 314 l 179 314 l 192 446 l 275 446 q 368 469 335 446 q 401 538 401 492 q 372 599 401 579 q 292 619 342 619 q 203 606 242 619 q 124 567 165 593 l 32 674 q 163 738 93 717 q 319 758 232 758 q 453 738 392 758 q 551 678 514 717 l 664 736 l 832 736 l 832 650 q 907 569 832 569 q 953 575 933 569 q 999 593 972 581 l 1057 481 z "},"ɘ":{"ha":765,"x_min":46,"x_max":713,"o":"m 378 758 q 628 651 544 758 q 713 364 713 544 q 619 83 713 188 q 353 -22 525 -22 q 74 78 197 -22 l 154 189 q 247 140 203 156 q 342 125 290 125 q 458 166 417 125 q 508 308 500 207 l 50 308 q 46 385 46 371 q 135 659 46 560 q 378 758 224 758 m 240 432 l 510 432 q 473 581 504 539 q 375 624 442 624 q 240 440 243 624 l 240 432 z "},"ʃ":{"ha":392,"x_min":-151,"x_max":526,"o":"m 346 1051 q 526 999 450 1051 l 467 875 q 419 897 440 890 q 371 904 397 904 q 294 814 294 904 l 294 -53 q 225 -240 294 -175 q 38 -306 156 -306 q -151 -247 -75 -306 l -83 -131 q -33 -152 -53 -146 q 17 -158 -12 -158 q 97 -69 97 -158 l 97 806 q 162 985 97 919 q 346 1051 226 1051 z "},"ʆ":{"ha":458,"x_min":-115,"x_max":593,"o":"m 438 904 q 361 814 361 904 l 361 736 l 363 26 q 361 -6 363 4 q 506 -62 431 -25 l 468 -149 q 349 -106 424 -129 q 83 -306 301 -306 q -63 -262 -11 -306 q -115 -146 -115 -219 q -58 -15 -115 -61 q 100 31 0 31 q 164 28 125 31 l 164 806 q 228 985 164 919 q 413 1051 293 1051 q 593 999 517 1051 l 533 875 q 485 897 507 890 q 438 904 464 904 m 72 -197 q 140 -168 118 -197 q 164 -72 161 -139 q 100 -69 128 -69 q 7 -139 7 -69 q 72 -197 7 -197 z "},"ƪ":{"ha":528,"x_min":-61,"x_max":679,"o":"m 679 -247 q 490 -306 603 -306 q 303 -240 372 -306 q 233 -53 233 -175 l 233 615 q 149 600 190 600 q -2 661 57 600 q -61 824 -61 722 q 5 988 -61 925 q 179 1051 71 1051 q 363 986 296 1051 q 431 807 431 921 l 431 -69 q 511 -158 431 -158 q 560 -152 540 -158 q 611 -131 581 -146 l 679 -247 m 185 739 q 233 746 206 739 l 233 833 q 175 911 233 911 q 114 828 114 911 q 185 739 114 739 z "},"ʅ":{"ha":658,"x_min":-10,"x_max":668,"o":"m 668 36 q 479 -22 592 -22 q 292 43 361 -22 q 222 231 222 108 l 222 521 q 146 611 222 611 q 98 604 119 611 q 50 582 76 597 l -10 706 q 171 758 67 758 q 355 692 290 758 q 419 513 419 626 l 419 214 q 500 125 419 125 q 549 131 529 125 q 600 153 569 138 l 668 36 z "},"ɇ":{"ha":765,"x_min":53,"x_max":719,"o":"m 401 311 l 354 135 q 431 125 385 125 q 519 140 478 125 q 610 189 561 156 l 692 78 q 413 -22 568 -22 q 314 -12 357 -22 l 290 -101 l 221 -83 l 246 10 q 102 144 151 51 q 53 364 53 236 q 92 566 53 476 q 208 707 132 656 q 388 758 283 758 q 446 754 418 758 l 467 832 l 536 814 l 515 738 q 667 611 614 701 q 719 385 719 521 q 715 311 719 378 l 401 311 m 392 626 q 286 580 322 626 q 242 428 250 533 l 358 428 l 411 625 q 392 626 406 626 m 540 438 q 479 603 540 561 l 432 428 l 540 428 l 540 438 m 326 311 l 243 311 q 290 175 251 221 l 326 311 z "},"ẽ":{"ha":765,"x_min":53,"x_max":719,"o":"m 719 385 q 715 308 719 371 l 256 308 q 310 167 265 208 q 431 125 354 125 q 519 140 478 125 q 610 189 561 156 l 692 78 q 413 -22 568 -22 q 146 82 239 -22 q 53 364 53 186 q 92 566 53 476 q 208 707 132 656 q 388 758 283 758 q 632 660 544 758 q 719 385 719 561 m 524 440 q 392 624 524 624 q 297 578 331 624 q 256 432 263 533 l 524 432 l 524 440 m 472 889 q 422 899 443 889 q 371 926 400 908 q 340 947 353 940 q 313 953 326 953 q 274 938 290 953 q 239 890 257 922 l 138 940 q 210 1051 165 1008 q 310 1094 254 1094 q 364 1084 342 1094 q 414 1056 386 1074 q 444 1037 432 1043 q 471 1031 457 1031 q 509 1045 493 1031 q 544 1092 525 1060 l 646 1042 q 574 930 618 971 q 472 889 529 889 z "},"ǝ":{"ha":771,"x_min":46,"x_max":718,"o":"m 374 758 q 632 654 546 758 q 718 369 718 550 q 678 166 718 254 q 561 28 638 78 q 378 -22 485 -22 q 203 22 278 -22 q 87 151 128 67 q 46 353 46 236 q 50 428 46 394 l 525 428 q 480 570 519 525 q 367 615 440 615 q 272 601 315 615 q 181 553 228 586 l 97 665 q 374 758 213 758 m 378 119 q 483 163 446 119 q 525 304 519 206 l 233 304 l 233 294 q 272 166 235 213 q 378 119 310 119 z "},"ə":{"ha":771,"x_min":46,"x_max":718,"o":"m 374 758 q 632 654 546 758 q 718 369 718 550 q 678 166 718 254 q 561 28 638 78 q 378 -22 485 -22 q 203 22 278 -22 q 87 151 128 67 q 46 353 46 236 q 50 428 46 394 l 525 428 q 480 570 519 525 q 367 615 440 615 q 272 601 315 615 q 181 553 228 586 l 97 665 q 374 758 213 758 m 378 119 q 483 163 446 119 q 525 304 519 206 l 233 304 l 233 294 q 272 166 235 213 q 378 119 310 119 z "},"ɚ":{"ha":1129,"x_min":46,"x_max":1150,"o":"m 1150 481 q 979 428 1079 428 q 828 474 883 428 q 765 600 774 519 l 765 608 l 686 564 q 718 369 718 479 q 678 166 718 254 q 561 28 638 78 q 378 -22 485 -22 q 203 22 278 -22 q 87 151 128 67 q 46 353 46 236 q 50 428 46 394 l 525 428 q 480 570 519 525 q 367 615 440 615 q 272 601 315 615 q 181 553 228 586 l 97 665 q 374 758 213 758 q 622 665 533 758 l 757 736 l 925 736 l 925 650 q 1000 569 925 569 q 1046 575 1026 569 q 1092 593 1065 581 l 1150 481 m 378 119 q 483 163 446 119 q 525 304 519 206 l 233 304 l 233 294 q 272 166 235 213 q 378 119 310 119 z "},"ʒ":{"ha":699,"x_min":-12,"x_max":669,"o":"m 361 293 q 590 216 511 286 q 669 13 669 146 q 626 -152 669 -81 q 499 -265 582 -224 q 306 -306 417 -306 q -12 -167 106 -306 l 93 -65 q 190 -132 143 -111 q 296 -153 236 -153 q 420 -108 375 -153 q 465 24 465 -64 q 420 138 465 103 q 281 172 375 172 l 156 172 l 156 292 l 404 586 l 39 586 l 39 736 l 628 736 l 628 599 l 361 293 z "},"ǯ":{"ha":699,"x_min":-12,"x_max":669,"o":"m 361 293 q 590 216 511 286 q 669 13 669 146 q 626 -152 669 -81 q 499 -265 582 -224 q 306 -306 417 -306 q -12 -167 106 -306 l 93 -65 q 190 -132 143 -111 q 296 -153 236 -153 q 420 -108 375 -153 q 465 24 465 -64 q 420 138 465 103 q 281 172 375 172 l 156 172 l 156 292 l 404 586 l 39 586 l 39 736 l 628 736 l 628 599 l 361 293 m 517 1119 l 589 1036 l 394 854 l 272 854 l 78 1036 l 151 1119 l 333 996 l 517 1119 z "},"ʓ":{"ha":699,"x_min":-37,"x_max":669,"o":"m 669 15 q 609 -172 669 -94 q 433 -283 549 -250 l 469 -358 l 364 -399 l 321 -303 q 264 -306 285 -306 q 41 -251 119 -306 q -37 -99 -37 -197 q 11 24 -37 -21 q 136 69 60 69 q 264 24 214 69 q 363 -133 314 -21 l 365 -139 q 442 -81 418 -121 q 465 24 465 -42 q 421 144 465 108 q 281 179 376 179 l 156 179 l 156 299 l 407 586 l 39 586 l 39 736 l 628 736 l 628 599 l 363 300 q 591 222 513 293 q 669 15 669 151 m 104 -90 q 138 -138 104 -124 q 256 -153 171 -153 q 206 -66 228 -89 q 153 -43 185 -43 q 117 -56 129 -43 q 104 -90 104 -68 z "},"ƹ":{"ha":699,"x_min":29,"x_max":711,"o":"m 711 -167 q 574 -270 653 -235 q 389 -306 496 -306 q 199 -265 281 -306 q 73 -156 117 -225 q 29 1 29 -86 q 110 210 29 135 q 336 293 190 286 l 71 599 l 71 736 l 660 736 l 660 586 l 293 586 l 542 289 l 542 172 l 418 172 q 278 133 324 172 q 233 11 233 94 q 278 -110 233 -68 q 400 -153 322 -153 q 509 -133 461 -153 q 608 -68 557 -114 l 711 -167 z "},"ƺ":{"ha":693,"x_min":32,"x_max":663,"o":"m 251 -307 q 39 -99 39 -235 q 96 19 39 -24 q 275 82 153 63 q 416 122 375 99 q 457 192 457 144 q 429 249 457 231 q 344 267 401 267 l 154 267 l 154 379 l 385 593 l 32 593 l 32 736 l 617 736 l 617 606 l 367 386 l 414 386 q 597 333 531 386 q 663 188 663 281 q 588 25 663 81 q 385 -50 513 -31 q 256 -80 288 -65 q 224 -121 224 -94 q 243 -159 224 -142 q 303 -194 263 -176 l 251 -307 z "},"f":{"ha":488,"x_min":6,"x_max":586,"o":"m 413 904 q 341 881 363 904 q 319 804 319 857 l 319 736 l 494 736 l 472 597 l 319 597 l 319 0 l 122 0 l 122 597 l 6 597 l 6 736 l 122 736 l 122 810 q 192 984 122 917 q 392 1051 263 1051 q 586 1007 494 1051 l 532 876 q 413 904 472 904 z "},"ḟ":{"ha":488,"x_min":6,"x_max":586,"o":"m 413 904 q 341 881 363 904 q 319 804 319 857 l 319 736 l 494 736 l 472 597 l 319 597 l 319 0 l 122 0 l 122 597 l 6 597 l 6 736 l 122 736 l 122 810 q 192 984 122 917 q 392 1051 263 1051 q 586 1007 494 1051 l 532 876 q 413 904 472 904 m 367 1358 q 453 1326 419 1358 q 488 1243 488 1293 q 453 1160 488 1193 q 367 1128 419 1128 q 281 1160 314 1128 q 247 1243 247 1193 q 281 1326 247 1293 q 367 1358 314 1358 z "},"ʩ":{"ha":1222,"x_min":6,"x_max":1132,"o":"m 926 758 q 1078 699 1024 758 q 1132 536 1132 640 l 1132 -53 q 1063 -240 1132 -175 q 875 -306 993 -306 q 686 -247 763 -306 l 754 -131 q 805 -152 785 -146 q 854 -158 825 -158 q 935 -69 935 -158 l 935 503 q 915 587 935 563 q 854 611 894 611 q 778 585 813 611 q 713 508 744 560 l 713 0 l 515 0 l 515 597 l 319 597 l 319 0 l 122 0 l 122 597 l 6 597 l 6 736 l 122 736 l 122 810 q 192 984 122 917 q 392 1051 263 1051 q 586 1007 494 1051 l 532 876 q 413 904 472 904 q 341 881 363 904 q 319 804 319 857 l 319 736 l 686 736 l 701 643 q 802 729 747 700 q 926 758 857 758 z "},"g":{"ha":756,"x_min":15,"x_max":756,"o":"m 756 696 q 543 668 683 668 q 646 592 613 638 q 679 479 679 547 q 642 352 679 408 q 537 264 606 296 q 376 232 468 232 q 290 242 328 232 q 263 193 263 224 q 280 158 263 171 q 347 144 297 144 l 460 144 q 603 117 542 144 q 699 42 665 90 q 733 -67 733 -6 q 637 -242 733 -179 q 358 -306 540 -306 q 152 -278 228 -306 q 46 -200 76 -251 q 15 -71 15 -149 l 192 -71 q 206 -128 192 -107 q 256 -160 219 -150 q 363 -171 293 -171 q 497 -147 458 -171 q 535 -81 535 -124 q 506 -21 535 -42 q 419 0 476 0 l 311 0 q 147 41 201 0 q 93 144 93 82 q 116 220 93 183 q 179 282 139 257 q 80 370 111 319 q 49 492 49 421 q 88 633 49 572 q 199 726 128 693 q 363 758 271 758 q 550 778 476 756 q 707 847 624 800 l 756 696 m 367 626 q 278 591 311 626 q 246 494 246 556 q 278 396 246 432 q 368 360 311 360 q 458 394 428 360 q 489 497 489 429 q 367 626 489 626 z "}}}
